<svg width="100" height="117" viewBox="0 0 100 117" fill="none" xmlns="http://www.w3.org/2000/svg">
    <g clip-path="url(#clip0_299_747)">
        <path
            d="M63.5164 107.99C64.2031 107.904 64.4606 107.99 64.7181 107.904C80.4255 98.4447 91.0688 85.0294 95.103 66.9703C96.133 62.4125 95.9613 57.6827 94.7597 53.0389C92.2705 43.0634 83.9447 36.1838 73.7306 35.5818C68.4089 35.2378 63.2589 35.8398 58.624 38.7636C58.2806 41.2575 58.0231 43.7514 57.5081 46.0733C56.6498 49.8571 54.6756 52.953 51.1565 54.8449C48.5815 56.3068 46.0065 56.3068 44.6332 54.9309C42.8307 53.1249 42.8307 50.7171 43.9465 48.7392C45.4915 45.9873 47.3798 43.4074 49.354 40.9995C50.6415 39.4516 52.3581 38.1617 53.9031 36.8717C52.444 27.1542 43.2599 23.0264 32.2732 27.0682C31.9299 28.4442 31.5865 29.9061 31.1574 31.282C29.4407 36.3558 26.2649 40.2256 21.1149 42.0315C19.1408 42.7195 16.9949 42.9774 15.2783 41.1715C13.9908 39.7956 13.9908 37.3877 15.3641 34.9798C17.5958 31.196 20.9433 28.5301 24.5483 26.2083C25.8357 25.4343 27.1232 24.6603 28.4107 23.9724C26.6941 8.92311 13.2183 -1.74037 0 4.27933C0.085833 3.16139 -5.24395e-06 2.21543 0.343327 1.69946C0.772492 1.09749 1.71666 0.753507 2.48915 0.581515C9.78496 -0.794417 16.5658 0.0655395 22.1449 5.39728C26.3507 9.35308 29.1832 14.1689 31.0716 19.6726C31.3291 20.4465 31.5866 21.2205 31.9299 21.9945C31.9299 22.0805 32.1015 22.1665 32.4449 22.4244C33.2174 22.3384 34.1615 22.3385 35.1057 22.1665C46.6073 20.3605 52.6157 23.4564 57.9373 34.2059C58.9673 33.8619 60.169 33.5179 61.2848 33.0879C67.8939 30.852 74.5031 30.68 81.1981 32.9159C92.0989 36.5278 99.1372 45.9013 99.9096 57.7687C100.339 64.2184 99.223 70.4101 96.9055 76.4298C91.2405 90.9631 81.9705 102.401 68.0656 109.882C67.3789 110.312 66.6064 110.656 65.9198 111.086C65.8339 111.172 65.7481 111.344 65.4906 111.86C68.4089 112.548 71.1556 112.29 73.9023 112.118C76.5631 112.032 79.3097 111.774 82.228 111.602C81.9705 113.838 80.7689 114.698 79.3097 115.214C77.5931 115.73 75.8764 116.418 74.1597 116.504C69.5248 116.676 64.8039 116.762 60.0831 116.504C56.3923 116.246 55.3623 114.268 56.9931 111.258C60.5123 104.894 64.1173 98.5307 67.7223 92.167C68.3231 91.1351 69.0956 90.2751 70.0398 89.0712C71.6706 90.9631 70.9839 92.339 70.3831 93.629C67.9798 98.2727 65.8339 102.917 63.5164 107.99ZM17.8533 38.5917C23.7757 37.8177 27.4666 34.0339 27.7241 28.7021C23.7757 31.282 19.9991 33.6039 17.8533 38.5917ZM46.8648 51.921C51.929 50.7171 54.3323 47.2772 53.8173 42.0315C50.5557 44.7833 47.7232 47.3632 46.8648 51.921Z"
            fill="#FF761B" />
    </g>
    <defs>
        <clipPath id="clip0_299_747">
            <rect width="100" height="116.667" fill="white" />
        </clipPath>
    </defs>
</svg>