<svg width="70" height="70" viewBox="0 0 70 70" fill="none" xmlns="http://www.w3.org/2000/svg">
<path d="M28.8395 29.3652C26.8445 29.3652 25.2695 31.1152 25.2695 33.2502C25.2695 35.3852 26.8795 37.1352 28.8395 37.1352C30.8345 37.1352 32.4095 35.3852 32.4095 33.2502C32.4445 31.1152 30.8345 29.3652 28.8395 29.3652ZM41.6145 29.3652C39.6195 29.3652 38.0445 31.1152 38.0445 33.2502C38.0445 35.3852 39.6545 37.1352 41.6145 37.1352C43.6095 37.1352 45.1845 35.3852 45.1845 33.2502C45.1845 31.1152 43.6095 29.3652 41.6145 29.3652Z" fill="#5D6AF2"/>
<path d="M58.6248 0H11.7248C7.7698 0 4.5498 3.22 4.5498 7.21V54.53C4.5498 58.52 7.7698 61.74 11.7248 61.74H51.4148L49.5598 55.265L54.0398 59.43L58.2748 63.35L65.7998 70V7.21C65.7998 3.22 62.5798 0 58.6248 0ZM45.1148 45.71C45.1148 45.71 43.8548 44.205 42.8048 42.875C47.3898 41.58 49.1398 38.71 49.1398 38.71C47.7048 39.655 46.3398 40.32 45.1148 40.775C43.3648 41.51 41.6848 42 40.0398 42.28C36.6798 42.91 33.5998 42.735 30.9748 42.245C28.9798 41.86 27.2648 41.3 25.8298 40.74C25.0248 40.425 24.1498 40.04 23.2748 39.55C23.1698 39.48 23.0648 39.445 22.9598 39.375C22.8898 39.34 22.8548 39.305 22.8198 39.27C22.1898 38.92 21.8398 38.675 21.8398 38.675C21.8398 38.675 23.5198 41.475 27.9648 42.805C26.9148 44.135 25.6198 45.71 25.6198 45.71C17.8848 45.465 14.9448 40.39 14.9448 40.39C14.9448 29.12 19.9848 19.985 19.9848 19.985C25.0248 16.205 29.8198 16.31 29.8198 16.31L30.1698 16.73C23.8698 18.55 20.9648 21.315 20.9648 21.315C20.9648 21.315 21.7348 20.895 23.0298 20.3C26.7748 18.655 29.7498 18.2 30.9748 18.095C31.1848 18.06 31.3598 18.025 31.5698 18.025C33.7048 17.745 36.1198 17.675 38.6398 17.955C41.9648 18.34 45.5348 19.32 49.1748 21.315C49.1748 21.315 46.4098 18.69 40.4598 16.87L40.9498 16.31C40.9498 16.31 45.7448 16.205 50.7848 19.985C50.7848 19.985 55.8248 29.12 55.8248 40.39C55.8248 40.39 52.8498 45.465 45.1148 45.71Z" fill="#5D6AF2"/>
</svg>
