<svg width="229" height="229" viewBox="0 0 229 229" fill="none" xmlns="http://www.w3.org/2000/svg">
<circle cx="114.5" cy="114.5" r="112.86" fill="white" stroke="black" stroke-width="2.71951"/>
<path d="M199.464 114.604C197.821 114.541 196.377 115.898 196.315 117.519C196.253 119.097 197.503 120.6 199.23 120.667C200.913 120.732 202.313 119.437 202.378 117.753C202.443 116.069 201.105 114.668 199.464 114.604Z" fill="black"/>
<path d="M199.96 150.441C201.076 147.801 200.441 145.085 198.015 144.059C195.551 143.017 193.875 144.275 192.065 146.826L191.952 146.984C190.808 148.605 189.994 149.45 188.811 148.949C187.802 148.523 187.257 147.377 187.954 145.728C188.825 143.671 190.352 143.196 192.02 143.902L192.369 144.05L193.437 141.528L193.01 141.347C189.827 140.001 187.14 141.38 185.737 144.698C184.513 147.589 185.144 150.373 187.88 151.53C190.343 152.571 192.031 151.341 193.834 148.809L193.945 148.651C195.003 147.177 195.746 146.073 197.027 146.614C197.958 147.008 198.284 148.13 197.709 149.488C197.052 151.04 195.955 151.743 194.402 151.086L193.996 150.914L192.945 153.397L193.527 153.644C196.243 154.792 198.729 153.35 199.96 150.441Z" fill="black"/>
<path d="M190.941 156.036L188.09 154.237C184.776 152.145 181.703 153.146 179.769 156.21C177.689 159.506 178.43 162.24 181.192 163.983L181.619 164.253L183.103 161.902L182.64 161.609C181.232 160.72 180.691 159.408 181.872 157.537C183.03 155.701 184.788 155.441 186.499 156.521L189.564 158.455C191.131 159.445 191.75 161.305 190.637 163.068C189.558 164.779 188.056 165.026 186.631 164.128L186.167 163.835L184.684 166.186L185.11 166.457C187.89 168.211 190.749 167.549 192.74 164.395C194.729 161.242 194.04 157.992 190.941 156.036Z" fill="black"/>
<path d="M176.201 177.516C178.302 179.372 180.959 179.133 182.8 177.048L187.095 172.186L176.06 162.437L174.219 164.52L178.307 168.133L176.676 169.98L170.788 168.404L168.751 170.709L174.995 172.234C174.166 174.031 174.529 176.038 176.201 177.516ZM183.36 172.597L181.087 175.169C180.207 176.165 179.006 176.283 178.044 175.433C177.079 174.582 177.05 173.374 177.929 172.38L180.203 169.806L183.36 172.597Z" fill="black"/>
<path d="M173.641 178.455L171.664 176.045C169.204 173.048 166.013 172.779 163.098 175.171C160.182 177.564 159.825 180.746 162.283 183.743L164.262 186.154C166.653 189.068 169.913 189.418 172.828 187.027C175.742 184.635 176.034 181.37 173.641 178.455ZM171.572 180.316C172.842 181.864 172.895 183.755 171.251 185.105C169.654 186.415 167.815 186.099 166.492 184.487L164.353 181.881C163.057 180.301 162.899 178.55 164.675 177.092C166.401 175.677 168.084 176.067 169.434 177.711L171.572 180.316Z" fill="black"/>
<path d="M165.002 192.577L157.408 179.936L149.173 184.882L150.474 187.05L156.327 183.535L162.618 194.009L165.002 192.577Z" fill="black"/>
<path d="M154.532 198.612L148.635 185.094L139.83 188.936L140.841 191.253L147.097 188.524L151.982 199.724L154.532 198.612Z" fill="black"/>
<path d="M137.098 205.224L136.615 202.744L132.231 203.597L129.896 191.604L127.166 192.135L129.501 204.128L125.117 204.982L125.6 207.464L137.098 205.224Z" fill="black"/>
<path d="M122.987 201.981L122.866 198.866C122.717 194.992 120.336 192.849 116.568 192.994C112.799 193.14 110.591 195.46 110.741 199.333L110.861 202.449C111.006 206.218 113.391 208.466 117.159 208.32C120.928 208.175 123.132 205.749 122.987 201.981ZM120.213 202.215C120.29 204.215 119.19 205.754 117.064 205.836C115 205.916 113.725 204.552 113.645 202.468L113.514 199.1C113.436 197.059 114.369 195.567 116.664 195.479C118.895 195.393 120 196.72 120.082 198.847L120.213 202.215Z" fill="black"/>
<path d="M99.6421 207.306L102.626 192.864L97.6745 191.842C93.796 191.041 91.3363 192.533 90.5221 196.473L89.9594 199.197C89.1452 203.137 90.812 205.483 94.6906 206.284L99.6421 207.306ZM97.4303 204.269L95.1609 203.8C92.8296 203.318 92.2309 201.946 92.6657 199.843L93.2625 196.953C93.6974 194.85 94.7905 193.827 97.1218 194.308L99.3912 194.778L97.4303 204.269Z" fill="black"/>
<path d="M85.2094 203.882L89.92 189.907L87.2848 189.02L82.5742 202.994L85.2094 203.882Z" fill="black"/>
<path d="M73.1269 199.459C75.7085 200.701 78.4523 200.198 79.5944 197.825C80.7547 195.415 79.5789 193.68 77.1187 191.747L76.9661 191.628C75.4024 190.407 74.598 189.553 75.1553 188.394C75.6304 187.407 76.8008 186.919 78.4144 187.695C80.4266 188.663 80.8269 190.212 80.0412 191.845L79.8767 192.187L82.3445 193.374L82.5455 192.956C84.0438 189.844 82.7962 187.092 79.5501 185.529C76.7216 184.168 73.9117 184.663 72.6236 187.339C71.4633 189.75 72.611 191.494 75.0521 193.419L75.2047 193.538C76.6256 194.667 77.6931 195.461 77.09 196.713C76.6515 197.624 75.5154 197.896 74.1867 197.257C72.6679 196.526 72.0196 195.396 72.7505 193.877L72.9423 193.478L70.5126 192.309L70.2385 192.879C68.9593 195.536 70.2794 198.088 73.1269 199.459Z" fill="black"/>
<path d="M68.0404 190.236L69.9732 187.474C72.2199 184.264 71.3669 181.147 68.3982 179.07C65.2051 176.834 62.4385 177.443 60.5662 180.119L60.2763 180.534L62.5548 182.128L62.8687 181.679C63.823 180.315 65.1606 179.838 66.9729 181.105C68.7506 182.349 68.9268 184.118 67.7672 185.776L65.6897 188.744C64.6266 190.263 62.7386 190.793 61.0298 189.598C59.3728 188.438 59.1966 186.926 60.1629 185.546L60.477 185.096L58.1986 183.502L57.9087 183.917C56.0244 186.61 56.5494 189.496 59.6045 191.635C62.6595 193.773 65.9386 193.238 68.0404 190.236Z" fill="black"/>
<path d="M56.5784 181.912L58.7509 179.676C61.4518 176.895 61.3606 173.693 58.6556 171.066C55.9505 168.438 52.7475 168.44 50.0466 171.221L47.8741 173.457C45.2466 176.162 45.2645 179.439 47.9694 182.067C50.6745 184.695 53.951 184.617 56.5784 181.912ZM54.4957 180.065C53.1011 181.501 51.2278 181.766 49.7016 180.284C48.2206 178.845 48.3276 176.981 49.7807 175.485L52.1295 173.068C53.5533 171.602 55.2763 171.248 56.9234 172.849C58.5253 174.404 58.3268 176.122 56.8443 177.647L54.4957 180.065Z" fill="black"/>
<path d="M42.2284 175.895L51.5169 163.726L48.9004 160.264L34.6582 165.877L36.3856 168.163L48.1659 163.381L48.3183 163.582L40.5009 173.609L42.2284 175.895Z" fill="black"/>
<path d="M33.5793 164.045L46.4919 156.923L41.75 148.327L39.5364 149.548L42.9351 155.709L39.7439 157.47L36.6911 151.935L34.4775 153.156L37.5302 158.691L34.4496 160.39L31.112 154.339L28.8984 155.56L33.5793 164.045Z" fill="black"/>
<path d="M27.7398 139.96C25.1092 140.925 24.0556 143.375 25.013 145.986L27.2468 152.078L41.0726 147.009L40.1152 144.398L34.9923 146.276L34.1438 143.962L38.3311 139.532L37.2721 136.644L32.9617 141.411C31.7749 139.827 29.8364 139.191 27.7398 139.96ZM28.6629 148.597L27.4808 145.373C27.0239 144.127 27.4907 143.013 28.6972 142.571C29.9037 142.128 30.9797 142.676 31.4367 143.922L32.6189 147.146L28.6629 148.597Z" fill="black"/>
<path d="M26.9029 116.433C28.546 116.459 29.9579 115.069 29.9829 113.447C30.0074 111.867 28.7238 110.393 26.9965 110.367C25.3114 110.341 23.9424 111.668 23.9164 113.353C23.8904 115.038 25.2598 116.408 26.9029 116.433Z" fill="black"/>
<path d="M25.6849 80.3106C24.6183 82.9697 25.3043 85.6736 27.7484 86.654C30.2316 87.65 31.8837 86.3605 33.6467 83.7763L33.7564 83.616C34.8689 81.9739 35.6678 81.114 36.8606 81.5925C37.8773 82.0003 38.4435 83.1353 37.7768 84.7973C36.9456 86.87 35.4271 87.3731 33.7456 86.6987L33.3936 86.5575L32.3741 89.0995L32.8043 89.272C36.011 90.5582 38.6724 89.1288 40.0136 85.7853C41.1821 82.8719 40.5001 80.1016 37.7432 78.9957C35.26 77.9996 33.5961 79.2618 31.841 81.8264L31.7314 81.9867C30.7011 83.4801 29.9802 84.5983 28.6898 84.0806C27.7512 83.7042 27.4041 82.589 27.9531 81.2202C28.5805 79.656 29.6649 78.9333 31.229 79.5606L31.6397 79.7254L32.6436 77.2227L32.057 76.9873C29.3195 75.8894 26.8613 77.3776 25.6849 80.3106Z" fill="black"/>
<path d="M34.386 74.9055L37.2754 76.6412C40.6344 78.6591 43.6844 77.5913 45.5502 74.485C47.5572 71.1441 46.7566 68.4266 43.9574 66.7452L43.5239 66.4848L42.092 68.8687L42.5615 69.1507C43.9881 70.0078 44.5584 71.3086 43.4192 73.205C42.3019 75.065 40.5495 75.364 38.8158 74.3225L35.7095 72.4565C34.1204 71.502 33.4601 69.6553 34.5342 67.8675C35.5756 66.1338 37.0715 65.8528 38.5162 66.7207L38.9857 67.0027L40.4178 64.6189L39.9843 64.3585C37.1671 62.6662 34.3233 63.3909 32.4032 66.5874C30.4829 69.7838 31.2436 73.0179 34.386 74.9055Z" fill="black"/>
<path d="M48.5806 53.1264C46.4409 51.3176 43.79 51.6145 41.9947 53.7382L37.8057 58.6936L49.0517 68.2004L50.8469 66.0768L46.68 62.5542L48.2712 60.6717L54.1926 62.1189L56.1784 59.7699L49.9031 58.3823C50.6928 56.5672 50.286 54.5682 48.5806 53.1264ZM41.5315 58.2019L43.7485 55.5795C44.6053 54.5659 45.804 54.4205 46.7854 55.2503C47.7668 56.0798 47.823 57.2859 46.9662 58.2996L44.7493 60.9221L41.5315 58.2019Z" fill="black"/>
<path d="M50.9979 52.166L53.0281 54.5323C55.5521 57.4744 58.749 57.6741 61.6111 55.2187C64.4732 52.7633 64.762 49.5732 62.2379 46.6312L60.2078 44.2648C57.7523 41.4027 54.4869 41.1231 51.6249 43.5784C48.7627 46.0339 48.5426 49.3039 50.9979 52.166ZM53.0262 50.2593C51.7231 48.7403 51.6285 46.8507 53.2435 45.4652C54.8104 44.121 56.6569 44.3966 58.0149 45.9795L60.2097 48.5379C61.5402 50.0888 61.7352 51.8368 59.9924 53.3319C58.2976 54.7859 56.6065 54.4325 55.221 52.8177L53.0262 50.2593Z" fill="black"/>
<path d="M59.4131 37.7239L67.2838 50.1949L75.4078 45.0677L74.0585 42.9297L68.2862 46.5728L61.7646 36.2397L59.4131 37.7239Z" fill="black"/>
<path d="M69.7305 31.4407L75.9276 44.8223L84.6448 40.7855L83.5824 38.4914L77.3886 41.3598L72.2539 30.272L69.7305 31.4407Z" fill="black"/>
<path d="M86.8311 24.4222L87.3709 26.8919L91.7341 25.9382L94.3433 37.8752L97.0601 37.2814L94.4509 25.3444L98.814 24.3906L98.2742 21.9209L86.8311 24.4222Z" fill="black"/>
<path d="M101.048 27.2854L101.241 30.3974C101.48 34.2663 103.91 36.3536 107.674 36.1209C111.437 35.8883 113.591 33.5177 113.352 29.6487L113.16 26.5367C112.927 22.7729 110.491 20.5806 106.727 20.8132C102.963 21.0459 100.816 23.5215 101.048 27.2854ZM103.816 26.9876C103.693 24.9901 104.757 23.4257 106.881 23.2944C108.941 23.167 110.248 24.5005 110.377 26.5821L110.585 29.9465C110.711 31.986 109.812 33.4981 107.52 33.6398C105.291 33.7775 104.155 32.4757 104.024 30.352L103.816 26.9876Z" fill="black"/>
<path d="M124.744 21.418L122.036 35.9143L127.006 36.8426C130.9 37.5698 133.33 36.0307 134.069 32.0753L134.579 29.3416C135.318 25.3862 133.607 23.0735 129.714 22.3463L124.744 21.418ZM127.013 24.4136L129.291 24.8391C131.631 25.2762 132.256 26.6359 131.861 28.7482L131.32 31.6475C130.925 33.7597 129.852 34.8023 127.512 34.3652L125.234 33.9398L127.013 24.4136Z" fill="black"/>
<path d="M139.212 24.5332L134.766 38.5939L137.417 39.4324L141.863 25.3716L139.212 24.5332Z" fill="black"/>
<path d="M151.1 28.5653C148.492 27.3807 145.76 27.945 144.671 30.3427C143.565 32.7788 144.779 34.4871 147.282 36.364L147.437 36.4806C149.028 37.6656 149.851 38.5022 149.32 39.6724C148.867 40.6698 147.707 41.1846 146.077 40.4442C144.044 39.5209 143.609 37.9815 144.358 36.3319L144.515 35.9866L142.021 34.8542L141.829 35.2763C140.401 38.4221 141.71 41.145 144.99 42.6345C147.848 43.9324 150.646 43.3751 151.874 40.6704C152.981 38.2343 151.794 36.5156 149.311 34.6475L149.155 34.5307C147.71 33.4346 146.625 32.6643 147.2 31.3984C147.618 30.4776 148.748 30.1807 150.09 30.7904C151.625 31.4873 152.298 32.6029 151.601 34.1375L151.419 34.5404L153.874 35.6552L154.135 35.0798C155.355 32.3943 153.978 29.8719 151.1 28.5653Z" fill="black"/>
<path d="M156.527 37.7175L154.656 40.5209C152.481 43.7798 153.401 46.8772 156.416 48.8893C159.656 51.0533 162.409 50.3831 164.222 47.6674L164.503 47.2468L162.191 45.7028L161.886 46.1583C160.961 47.5424 159.636 48.0499 157.796 46.8217C155.99 45.6169 155.775 43.8522 156.898 42.1702L158.911 39.1564C159.94 37.6146 161.817 37.0432 163.55 38.2013C165.232 39.3242 165.442 40.8319 164.506 42.2335L164.202 42.689L166.515 44.2332L166.796 43.8126C168.621 41.0794 168.032 38.2042 164.93 36.1338C161.83 34.0633 158.563 34.6688 156.527 37.7175Z" fill="black"/>
<path d="M168.18 45.7664L166.057 48.0498C163.418 50.8885 163.578 54.0876 166.34 56.6555C169.102 59.2234 172.304 59.1516 174.943 56.3129L177.067 54.0296C179.634 51.2679 179.546 47.9917 176.784 45.4238C174.023 42.8559 170.748 43.0048 168.18 45.7664ZM170.302 47.5674C171.666 46.1018 173.533 45.7954 175.091 47.2444C176.604 48.6502 176.537 50.5159 175.116 52.0434L172.821 54.5119C171.43 56.0084 169.715 56.3987 168.033 54.8349C166.397 53.3143 166.559 51.5942 168.007 50.0359L170.302 47.5674Z" fill="black"/>
<path d="M182.709 51.5039L173.688 63.8728L176.379 67.2771L190.496 61.3533L188.719 59.1058L177.046 64.1454L176.889 63.947L184.485 53.7514L182.709 51.5039Z" fill="black"/>
<path d="M191.537 63.0073L178.785 70.4143L183.716 78.9034L185.902 77.6337L182.367 71.5492L185.519 69.7185L188.694 75.1837L190.879 73.9139L187.705 68.4488L190.747 66.6818L194.218 72.657L196.404 71.3871L191.537 63.0073Z" fill="black"/>
<path d="M198.066 87.3212C200.679 86.3073 201.686 83.8373 200.68 81.2449L198.332 75.1958L184.604 80.5239L185.61 83.1164L190.697 81.1422L191.589 83.44L187.485 87.9477L188.598 90.8152L192.818 85.9683C194.035 87.53 195.985 88.1291 198.066 87.3212ZM196.981 78.703L198.224 81.9043C198.704 83.1415 198.258 84.2637 197.06 84.7286C195.862 85.1937 194.776 84.6661 194.296 83.4287L193.053 80.2274L196.981 78.703Z" fill="black"/>
</svg>
