<svg width="743" height="621" viewBox="0 0 743 621" fill="none" xmlns="http://www.w3.org/2000/svg">
<g filter="url(#filter0_f_456_92)">
<path d="M518.072 610.597C518.072 615.104 452.973 615.222 374.105 615.222C295.236 615.222 231.301 615.104 231.301 610.597C231.301 606.089 295.236 598.897 374.105 598.897C452.973 598.897 518.072 606.089 518.072 610.597Z" fill="url(#paint0_linear_456_92)"/>
</g>
<path d="M707.92 440.826H725.46V423.286V36.7016C725.46 26.6276 717.293 18.4599 707.218 18.4599H35.7819C25.7076 18.4599 17.5401 26.6266 17.5401 36.7016V423.286V440.826H35.0803H707.92Z" fill="#C4C4C4" stroke="black" stroke-width="35.0803"/>
<path d="M0 458.366H743V479.415C743 494.914 730.435 507.479 714.936 507.479H28.0642C12.5648 507.479 0 494.914 0 479.415V458.366Z" fill="url(#paint1_linear_456_92)"/>
<path d="M294.348 565.432L300.334 507.479H442.903L447.801 565.432C449.433 580.668 457.127 583.661 481.07 599.169C483.518 604.339 474.374 607.513 470.111 607.332H274.214C259.849 607.332 260.686 602.162 262.243 599.169C294.348 580.124 292.987 576.043 294.348 565.432Z" fill="url(#paint2_linear_456_92)"/>
<path d="M271.899 610.325C258.622 610.325 259.837 603.07 262.104 599.442C260.58 604.883 267.999 606.244 271.899 606.244H468.069C480.151 606.244 481.985 602.263 481.329 599.838C481.252 599.62 481.165 599.397 481.069 599.17C481.175 599.374 481.264 599.598 481.329 599.838C484.209 608.002 473.81 610.325 468.069 610.325H271.899Z" fill="url(#paint3_linear_456_92)"/>
<g filter="url(#filter1_f_456_92)">
<path d="M295.511 590.191H448.42L442.434 605.972H300.953L295.511 590.191Z" fill="url(#paint4_radial_456_92)"/>
</g>
<defs>
<filter id="filter0_f_456_92" x="225.859" y="593.456" width="297.655" height="27.2079" filterUnits="userSpaceOnUse" color-interpolation-filters="sRGB">
<feFlood flood-opacity="0" result="BackgroundImageFix"/>
<feBlend mode="normal" in="SourceGraphic" in2="BackgroundImageFix" result="shape"/>
<feGaussianBlur stdDeviation="2.72079" result="effect1_foregroundBlur_456_92"/>
</filter>
<filter id="filter1_f_456_92" x="284.628" y="579.308" width="174.675" height="37.547" filterUnits="userSpaceOnUse" color-interpolation-filters="sRGB">
<feFlood flood-opacity="0" result="BackgroundImageFix"/>
<feBlend mode="normal" in="SourceGraphic" in2="BackgroundImageFix" result="shape"/>
<feGaussianBlur stdDeviation="5.44158" result="effect1_foregroundBlur_456_92"/>
</filter>
<linearGradient id="paint0_linear_456_92" x1="516.909" y1="607.06" x2="231.301" y2="607.06" gradientUnits="userSpaceOnUse">
<stop stop-color="#878787"/>
<stop offset="0.199369" stop-color="#242424"/>
<stop offset="0.490939" stop-color="#191919"/>
<stop offset="0.810763" stop-color="#171717"/>
<stop offset="1" stop-color="#818181"/>
</linearGradient>
<linearGradient id="paint1_linear_456_92" x1="2.42191e-06" y1="482.923" x2="722.303" y2="482.923" gradientUnits="userSpaceOnUse">
<stop offset="0.377903" stop-color="#A6A7AC"/>
<stop offset="1" stop-color="#EFEFEF"/>
</linearGradient>
<linearGradient id="paint2_linear_456_92" x1="371.205" y1="507.479" x2="371.205" y2="607.348" gradientUnits="userSpaceOnUse">
<stop stop-color="#86878B"/>
<stop offset="0.397942" stop-color="#FBFBFB"/>
<stop offset="0.439241" stop-color="#FBFBFB"/>
<stop offset="0.529346" stop-color="#D8D8D9"/>
<stop offset="0.623205" stop-color="#7D7E82"/>
<stop offset="0.720819" stop-color="#95969A"/>
<stop offset="0.777135" stop-color="#DFE0E2"/>
<stop offset="1" stop-color="#DEDFE1"/>
</linearGradient>
<linearGradient id="paint3_linear_456_92" x1="263.95" y1="607.604" x2="475.899" y2="608.965" gradientUnits="userSpaceOnUse">
<stop stop-color="#757679"/>
<stop offset="0.0908511" stop-color="#C4C5C9"/>
<stop offset="0.376694" stop-color="#EDEDEE"/>
<stop offset="0.650049" stop-color="#E9E9EB"/>
<stop offset="0.881482" stop-color="#BFC0C3"/>
<stop offset="1" stop-color="#808184"/>
</linearGradient>
<radialGradient id="paint4_radial_456_92" cx="0" cy="0" r="1" gradientUnits="userSpaceOnUse" gradientTransform="translate(371.966 598.082) rotate(90) scale(7.8903 76.4543)">
<stop stop-color="#9A9BA0"/>
<stop offset="1" stop-color="#B6B7BB"/>
</radialGradient>
</defs>
</svg>
