<svg width="100" height="100" viewBox="0 0 100 100" fill="none" xmlns="http://www.w3.org/2000/svg">
<path d="M48.6576 2.98838C49.1774 1.83069 50.821 1.8307 51.3408 2.98838L58.7594 19.5123C59.1155 20.3054 60.0781 20.6182 60.8324 20.1858L76.5467 11.1783C77.6477 10.5472 78.9774 11.5133 78.7174 12.7554L75.0067 30.4841C74.8286 31.335 75.4236 32.1539 76.2879 32.2474L94.2955 34.1968C95.5572 34.3334 96.0651 35.8966 95.1247 36.7487L81.702 48.9104C81.0577 49.4941 81.0577 50.5063 81.702 51.09L95.1247 63.2517C96.0651 64.1038 95.5572 65.667 94.2955 65.8036L76.2879 67.753C75.4236 67.8465 74.8286 68.6654 75.0067 69.5163L78.7174 87.245C78.9774 88.4871 77.6477 89.4532 76.5467 88.8221L60.8324 79.8146C60.0781 79.3822 59.1155 79.695 58.7594 80.4881L51.3408 97.012C50.821 98.1697 49.1774 98.1697 48.6576 97.012L41.239 80.4881C40.8829 79.695 39.9203 79.3822 39.166 79.8146L23.4517 88.8221C22.3507 89.4532 21.021 88.4871 21.281 87.245L24.9917 69.5163C25.1698 68.6654 24.5748 67.8465 23.7105 67.753L5.70286 65.8036C4.44121 65.667 3.9333 64.1038 4.87372 63.2517L18.2964 51.09C18.9407 50.5063 18.9407 49.4941 18.2964 48.9104L4.87371 36.7487C3.9333 35.8966 4.44122 34.3334 5.70286 34.1968L23.7105 32.2474C24.5748 32.1539 25.1698 31.335 24.9917 30.4841L21.281 12.7554C21.021 11.5133 22.3507 10.5472 23.4517 11.1783L39.166 20.1858C39.9203 20.6181 40.8829 20.3054 41.239 19.5123L48.6576 2.98838Z" fill="#FFBF2D"/>
<path fill-rule="evenodd" clip-rule="evenodd" d="M64.7114 49.1987C65.3235 49.1167 65.9179 48.9644 66.4803 48.7536C67.3208 48.4402 68.0969 47.995 68.7852 47.4444C68.6329 49.6819 68.1144 51.8169 67.2914 53.7938L67.2036 54.0046C64.1724 61.0539 57.2198 66.0239 49.0957 66.1762C40.9715 66.0239 34.0189 61.0539 30.9877 54.0046L30.9 53.7938C30.0741 51.8169 29.5586 49.6819 29.4062 47.4444C30.0946 47.995 30.8706 48.4402 31.7111 48.7536C32.2734 48.9615 32.8679 49.1138 33.48 49.1987H33.4829C33.152 48.08 32.9734 46.8939 32.9734 45.6667C32.5194 38.0639 40.4328 33.8232 40.4328 33.8232C40.6553 37.3142 41.7213 39.95 42.5296 41.4875C44.2985 40.1052 46.5273 39.2793 48.9464 39.2793C51.462 39.2793 53.7727 40.1726 55.5739 41.6574C56.391 40.1491 57.5273 37.4489 57.7586 33.8262C57.7586 33.8262 65.672 38.0669 65.218 45.6697C65.218 46.8968 65.0393 48.08 64.7084 49.1987H64.7114ZM50.0425 59.9146C49.4362 59.6745 48.7597 59.6628 48.1476 59.8883C47.8255 60.0054 47.767 60.433 48.0452 60.6351L49.0994 61.3936L50.1508 60.6702C50.429 60.4769 50.3822 60.0494 50.0659 59.9234L50.0425 59.9146ZM39.3247 51.0085C39.3247 51.0085 43.4746 51.111 46.0957 54.4263C46.251 54.6196 46.3769 54.8363 46.453 55.0706C46.6171 55.5714 46.6581 56.3768 45.5832 56.8717C45.3431 56.983 45.103 57.0621 44.8629 57.1207C43.1643 57.5365 41.3983 56.8278 40.3791 55.4074C39.6996 54.4585 39.1402 53.041 39.3247 51.0085ZM52.1168 54.4263C54.7379 51.111 58.8878 51.0085 58.8878 51.0085C59.0753 53.041 58.5131 54.4585 57.8335 55.4074C56.8144 56.8278 55.0485 57.5365 53.3498 57.1207C53.1096 57.0621 52.8694 56.983 52.6293 56.8717C51.5545 56.3768 51.5955 55.5714 51.7595 55.0706C51.8356 54.8363 51.9615 54.6196 52.1168 54.4263Z" fill="#FFFDF1"/>
</svg>
