<svg width="137" height="137" viewBox="0 0 137 137" fill="none" xmlns="http://www.w3.org/2000/svg">
<path d="M63.3554 4.59641C66.0175 1.12802 71.2446 1.12802 73.9068 4.5964L90.4732 26.1807L117.678 25.6752C122.049 25.594 125.308 29.6809 124.256 33.9246L117.71 60.3344L135.067 81.2882C137.856 84.6553 136.693 89.7516 132.719 91.5752L107.989 102.924L102.429 129.558C101.535 133.838 96.8251 136.106 92.9219 134.136L68.631 121.877L44.3402 134.136C40.4369 136.106 35.7273 133.838 34.8338 129.558L29.2731 102.924L4.54354 91.5752C0.56975 89.7516 -0.593432 84.6553 2.19563 81.2882L19.5524 60.3344L13.0061 33.9246C11.9542 29.6809 15.2133 25.594 19.5848 25.6752L46.7891 26.1807L63.3554 4.59641Z" fill="#FFBF2D"/>
<path fill-rule="evenodd" clip-rule="evenodd" d="M89.5036 28.1942L72.324 5.81117C70.4606 3.38329 66.8015 3.38329 64.9382 5.81117L47.7587 28.1942L19.5477 27.67C16.4877 27.6132 14.2063 30.474 14.9426 33.4447L21.7313 60.8317L3.73212 82.5611C1.77977 84.918 2.594 88.4853 5.37565 89.7622L31.0203 101.53L36.7868 129.15C37.4123 132.146 40.709 133.734 43.4414 132.355L68.631 119.642L93.8211 132.355C96.5531 133.734 99.8497 132.146 100.476 129.15L106.242 101.53L131.886 89.7622C134.668 88.4853 135.482 84.918 133.53 82.5611L115.531 60.8317L122.32 33.4447C123.056 30.474 120.775 27.6132 117.715 27.67L89.5036 28.1942ZM46.7891 26.1807L19.5848 25.6752C15.2133 25.594 11.9542 29.6809 13.0061 33.9246L19.5524 60.3344L2.19563 81.2882C-0.593432 84.6553 0.56975 89.7516 4.54354 91.5752L29.2731 102.924L34.8338 129.558C35.7273 133.838 40.4369 136.106 44.3402 134.136L68.631 121.877L92.9219 134.136C96.8251 136.106 101.535 133.838 102.429 129.558L107.989 102.924L132.719 91.5752C136.693 89.7516 137.856 84.6553 135.067 81.2882L117.71 60.3344L124.256 33.9246C125.308 29.6809 122.049 25.594 117.678 25.6752L90.4732 26.1807L73.9068 4.5964C71.2446 1.12802 66.0175 1.12802 63.3554 4.59641L46.7891 26.1807Z" fill="#0A0A0A"/>
<path d="M67.7087 105.837C85.5424 105.837 99.9995 91.3803 99.9995 73.5466C99.9995 55.7129 85.5424 41.2559 67.7087 41.2559C49.875 41.2559 35.418 55.7129 35.418 73.5466C35.418 91.3803 49.875 105.837 67.7087 105.837Z" fill="#FF450B" stroke="#0A0A0A" stroke-width="3"/>
<path d="M76.0318 73.5458C77.5639 73.5458 78.8059 70.2338 78.8059 66.1484C78.8059 62.0629 77.5639 58.751 76.0318 58.751C74.4998 58.751 73.2578 62.0629 73.2578 66.1484C73.2578 70.2338 74.4998 73.5458 76.0318 73.5458Z" fill="#0A0A0A"/>
<path d="M59.3873 73.5458C60.9194 73.5458 62.1613 70.2338 62.1613 66.1484C62.1613 62.0629 60.9194 58.751 59.3873 58.751C57.8553 58.751 56.6133 62.0629 56.6133 66.1484C56.6133 70.2338 57.8553 73.5458 59.3873 73.5458Z" fill="#0A0A0A"/>
<path d="M86.2016 82.5618C82.9142 89.2709 76.0263 93.889 68.0617 93.889C59.4712 93.889 52.7907 89.4245 49.8721 81.8516" stroke="#0A0A0A" stroke-width="3"/>
<path d="M89.4409 83.0468C88.8131 84.1022 87.1651 84.2798 85.7605 83.4431C84.3552 82.6072 83.7254 81.0736 84.3539 80.0188" stroke="#0A0A0A" stroke-width="3" stroke-linecap="round"/>
<path d="M45.9766 82.1226C46.6046 83.1774 48.2527 83.355 49.6575 82.519C51.0624 81.6824 51.6921 80.1494 51.0639 79.094" stroke="#0A0A0A" stroke-width="3" stroke-linecap="round"/>
</svg>
