<svg width="54" height="45" viewBox="0 0 54 45" fill="none" xmlns="http://www.w3.org/2000/svg">
<path fill-rule="evenodd" clip-rule="evenodd" d="M47.6411 21.3757C48.4601 21.266 49.2557 21.0622 50.0081 20.78C51.1328 20.3607 52.1713 19.765 53.0922 19.0283C52.8884 22.0223 52.1948 24.8791 51.0936 27.5244L50.976 27.8065C46.92 37.2392 37.6167 43.8895 26.7458 44.0932C15.8749 43.8895 6.5716 37.2392 2.51559 27.8065L2.39803 27.5244C1.29291 24.8791 0.603194 22.0223 0.399414 19.0283C1.32034 19.765 2.35884 20.3607 3.48355 20.78C4.23597 21.0583 5.03149 21.262 5.85053 21.3757H5.85445C5.41162 19.8787 5.17257 18.2916 5.17257 16.6496C4.56515 6.47625 15.1539 0.801758 15.1539 0.801758C15.4517 5.47302 16.8782 8.99998 17.9598 11.0574C20.3268 9.20768 23.309 8.10257 26.546 8.10257C29.9122 8.10257 33.0042 9.29781 35.4143 11.2847C36.5077 9.26646 38.0282 5.65329 38.3378 0.805676C38.3378 0.805676 48.9265 6.48016 48.3191 16.6535C48.3191 18.2955 48.08 19.8787 47.6372 21.3757H47.6411ZM28.0118 35.7143C27.2006 35.393 26.2954 35.3773 25.4763 35.679C25.0453 35.8358 24.9669 36.4079 25.3392 36.6783L26.75 37.6933L28.1568 36.7254C28.5291 36.4667 28.4664 35.8946 28.0432 35.7261L28.0118 35.7143ZM13.6722 23.7978C13.6722 23.7978 19.2252 23.9349 22.7326 28.3711C22.9403 28.6297 23.1088 28.9197 23.2107 29.2332C23.4302 29.9033 23.485 30.981 22.0468 31.6433C21.7255 31.7922 21.4041 31.898 21.0828 31.9764C18.8098 32.5329 16.4468 31.5845 15.083 29.6839C14.1738 28.4142 13.4253 26.5175 13.6722 23.7978ZM30.7834 28.3711C34.2908 23.935 39.8438 23.7978 39.8438 23.7978C40.0946 26.5175 39.3422 28.4142 38.433 29.6839C37.0692 31.5845 34.7062 32.5329 32.4332 31.9764C32.1119 31.8981 31.7906 31.7922 31.4692 31.6433C30.031 30.981 30.0859 29.9034 30.3053 29.2332C30.4072 28.9197 30.5757 28.6297 30.7834 28.3711Z" fill="#000201"/>
</svg>
