<svg width="191" height="191" viewBox="0 0 191 191" fill="none" xmlns="http://www.w3.org/2000/svg">
<g clip-path="url(#clip0_188_330)">
<path d="M70.8713 165.709C109.518 178.863 151.141 159.287 163.837 121.984C176.534 84.6816 155.497 43.7781 116.85 30.6237C78.2036 17.4694 36.5812 37.0455 23.8844 74.3482C11.1876 111.651 32.2243 152.554 70.8713 165.709Z" fill="#201B19"/>
<path d="M72.9709 159.535C111.618 172.689 153.24 153.113 165.937 115.81C178.634 78.5078 157.597 37.6043 118.95 24.4499C80.3032 11.2955 38.6808 30.8716 25.984 68.1743C13.2872 105.477 34.3239 146.381 72.9709 159.535Z" fill="#C18751"/>
<path d="M72.8878 159.781C34.2536 146.631 13.1224 105.544 25.815 68.2539C38.5077 30.9635 80.3169 11.2995 118.951 24.4495C157.585 37.5995 178.716 78.6867 166.024 115.977C153.331 153.267 111.65 172.975 72.8878 159.781ZM118.153 26.7956C80.7976 14.081 40.348 33.1055 28.0757 69.1611C15.8034 105.217 36.2474 144.968 73.6023 157.682C110.957 170.397 151.407 151.372 163.679 115.317C175.951 79.2612 155.507 39.5102 118.153 26.7956Z" fill="#201B19"/>
<path d="M104.247 68.9087C104.247 68.9087 127.013 75.4174 130.555 96.464C134.27 117.845 120.664 112.525 120.664 112.525C120.664 112.525 78.6705 100.436 62.6302 93.4605C46.5898 86.4851 70.1953 71.2344 70.1953 71.2344C70.1953 71.2344 82.2073 62.7847 104.247 68.9087Z" fill="#892933"/>
<path d="M103.241 82.3451C102.643 82.0039 101.92 82.0331 101.454 82.5634C100.988 83.0937 100.78 84.1251 101.001 85.9916C101.922 92.0921 98.2176 92.0712 96.8104 91.5923C95.4032 91.1133 92.1556 88.4923 96.483 85.005C98.2648 83.5447 98.6431 82.4334 98.3835 81.5184C98.1679 80.8939 97.6543 80.3057 96.9306 80.3349C89.5182 79.4654 80.3807 83.2444 78.4548 90.5803C76.5709 97.7927 84.422 101.567 91.5458 104.543C101.268 107.852 108.816 110.421 112.01 101.037C114.406 93.9989 109.431 85.9676 103.241 82.3451Z" fill="#480122"/>
<path d="M86.9872 84.804C86.9872 84.804 77.8423 86.9272 72.4808 97.2272L86.1709 102.3L86.9872 84.804Z" fill="#DB8989"/>
<path d="M102.022 75.867C101.685 76.8548 99.741 80.051 93.0869 77.3728C85.7511 74.6003 87.1016 71.8909 87.1016 71.8909L88.7827 66.9518L104.459 68.7053L102.106 75.6201C102.106 75.6201 102.106 75.6201 102.022 75.867Z" fill="#C18751"/>
<path d="M88.908 66.5812L87.395 71.0264C87.353 71.1499 87.2689 71.3969 87.2269 71.5203C86.7627 72.4646 85.9568 73.1548 85.1509 73.845L79.0819 78.2551L76.8503 74.3265L76.2929 73.4478C75.5198 71.9447 75.2566 70.2017 75.803 68.5964L88.908 66.5812Z" fill="#C18751"/>
<path d="M108.181 82.5116C101.317 80.4508 101.726 76.7321 102.02 75.8678C102.062 75.7443 102.104 75.6208 102.104 75.6208L104.458 68.7061L117.907 77.0039L116.226 81.943C116.268 81.8195 115.685 84.7901 108.181 82.5116Z" fill="#C18751"/>
<path d="M127.186 85.811C126.639 87.4162 125.495 88.6802 123.838 89.3561L122.69 89.7922L118.653 91.5871L116.663 84.4338C116.359 83.2283 116.184 82.0663 116.562 80.955L118.075 76.5098L127.186 85.811Z" fill="#C18751"/>
<path d="M122.818 89.835L118.781 91.63L116.663 84.4331C116.36 83.2276 116.184 82.0656 116.562 80.9543L116.226 81.9421C116.226 81.9421 115.643 84.9128 108.139 82.6342C101.275 80.5734 101.685 76.8547 101.979 75.9904C101.642 76.9782 99.6981 80.1743 93.044 77.4961C85.7083 74.7237 87.0587 72.0143 87.0587 72.0143L87.2268 71.5204C86.7627 72.4647 85.9568 73.1548 85.1509 73.845L79.0818 78.2551L76.8503 74.3265C79.7816 72.8442 83.6906 71.0057 85.264 70.5767C86.4976 70.3077 87.2213 70.2785 87.6051 70.4091C87.9889 70.5397 88.0748 70.7067 88.0748 70.7067C88.0748 70.7067 94.7016 76.8203 102.227 74.4216C102.227 74.4216 102.227 74.4216 102.313 74.5886C103.126 75.5543 107.661 80.2667 116.729 80.0464C116.899 79.9665 121.173 83.7638 122.818 89.835Z" fill="#D6D2CE"/>
<path d="M125.72 110.25L124.669 113.337L115.974 111.204L117.107 107.456L117.233 107.086C117.485 106.345 118.121 105.735 118.972 105.749C119.696 105.72 120.676 105.778 122.211 106.3C124.514 107.084 125.371 108.34 125.714 109.008C125.844 109.466 125.846 109.88 125.72 110.25Z" fill="#C18751"/>
<path d="M71.0628 94.2644L70.1382 96.981L61.4774 93.0686C61.4774 93.0686 61.8959 91.4198 63.0837 90.4463C64.0176 89.7997 65.2511 89.5306 67.0421 90.1402C68.4493 90.6192 69.4307 91.091 69.9863 91.5557C70.5419 92.0204 70.9275 92.565 70.9732 93.2695C71.187 93.48 71.1889 93.894 71.0628 94.2644Z" fill="#C18751"/>
<path d="M80.4527 99.3899L80.1165 100.378L70.3062 96.4874L69.7945 96.3133L70.509 94.2141C70.6351 93.8437 70.8471 93.6403 71.1011 93.3134C71.3551 92.9865 71.695 92.8266 72.1628 92.7103C72.9286 92.5576 74.3339 92.6226 76.1249 93.2322C78.5556 94.0595 80.0925 94.996 80.6938 96.1651C80.9515 96.6662 80.9113 97.2037 80.8711 97.7411C80.831 98.2786 80.6208 98.896 80.4527 99.3899Z" fill="#C18751"/>
<path d="M80.8287 97.8646C80.7886 98.402 80.5784 99.0194 80.4523 99.3899L80.1161 100.378L70.3059 96.4874L70.1377 96.9813L61.435 93.1924C61.435 93.1924 61.8114 91.6672 62.9572 90.8171C64.4942 91.7536 66.7987 92.9514 70.4246 94.4611C70.5525 94.5046 70.8084 94.5917 70.9363 94.6352C73.6228 95.5496 76.821 96.6382 80.8287 97.8646Z" fill="#D6D2CE"/>
<path d="M125.342 111.361L124.585 113.584L115.974 111.204L116.728 108.568C120.732 108.966 123.633 110.091 125.342 111.361Z" fill="#D6D2CE"/>
<path d="M93.4319 78.4548C93.176 78.3677 92.9201 78.2806 92.6643 78.1935C89.1243 76.8508 86.9459 75.2826 86.2568 73.5325C85.8694 72.5739 86.1216 71.833 86.2476 71.4626L87.9288 66.5235L89.7198 67.1331L87.9966 72.1957C87.8285 72.6896 88.5175 74.4397 93.4647 76.2614C96.1091 77.2993 98.1962 77.4585 99.7258 76.7391C100.915 76.1796 101.294 75.0683 101.294 75.0683L103.563 68.4004L105.482 69.0536L103.129 75.9684C103.002 76.3388 102.456 77.944 100.587 78.8233C98.7591 79.5791 96.3742 79.4563 93.4319 78.4548Z" fill="#0A0A0A"/>
<path d="M78.9184 79.5779L75.6561 73.645C74.6691 71.9313 74.532 69.8179 75.1624 67.9657L77.0813 68.6188C76.619 69.9771 76.8384 71.4296 77.5256 72.7658L79.7571 76.6943L84.8923 72.9309C85.8682 72.1608 86.5462 71.4271 86.8404 70.5627L88.3114 66.241L90.2303 66.8941L88.7172 71.3393C88.339 72.4506 87.407 73.5112 86.0912 74.4412L78.9184 79.5779Z" fill="#0A0A0A"/>
<path d="M107.12 83.1138C104.178 82.1123 102.341 80.7983 101.396 78.961C100.579 77.1673 101.126 75.5621 101.252 75.1917L103.563 68.4004L105.482 69.0535L103.087 76.0918C103.087 76.0918 102.709 77.2031 103.31 78.3722C103.997 79.7084 105.876 80.899 108.562 81.8134C112.698 83.0833 114.271 82.6544 114.993 82.2112C115.333 82.0513 115.417 81.8044 115.417 81.8044L115.459 81.6809L117.182 76.6183L119.101 77.2714L117.42 82.2105C117.336 82.4575 117.084 83.1984 116.15 83.845C114.536 84.8114 111.854 84.7249 108.23 83.6292C107.632 83.288 107.376 83.2009 107.12 83.1138Z" fill="#0A0A0A"/>
<path d="M118.064 92.902L115.77 84.5431C115.295 83.0036 115.331 81.6381 115.582 80.4833L117.095 76.0381L119.014 76.6912L117.501 81.1364C117.248 81.8773 117.338 82.8723 117.641 84.0778L119.414 90.1926L123.579 88.4412C124.897 87.9252 125.617 87.068 126.037 85.8332L127.956 86.4864C127.326 88.3385 126.182 89.6026 124.396 90.2349L118.064 92.902Z" fill="#0A0A0A"/>
<path d="M115.077 110.899L116.336 106.781C116.714 105.669 117.69 104.899 118.882 104.754C119.903 104.688 121.139 104.833 122.546 105.312C124.593 106.009 125.918 107.149 126.563 108.608C126.778 109.233 126.696 109.894 126.528 110.388L125.477 113.475L123.559 112.821L124.609 109.735C124.651 109.611 124.735 109.364 124.691 109.074C124.262 108.238 123.365 107.52 121.829 106.997C120.678 106.605 119.741 106.424 119.017 106.453C118.591 106.446 118.337 106.773 118.169 107.267L116.91 111.385L115.077 110.899Z" fill="#0A0A0A"/>
<path d="M71.0348 97.2861L69.1158 96.633L69.9984 94.0399C70.2086 93.4226 69.9929 92.798 69.4373 92.3333C68.9677 92.0357 68.2841 91.5275 66.749 91.005C65.5977 90.6131 64.746 90.5988 63.8963 90.9984C62.6645 91.6815 62.2881 93.2067 62.2461 93.3302L60.2851 92.8006C60.3272 92.6771 60.8278 90.3674 62.7814 89.2411C64.0131 88.5581 65.4605 88.4996 67.2515 89.1092C68.6587 89.5882 69.768 90.1036 70.5795 90.6553C71.8186 91.6282 72.3358 93.0443 71.8315 94.5261L70.9068 97.2426L71.0348 97.2861Z" fill="#0A0A0A"/>
<path d="M81.1407 100.726L79.2217 100.073L79.558 99.0855C80.1043 97.4803 80.0166 96.8993 79.8448 96.5652C79.5432 95.7737 78.0922 95.0042 76.1732 94.351C74.3822 93.7414 73.3607 93.8071 72.8928 93.9234C72.467 93.9162 72.171 94.3666 72.0449 94.7371L71.3304 96.8362L69.4115 96.183L70.126 94.0839C70.4622 93.0961 71.3101 92.2824 72.3737 92.0933C73.4374 91.9042 74.9706 92.0127 76.7616 92.6224C79.3202 93.4932 81.071 94.6403 81.6303 95.9329C82.0177 96.8915 82.0232 98.1334 81.4348 99.8621L81.1407 100.726Z" fill="#0A0A0A"/>
<path d="M104.539 67.6308C115.199 71.1214 124.685 78.8974 129.202 89.1149C131.738 94.663 133.864 103.516 131.761 109.276C129.994 114.048 124.804 115.037 120.284 113.636C104.129 109.515 86.9883 104.095 70.9096 98.0706C68.9907 97.4175 65.3648 95.9078 63.488 95.1312C60.8435 94.0933 57.9852 92.8448 56.6108 90.1725C54.5913 86.0405 57.3817 81.6167 59.9657 78.6383C63.0158 75.1296 66.6213 72.0856 70.6125 69.5861C80.9762 63.8821 93.4545 64.5471 104.539 67.6308ZM103.826 70.1439L99.9899 69.2516C98.7965 68.9832 97.4332 68.7947 96.2398 68.5263C95.5581 68.4321 94.0248 68.3235 93.3432 68.2293C89.297 67.9544 84.9969 68.0063 80.9983 68.8499C77.3396 69.5335 73.6408 70.7546 70.5414 72.7309C65.8302 76.0876 52.3343 85.9612 60.8745 91.4859C62.7532 92.6765 65.9514 93.7651 67.9562 94.5853C80.283 99.4699 92.8199 103.737 105.567 107.387C110.64 108.838 115.841 110.333 120.871 111.494C124.495 112.589 128.537 112.036 129.798 108.332C131.563 103.146 129.397 94.8306 127.118 89.7836C122.692 80.5611 113.846 73.4168 103.826 70.1439Z" fill="#0A0A0A"/>
<path opacity="0.15" d="M96.0641 95.8848C96.0641 95.8848 105.688 96.1292 107.591 102.701C109.493 109.274 106.138 120.808 100.745 124.07C95.4804 127.376 92.5289 124.305 92.5289 124.305C92.5289 124.305 75.0157 121.237 77.5536 107.91C77.5536 107.91 82.7869 87.921 85.8826 85.1168C86.0526 85.0368 83.3554 91.2835 83.4833 91.327C86.6284 90.0552 93.0724 93.3508 96.0641 95.8848Z" fill="#0A0A0A"/>
<path d="M102.809 90.327C102.809 90.327 114.817 90.6942 117.195 98.8061C119.573 106.918 115.379 121.336 108.713 125.405C102.046 129.474 92.9651 126.796 92.9651 126.796C92.9651 126.796 76.5082 121.883 79.841 105.381C79.841 105.381 83.0477 89.25 85.8839 85.5307C86.0959 85.3273 86.1379 85.2038 86.1799 85.0804C89.8769 83.4453 99.0475 87.1178 102.809 90.327Z" fill="#F7A19B"/>
<path d="M100.748 105.608L101.462 103.509C102.763 99.2674 103.722 94.7715 102.936 90.3705C102.809 90.3269 102.681 90.2834 102.681 90.2834C102.553 90.2399 102.595 90.1164 102.339 90.0293C102.873 95.1712 100.894 100.147 98.6569 104.621C98.3189 105.195 98.6625 105.863 99.3021 106.081C100.028 106.466 100.58 106.102 100.748 105.608Z" fill="#DB8989"/>
</g>
<defs>
<clipPath id="clip0_188_330">
<rect width="150" height="150" fill="white" transform="translate(48.333) rotate(18.7972)"/>
</clipPath>
</defs>
</svg>
