<svg width="184" height="184" viewBox="0 0 184 184" fill="none" xmlns="http://www.w3.org/2000/svg">
<g clip-path="url(#clip0_160_1561)">
<path d="M72.2852 163.852C111.718 174.418 151.953 152.129 162.152 114.067C172.35 76.0055 148.651 36.5849 109.218 26.0188C69.7843 15.4527 29.5498 37.7423 19.3512 75.8039C9.15262 113.866 32.852 153.286 72.2852 163.852Z" fill="#201B19"/>
<path d="M73.9737 157.553C113.407 168.119 153.641 145.829 163.84 107.768C174.039 69.706 150.339 30.2854 110.906 19.7193C71.4728 9.15317 31.2383 31.4427 21.0397 69.5044C10.8411 107.566 34.5405 146.987 73.9737 157.553Z" fill="#57C04A"/>
<path d="M73.9059 157.805C34.4856 147.242 10.6798 107.645 20.8751 69.5954C31.0703 31.5463 71.4855 9.15672 110.906 19.7193C150.326 30.2819 174.132 69.8795 163.937 107.929C153.741 145.978 113.457 168.402 73.9059 157.805ZM110.264 22.1131C72.1494 11.9003 33.0485 33.5618 23.1909 70.351C13.3332 107.14 36.3648 145.45 74.4798 155.663C112.595 165.876 151.696 144.214 161.553 107.425C171.411 70.6359 148.379 32.326 110.264 22.1131Z" fill="#201B19"/>
<path d="M72.2843 163.852C111.717 174.418 151.952 152.129 162.151 114.067C172.349 76.0055 148.65 36.5849 109.217 26.0188C69.7834 15.4527 29.5488 37.7423 19.3502 75.8039C9.15164 113.866 32.851 153.286 72.2843 163.852Z" fill="#201B19"/>
<path d="M73.9727 157.553C113.406 168.119 153.641 145.829 163.839 107.768C174.038 69.706 150.338 30.2854 110.905 19.7193C71.4718 9.15317 31.2373 31.4427 21.0387 69.5044C10.8401 107.566 34.5395 146.987 73.9727 157.553Z" fill="#60B0CA"/>
<path d="M73.9049 157.805C34.4847 147.242 10.6789 107.645 20.8741 69.5954C31.0693 31.5463 71.4845 9.15672 110.905 19.7193C150.325 30.2819 174.131 69.8795 163.936 107.929C153.74 145.978 113.456 168.402 73.9049 157.805ZM110.263 22.1131C72.1484 11.9003 33.0475 33.5618 23.1899 70.351C13.3322 107.14 36.3639 145.45 74.4788 155.663C112.594 165.876 151.695 144.214 161.552 107.425C171.41 70.6359 148.378 32.326 110.263 22.1131Z" fill="#201B19"/>
<path d="M72.2843 163.852C111.717 174.418 151.952 152.129 162.151 114.067C172.349 76.0055 148.65 36.5849 109.217 26.0188C69.7834 15.4527 29.5488 37.7423 19.3502 75.8039C9.15164 113.866 32.851 153.286 72.2843 163.852Z" fill="#201B19"/>
<path d="M73.9727 157.553C113.406 168.119 153.641 145.829 163.839 107.768C174.038 69.706 150.338 30.2854 110.905 19.7193C71.4718 9.15317 31.2373 31.4427 21.0387 69.5044C10.8401 107.566 34.5395 146.987 73.9727 157.553Z" fill="#E9DC6E"/>
<path d="M73.9049 157.805C34.4847 147.242 10.6789 107.645 20.8741 69.5954C31.0693 31.5463 71.4845 9.15672 110.905 19.7193C150.325 30.2819 174.131 69.8795 163.936 107.929C153.74 145.978 113.456 168.402 73.9049 157.805ZM110.263 22.1131C72.1484 11.9003 33.0475 33.5618 23.1899 70.351C13.3322 107.14 36.3639 145.45 74.4788 155.663C112.594 165.876 151.695 144.214 161.552 107.425C171.41 70.6359 148.378 32.326 110.263 22.1131Z" fill="#201B19"/>
<path d="M99.1778 65.0548C99.1778 65.0548 122.324 70.0416 127.253 90.8074C132.375 111.895 118.446 107.488 118.446 107.488C118.446 107.488 75.745 98.2065 59.2779 92.3088C42.8108 86.411 65.3545 69.6305 65.3545 69.6305C65.3545 69.6305 76.7805 60.4038 99.1778 65.0548Z" fill="#892933"/>
<path d="M99.0645 78.5282C98.4456 78.2273 97.7254 78.3044 97.2955 78.8644C96.8657 79.4244 96.7261 80.4673 97.0705 82.3151C98.3937 88.3411 94.6961 88.5657 93.2603 88.181C91.8244 87.7962 88.4104 85.396 92.4974 81.6299C94.1785 80.0548 94.4824 78.9209 94.1628 78.025C93.9063 77.4161 93.3549 76.8633 92.6347 76.9404C85.1809 76.5636 76.3138 80.9395 74.8779 88.3868C73.4758 95.7082 81.5597 98.9545 88.8649 101.452C98.7852 104.11 106.486 106.174 109.052 96.5985C110.976 89.4171 105.481 81.7328 99.0645 78.5282Z" fill="#480122"/>
<path d="M83.0095 82.0585C83.0095 82.0585 74.0254 84.7826 69.3577 95.4151L83.3537 99.5704L83.0095 82.0585Z" fill="#DB8989"/>
<path d="M97.4171 72.1454C97.147 73.1534 95.4186 76.4712 88.6018 74.2396C81.0985 71.959 82.2666 69.1661 82.2666 69.1661L83.6169 64.1265L99.3751 64.838L97.4846 71.8934C97.4846 71.8934 97.4846 71.8934 97.4171 72.1454Z" fill="white"/>
<path d="M83.7185 63.7484L82.5031 68.2841C82.4694 68.4101 82.4019 68.6621 82.3681 68.7881C81.9675 69.761 81.2091 70.503 80.4506 71.2451L74.687 76.0474L72.2002 72.2752L71.5858 71.4354C70.7148 69.9867 70.3368 68.265 70.7756 66.6271L83.7185 63.7484Z" fill="white"/>
<path d="M104.005 78.3666C97.0196 76.7648 97.1816 73.0273 97.418 72.1453C97.4517 72.0193 97.4855 71.8933 97.4855 71.8933L99.376 64.8379L113.345 72.2268L111.995 77.2665C112.028 77.1405 111.643 80.1432 104.005 78.3666Z" fill="white"/>
<path d="M123.186 80.4004C122.747 82.0382 121.689 83.3752 120.08 84.1594L118.964 84.6705L115.055 86.7289L112.595 79.7231C112.212 78.5403 111.96 77.3925 112.264 76.2586L113.479 71.7229L123.186 80.4004Z" fill="white"/>
<path d="M119.094 84.7055L115.185 86.7639L112.595 79.7231C112.212 78.5403 111.96 77.3925 112.264 76.2586L111.994 77.2665C111.994 77.2665 111.609 80.2692 103.971 78.4926C96.985 76.8909 97.147 73.1533 97.3834 72.2714C97.1133 73.2793 95.3848 76.5972 88.568 74.3655C81.0648 72.0849 82.2328 69.2921 82.2328 69.2921L82.3678 68.7881C81.9672 69.761 81.2088 70.5031 80.4504 71.2451L74.6867 76.0474L72.1999 72.2753C75.0266 70.602 78.8053 68.5087 80.3469 67.9765C81.5599 67.6264 82.2801 67.5493 82.6717 67.6542C83.0633 67.7591 83.16 67.9201 83.16 67.9201C83.16 67.9201 90.1771 73.5813 97.5274 70.6895C97.5274 70.6895 97.5274 70.6895 97.6242 70.8505C98.4996 71.7602 103.336 76.162 112.37 75.3417C112.534 75.2506 117.051 78.7565 119.094 84.7055Z" fill="#D6D2CE"/>
<path d="M123.341 104.883L122.497 108.033L113.679 106.481L114.562 102.666L114.663 102.288C114.865 101.532 115.46 100.881 116.31 100.839C117.03 100.762 118.012 100.755 119.578 101.174C121.928 101.804 122.866 103.001 123.253 103.645C123.413 104.093 123.442 104.505 123.341 104.883Z" fill="white"/>
<path d="M67.7465 92.5526L67.0038 95.3243L58.103 91.9941C58.103 91.9941 58.4113 90.3213 59.5321 89.2712C60.421 88.5642 61.6341 88.214 63.4615 88.7037C64.8973 89.0884 65.9078 89.4942 66.493 89.9211C67.0781 90.3479 67.4989 90.8658 67.5912 91.5657C67.8185 91.7616 67.8478 92.1746 67.7465 92.5526Z" fill="white"/>
<path d="M77.4551 97.0445L77.185 98.0524L67.1387 94.8204L66.6166 94.6805L67.1905 92.5386C67.2918 92.1607 67.4898 91.9436 67.7216 91.6006C67.9534 91.2577 68.282 91.0756 68.7411 90.9286C69.495 90.7255 70.9016 90.6973 72.729 91.1869C75.2091 91.8515 76.8047 92.6841 77.4821 93.8109C77.7725 94.2938 77.7679 94.8327 77.7634 95.3716C77.7589 95.9106 77.5901 96.5405 77.4551 97.0445Z" fill="white"/>
<path d="M77.7294 95.4977C77.7249 96.0366 77.5561 96.6666 77.4548 97.0446L77.1847 98.0525L67.1384 94.8204L67.0033 95.3244L58.0687 92.1202C58.0687 92.1202 58.3433 90.5733 59.4303 89.6492C61.026 90.4819 63.4048 91.5244 67.1226 92.7907C67.2532 92.8256 67.5142 92.8956 67.6448 92.9306C70.3859 93.6651 73.6492 94.5394 77.7294 95.4977Z" fill="#D6D2CE"/>
<path d="M123.037 106.017L122.43 108.285L113.68 106.481L114.258 103.8C118.28 103.932 121.248 104.863 123.037 106.017Z" fill="#D6D2CE"/>
<path d="M89.0182 75.2964C88.7572 75.2264 88.4961 75.1565 88.235 75.0865C84.6139 73.9812 82.3364 72.5607 81.533 70.8601C81.0829 69.9292 81.2854 69.1733 81.3867 68.7953L82.7371 63.7557L84.5645 64.2454L83.1804 69.411C83.0454 69.9149 83.8488 71.6156 88.9057 73.1056C91.6131 73.9661 93.7061 73.9868 95.1847 73.1677C96.3347 72.5306 96.6385 71.3966 96.6385 71.3966L98.4615 64.5932L100.419 65.1178L98.529 72.1733C98.4277 72.5512 97.9888 74.1891 96.1817 75.1903C94.4082 76.0654 92.0204 76.1008 89.0182 75.2964Z" fill="#0A0A0A"/>
<path d="M74.6109 77.3772L70.9628 71.6734C69.8645 70.0288 69.5877 67.929 70.0941 66.0392L72.0521 66.5638C71.6807 67.9497 71.9958 69.3845 72.77 70.6722L75.2568 74.4444L80.1315 70.3491C81.0542 69.5161 81.6821 68.7391 81.9184 67.8571L83.1 63.4475L85.0579 63.9721L83.8426 68.5078C83.5388 69.6417 82.6791 70.7617 81.4278 71.7768L74.6109 77.3772Z" fill="#0A0A0A"/>
<path d="M102.985 79.0386C99.9832 78.2342 98.0635 77.0446 96.999 75.274C96.065 73.5383 96.5039 71.9005 96.6052 71.5225L98.4619 64.593L100.42 65.1177L98.4956 72.2991C98.4956 72.2991 98.1918 73.433 98.8692 74.5598C99.6434 75.8475 101.597 76.9111 104.338 77.6456C108.549 78.6388 110.09 78.1066 110.781 77.6166C111.11 77.4345 111.177 77.1825 111.177 77.1825L111.211 77.0566L112.595 71.891L114.553 72.4156L113.203 77.4552C113.135 77.7072 112.933 78.4631 112.044 79.1702C110.498 80.2413 107.815 80.3327 104.126 79.4794C103.507 79.1785 103.246 79.1086 102.985 79.0386Z" fill="#0A0A0A"/>
<path d="M114.553 88.0798L111.71 79.8912C111.134 78.3865 111.08 77.0217 111.253 75.8528L112.469 71.3171L114.427 71.8418L113.211 76.3774C113.009 77.1334 113.164 78.1202 113.547 79.303L115.721 85.287L119.76 83.2636C121.041 82.6615 121.703 81.7585 122.04 80.4986L123.998 81.0232C123.492 82.913 122.434 84.2501 120.694 84.9992L114.553 88.0798Z" fill="#0A0A0A"/>
<path d="M112.766 106.236L113.749 102.043C114.053 100.909 114.976 100.076 116.155 99.8522C117.17 99.7191 118.412 99.7819 119.848 100.167C121.937 100.726 123.334 101.776 124.075 103.19C124.331 103.798 124.293 104.463 124.158 104.967L123.314 108.117L121.356 107.592L122.2 104.443C122.234 104.317 122.301 104.065 122.238 103.778C121.754 102.973 120.811 102.315 119.245 101.895C118.07 101.581 117.123 101.462 116.403 101.539C115.977 101.56 115.745 101.903 115.61 102.407L114.627 106.6L112.766 106.236Z" fill="#0A0A0A"/>
<path d="M67.9176 95.5692L65.9596 95.0446L66.6685 92.3988C66.8373 91.7688 66.5808 91.16 65.9957 90.7331C65.5073 90.4672 64.7916 90.0054 63.2253 89.5857C62.0505 89.2709 61.1998 89.313 60.3783 89.7681C59.1945 90.5312 58.92 92.078 58.8862 92.204L56.8945 91.8054C56.9283 91.6794 57.2749 89.3416 59.1496 88.0885C60.3333 87.3254 61.7737 87.1712 63.6011 87.6608C65.037 88.0456 66.178 88.4863 67.0242 88.9831C68.325 89.8718 68.9348 91.2506 68.5297 92.7625L67.787 95.5342L67.9176 95.5692Z" fill="#0A0A0A"/>
<path d="M78.2289 98.3322L76.2709 97.8076L76.541 96.7997C76.9798 95.1618 76.8538 94.5879 76.6603 94.266C76.3069 93.4961 74.8081 92.8244 72.8501 92.2998C71.0227 91.8101 70.0077 91.9433 69.5486 92.0903C69.1233 92.1114 68.8577 92.5804 68.7564 92.9584L68.1825 95.1002L66.2246 94.5755L66.7985 92.4337C67.0685 91.4258 67.8607 90.5578 68.9095 90.2986C69.9582 90.0395 71.4953 90.0463 73.3228 90.5359C75.9334 91.2354 77.7563 92.264 78.3999 93.5168C78.85 94.4476 78.9378 95.6864 78.4652 97.4503L78.2289 98.3322Z" fill="#0A0A0A"/>
<path d="M99.3845 63.76C110.252 66.537 120.233 73.6676 125.416 83.5636C128.315 88.9315 131.022 97.624 129.305 103.511C127.858 108.389 122.745 109.72 118.142 108.622C101.749 105.58 84.2876 101.306 67.8453 96.36C65.8873 95.8354 62.1694 94.5691 60.2452 93.9185C57.5379 93.058 54.6032 92.0016 53.0548 89.4261C50.7661 85.437 53.2574 80.8381 55.6385 77.6951C58.4495 73.9921 61.8456 70.716 65.6625 67.9577C75.6256 61.5799 88.1206 61.417 99.3845 63.76ZM98.8398 66.3148L94.9532 65.6784C93.7446 65.4897 92.3718 65.3919 91.1633 65.2031C90.4769 65.1542 88.9397 65.1474 88.2533 65.0986C84.1979 65.0922 79.9106 65.4288 75.9767 66.5353C72.3713 67.4597 68.7615 68.9231 65.7997 71.1003C61.3212 74.7616 48.5088 85.5073 57.3961 90.4543C59.3496 91.5179 62.6128 92.3923 64.6675 93.0779C77.2907 97.1355 90.0827 100.563 103.044 103.361C108.202 104.473 113.49 105.62 118.586 106.445C122.274 107.298 126.271 106.479 127.284 102.699C128.702 97.4074 125.99 89.2538 123.382 84.3688C118.354 75.4596 109.055 68.9169 98.8398 66.3148Z" fill="#0A0A0A"/>
<path opacity="0.15" d="M92.799 92.5136C92.799 92.5136 102.418 92.1202 104.751 98.552C107.085 104.984 104.502 116.715 99.3365 120.327C94.3021 123.975 91.1536 121.105 91.1536 121.105C91.1536 121.105 73.4757 119.204 75.1254 105.738C75.1254 105.738 79.0235 85.4466 81.9267 82.4435C82.091 82.3525 79.8134 88.7641 79.944 88.799C82.9979 87.3217 89.646 90.1834 92.799 92.5136Z" fill="#0A0A0A"/>
<path d="M99.1615 86.5213C99.1615 86.5213 111.168 86.0925 114.078 94.0291C116.988 101.966 113.758 116.63 107.376 121.131C100.993 125.632 91.7547 123.562 91.7547 123.562C91.7547 123.562 75.0085 119.75 77.2412 103.064C77.2412 103.064 79.3725 86.7554 81.9562 82.8565C82.1542 82.6395 82.188 82.5135 82.2217 82.3875C85.8024 80.5111 95.1961 83.5683 99.1615 86.5213Z" fill="#F7A19B"/>
<path d="M98.1168 101.906L98.6908 99.7638C99.708 95.4451 100.367 90.8956 99.2917 86.5562C99.1612 86.5213 99.0307 86.4863 99.0307 86.4863C98.9002 86.4513 98.9339 86.3253 98.6729 86.2554C99.546 91.3506 97.9008 96.4463 95.9653 101.059C95.666 101.654 96.0531 102.298 96.7058 102.473C97.4552 102.809 97.9818 102.41 98.1168 101.906Z" fill="#DB8989"/>
</g>
<defs>
<clipPath id="clip0_160_1561">
<rect width="150" height="150" fill="white" transform="translate(38.8232) rotate(15)"/>
</clipPath>
</defs>
</svg>
