<svg width="184" height="184" viewBox="0 0 184 184" fill="none" xmlns="http://www.w3.org/2000/svg">
<g clip-path="url(#clip0_160_1481)">
<path d="M72.2843 163.852C111.717 174.418 151.952 152.129 162.151 114.067C172.349 76.0057 148.65 36.5851 109.217 26.019C69.7834 15.4529 29.5488 37.7424 19.3502 75.8041C9.15164 113.866 32.851 153.286 72.2843 163.852Z" fill="#201B19"/>
<path d="M73.9727 157.553C113.406 168.119 153.641 145.829 163.839 107.768C174.038 69.7061 150.338 30.2856 110.905 19.7195C71.4718 9.15335 31.2373 31.4429 21.0387 69.5045C10.8401 107.566 34.5395 146.987 73.9727 157.553Z" fill="#57C04A"/>
<path d="M73.9049 157.805C34.4847 147.242 10.6789 107.645 20.8741 69.5955C31.0693 31.5465 71.4845 9.15684 110.905 19.7195C150.325 30.2821 174.131 69.8797 163.936 107.929C153.74 145.978 113.456 168.402 73.9049 157.805ZM110.263 22.1133C72.1484 11.9004 33.0475 33.5619 23.1899 70.3511C13.3322 107.14 36.3639 145.45 74.4788 155.663C112.594 165.876 151.695 144.214 161.552 107.425C171.41 70.636 148.378 32.3261 110.263 22.1133Z" fill="#201B19"/>
<path d="M72.2833 163.852C111.717 174.418 151.951 152.129 162.15 114.067C172.348 76.0055 148.649 36.585 109.216 26.0189C69.7824 15.4528 29.5478 37.7423 19.3493 75.8039C9.15066 113.866 32.85 153.286 72.2833 163.852Z" fill="#201B19"/>
<path d="M73.9718 157.553C113.405 168.119 153.64 145.829 163.838 107.768C174.037 69.706 150.337 30.2854 110.904 19.7193C71.4709 9.15323 31.2363 31.4428 21.0377 69.5044C10.8391 107.566 34.5385 146.987 73.9718 157.553Z" fill="#60B0CA"/>
<path d="M73.9039 157.805C34.4837 147.242 10.6779 107.645 20.8731 69.5954C31.0683 31.5463 71.4836 9.15672 110.904 19.7193C150.324 30.2819 174.13 69.8795 163.935 107.929C153.739 145.978 113.455 168.402 73.9039 157.805ZM110.262 22.1131C72.1474 11.9003 33.0465 33.5618 23.1889 70.351C13.3313 107.14 36.3629 145.45 74.4778 155.663C112.593 165.876 151.694 144.214 161.551 107.425C171.409 70.6359 148.377 32.326 110.262 22.1131Z" fill="#201B19"/>
<path d="M72.2833 163.852C111.717 174.418 151.951 152.129 162.15 114.067C172.348 76.0055 148.649 36.585 109.216 26.0189C69.7824 15.4528 29.5478 37.7423 19.3493 75.8039C9.15066 113.866 32.85 153.286 72.2833 163.852Z" fill="#201B19"/>
<path d="M73.9718 157.553C113.405 168.119 153.64 145.829 163.838 107.768C174.037 69.706 150.337 30.2854 110.904 19.7193C71.4709 9.15323 31.2363 31.4428 21.0377 69.5044C10.8391 107.566 34.5385 146.987 73.9718 157.553Z" fill="#B28DFF"/>
<path d="M73.9039 157.805C34.4837 147.242 10.6779 107.645 20.8731 69.5954C31.0683 31.5463 71.4836 9.15672 110.904 19.7193C150.324 30.2819 174.13 69.8795 163.935 107.929C153.739 145.978 113.455 168.402 73.9039 157.805ZM110.262 22.1131C72.1474 11.9003 33.0465 33.5618 23.1889 70.351C13.3313 107.14 36.3629 145.45 74.4778 155.663C112.593 165.876 151.694 144.214 161.551 107.425C171.409 70.6359 148.377 32.326 110.262 22.1131Z" fill="#201B19"/>
<path d="M99.1768 65.0549C99.1768 65.0549 122.323 70.0417 127.252 90.8075C132.374 111.895 118.446 107.488 118.446 107.488C118.446 107.488 75.744 98.2066 59.2769 92.3089C42.8098 86.4111 65.3535 69.6306 65.3535 69.6306C65.3535 69.6306 76.7796 60.4039 99.1768 65.0549Z" fill="#892933"/>
<path d="M99.0635 78.5283C98.4446 78.2275 97.7244 78.3046 97.2946 78.8646C96.8647 79.4246 96.7252 80.4675 97.0695 82.3152C98.3927 88.3413 94.6951 88.5658 93.2593 88.1811C91.8234 87.7964 88.4094 85.3962 92.4964 81.63C94.1776 80.0549 94.4814 78.921 94.1618 78.0251C93.9053 77.4163 93.3539 76.8634 92.6337 76.9405C85.18 76.5637 76.3128 80.9396 74.8769 88.3869C73.4748 95.7083 81.5587 98.9546 88.8639 101.452C98.7842 104.11 106.486 106.174 109.051 96.5986C110.975 89.4172 105.48 81.7329 99.0635 78.5283Z" fill="#480122"/>
<path d="M83.0085 82.0584C83.0085 82.0584 74.0244 84.7825 69.3567 95.4149L83.3527 99.5703L83.0085 82.0584Z" fill="#DB8989"/>
<path d="M97.4161 72.1453C97.1461 73.1533 95.4176 76.4711 88.6008 74.2395C81.0975 71.9589 82.2656 69.166 82.2656 69.166L83.6159 64.1264L99.3742 64.8379L97.4837 71.8934C97.4837 71.8934 97.4837 71.8934 97.4161 72.1453Z" fill="white"/>
<path d="M83.7175 63.7485L82.5022 68.2841C82.4684 68.4101 82.4009 68.6621 82.3671 68.7881C81.9665 69.761 81.2081 70.5031 80.4497 71.2451L74.686 76.0474L72.1992 72.2753L71.5848 71.4355C70.7139 69.9868 70.3358 68.265 70.7747 66.6271L83.7175 63.7485Z" fill="white"/>
<path d="M104.004 78.3666C97.0186 76.7648 97.1807 73.0273 97.417 72.1453C97.4507 72.0193 97.4845 71.8933 97.4845 71.8933L99.375 64.8379L113.344 72.2268L111.994 77.2665C112.027 77.1405 111.643 80.1432 104.004 78.3666Z" fill="white"/>
<path d="M123.185 80.4004C122.746 82.0382 121.688 83.3752 120.079 84.1594L118.963 84.6705L115.054 86.7289L112.594 79.7231C112.211 78.5403 111.959 77.3925 112.263 76.2586L113.479 71.7229L123.185 80.4004Z" fill="white"/>
<path d="M119.093 84.7055L115.184 86.7638L112.594 79.7231C112.211 78.5403 111.959 77.3924 112.263 76.2585L111.993 77.2665C111.993 77.2665 111.608 80.2692 103.97 78.4926C96.984 76.8908 97.1461 73.1533 97.3824 72.2713C97.1123 73.2792 95.3839 76.5971 88.567 74.3654C81.0638 72.0849 82.2318 69.292 82.2318 69.292L82.3669 68.7881C81.9663 69.761 81.2078 70.503 80.4494 71.2451L74.6857 76.0474L72.1989 72.2752C75.0256 70.602 78.8043 68.5087 80.3459 67.9765C81.5589 67.6263 82.2791 67.5492 82.6707 67.6542C83.0623 67.7591 83.1591 67.92 83.1591 67.92C83.1591 67.92 90.1762 73.5813 97.5264 70.6895C97.5264 70.6895 97.5264 70.6895 97.6232 70.8504C98.4986 71.7602 103.335 76.1619 112.369 75.3416C112.533 75.2506 117.05 78.7565 119.093 84.7055Z" fill="#D6D2CE"/>
<path d="M123.34 104.883L122.496 108.033L113.678 106.481L114.561 102.666L114.662 102.288C114.864 101.532 115.459 100.881 116.309 100.839C117.029 100.762 118.011 100.755 119.577 101.174C121.927 101.804 122.865 103.001 123.252 103.645C123.412 104.093 123.441 104.505 123.34 104.883Z" fill="white"/>
<path d="M67.7455 92.5525L67.0028 95.3243L58.102 91.9941C58.102 91.9941 58.4103 90.3212 59.5311 89.2712C60.4201 88.5641 61.6331 88.214 63.4605 88.7036C64.8964 89.0884 65.9068 89.4942 66.492 89.921C67.0771 90.3479 67.498 90.8658 67.5902 91.5657C67.8175 91.7616 67.8468 92.1746 67.7455 92.5525Z" fill="white"/>
<path d="M77.4541 97.0445L77.1841 98.0524L67.1377 94.8204L66.6156 94.6805L67.1895 92.5386C67.2908 92.1607 67.4888 91.9436 67.7206 91.6006C67.9524 91.2577 68.281 91.0756 68.7401 90.9286C69.4941 90.7255 70.9006 90.6973 72.7281 91.1869C75.2081 91.8515 76.8038 92.6841 77.4812 93.8109C77.7715 94.2938 77.767 94.8327 77.7625 95.3716C77.758 95.9106 77.5892 96.5405 77.4541 97.0445Z" fill="white"/>
<path d="M77.7284 95.4976C77.7239 96.0366 77.5551 96.6665 77.4538 97.0445L77.1837 98.0524L67.1374 94.8204L67.0024 95.3243L58.0678 92.1201C58.0678 92.1201 58.3424 90.5732 59.4294 89.6492C61.025 90.4818 63.4038 91.5243 67.1217 92.7906C67.2522 92.8256 67.5133 92.8955 67.6438 92.9305C70.3849 93.665 73.6482 94.5394 77.7284 95.4976Z" fill="#D6D2CE"/>
<path d="M123.036 106.017L122.429 108.285L113.679 106.481L114.257 103.8C118.279 103.932 121.247 104.863 123.036 106.017Z" fill="#D6D2CE"/>
<path d="M89.0172 75.2963C88.7562 75.2263 88.4951 75.1564 88.2341 75.0864C84.613 73.9811 82.3354 72.5606 81.532 70.86C81.0819 69.9291 81.2845 69.1732 81.3857 68.7952L82.7361 63.7556L84.5635 64.2453L83.1794 69.4109C83.0444 69.9148 83.8478 71.6155 88.9047 73.1056C91.6121 73.966 93.7051 73.9867 95.1837 73.1676C96.3337 72.5305 96.6376 71.3966 96.6376 71.3966L98.4606 64.5931L100.419 65.1177L98.528 72.1732C98.4267 72.5511 97.9879 74.189 96.1807 75.1902C94.4073 76.0653 92.0194 76.1007 89.0172 75.2963Z" fill="#0A0A0A"/>
<path d="M74.6099 77.3773L70.9618 71.6735C69.8636 70.0289 69.5868 67.9292 70.0931 66.0393L72.0511 66.5639C71.6798 67.9498 71.9948 69.3846 72.769 70.6723L75.2558 74.4445L80.1305 70.3492C81.0532 69.5162 81.6811 68.7392 81.9174 67.8573L83.099 63.4476L85.057 63.9722L83.8416 68.5079C83.5378 69.6418 82.6781 70.7618 81.4268 71.7769L74.6099 77.3773Z" fill="#0A0A0A"/>
<path d="M102.984 79.0387C99.9822 78.2342 98.0625 77.0447 96.998 75.274C96.064 73.5384 96.5029 71.9005 96.6042 71.5225L98.4609 64.5931L100.419 65.1177L98.4946 72.2992C98.4946 72.2992 98.1908 73.4331 98.8682 74.5598C99.6424 75.8476 101.596 76.9111 104.337 77.6456C108.548 78.6388 110.089 78.1067 110.78 77.6166C111.109 77.4346 111.176 77.1826 111.176 77.1826L111.21 77.0566L112.594 71.891L114.552 72.4156L113.202 77.4553C113.134 77.7072 112.932 78.4632 112.043 79.1702C110.497 80.2413 107.814 80.3328 104.125 79.4794C103.507 79.1786 103.245 79.1086 102.984 79.0387Z" fill="#0A0A0A"/>
<path d="M114.552 88.0798L111.709 79.8912C111.133 78.3864 111.079 77.0216 111.252 75.8527L112.468 71.3171L114.426 71.8417L113.21 76.3774C113.008 77.1333 113.163 78.1202 113.546 79.303L115.72 85.2869L119.759 83.2635C121.04 82.6614 121.702 81.7584 122.039 80.4985L123.997 81.0231C123.491 82.913 122.433 84.25 120.693 84.9992L114.552 88.0798Z" fill="#0A0A0A"/>
<path d="M112.765 106.236L113.748 102.043C114.052 100.909 114.975 100.076 116.154 99.8521C117.169 99.719 118.411 99.7818 119.847 100.167C121.936 100.726 123.333 101.776 124.074 103.189C124.33 103.798 124.292 104.463 124.157 104.967L123.313 108.117L121.355 107.592L122.199 104.443C122.233 104.317 122.3 104.065 122.237 103.778C121.753 102.973 120.81 102.315 119.244 101.895C118.069 101.581 117.122 101.462 116.402 101.539C115.976 101.56 115.744 101.903 115.609 102.407L114.626 106.6L112.765 106.236Z" fill="#0A0A0A"/>
<path d="M67.9166 95.5692L65.9586 95.0445L66.6676 92.3987C66.8364 91.7688 66.5798 91.1599 65.9947 90.733C65.5063 90.4671 64.7906 90.0053 63.2243 89.5856C62.0495 89.2708 61.1988 89.3129 60.3774 89.768C59.1936 90.5311 58.919 92.078 58.8852 92.204L56.8935 91.8053C56.9273 91.6793 57.2739 89.3416 59.1486 88.0884C60.3324 87.3253 61.7727 87.1711 63.6001 87.6608C65.036 88.0455 66.177 88.4863 67.0232 88.9831C68.324 89.8718 68.9339 91.2505 68.5288 92.7624L67.7861 95.5342L67.9166 95.5692Z" fill="#0A0A0A"/>
<path d="M78.2279 98.3322L76.2699 97.8076L76.54 96.7996C76.9789 95.1618 76.8528 94.5879 76.6593 94.2659C76.306 93.4961 74.8071 92.8244 72.8492 92.2998C71.0217 91.8101 70.0068 91.9432 69.5476 92.0903C69.1223 92.1114 68.8567 92.5804 68.7554 92.9583L68.1815 95.1002L66.2236 94.5755L66.7975 92.4337C67.0676 91.4258 67.8598 90.5577 68.9085 90.2986C69.9573 90.0395 71.4944 90.0462 73.3218 90.5359C75.9324 91.2354 77.7553 92.264 78.399 93.5168C78.8491 94.4476 78.9368 95.6864 78.4642 97.4503L78.2279 98.3322Z" fill="#0A0A0A"/>
<path d="M99.3835 63.76C110.251 66.537 120.232 73.6676 125.415 83.5636C128.314 88.9315 131.021 97.6241 129.304 103.511C127.857 108.389 122.744 109.72 118.141 108.622C101.748 105.58 84.2866 101.306 67.8443 96.36C65.8863 95.8354 62.1685 94.5691 60.2443 93.9185C57.5369 93.058 54.6022 92.0016 53.0539 89.4262C50.7651 85.437 53.2565 80.8382 55.6376 77.6952C58.4485 73.9922 61.8446 70.716 65.6615 67.9578C75.6247 61.58 88.1196 61.417 99.3835 63.76ZM98.8388 66.3148L94.9522 65.6785C93.7437 65.4897 92.3708 65.3919 91.1623 65.2031C90.4759 65.1542 88.9388 65.1475 88.2524 65.0986C84.1969 65.0922 79.9096 65.4288 75.9757 66.5353C72.3703 67.4598 68.7605 68.9232 65.7988 71.1004C61.3202 74.7616 48.5078 85.5073 57.3951 90.4544C59.3486 91.5179 62.6118 92.3923 64.6666 93.0779C77.2898 97.1355 90.0817 100.563 103.043 103.361C108.201 104.473 113.489 105.62 118.585 106.445C122.273 107.298 126.27 106.479 127.283 102.699C128.701 97.4075 125.989 89.2538 123.381 84.3688C118.353 75.4597 109.054 68.9169 98.8388 66.3148Z" fill="#0A0A0A"/>
<path opacity="0.15" d="M92.798 92.5136C92.798 92.5136 102.417 92.1202 104.751 98.5521C107.084 104.984 104.501 116.715 99.3356 120.327C94.3011 123.975 91.1526 121.106 91.1526 121.106C91.1526 121.106 73.4747 119.204 75.1245 105.738C75.1245 105.738 79.0225 85.4466 81.9258 82.4435C82.09 82.3525 79.8125 88.7641 79.943 88.7991C82.997 87.3218 89.645 90.1834 92.798 92.5136Z" fill="#0A0A0A"/>
<path d="M99.1605 86.5213C99.1605 86.5213 111.167 86.0925 114.077 94.0291C116.987 101.966 113.757 116.63 107.375 121.131C100.992 125.632 91.7537 123.562 91.7537 123.562C91.7537 123.562 75.0075 119.75 77.2402 103.064C77.2402 103.064 79.3716 86.7554 81.9552 82.8565C82.1533 82.6395 82.187 82.5135 82.2208 82.3875C85.8014 80.5111 95.1951 83.5683 99.1605 86.5213Z" fill="#F7A19B"/>
<path d="M98.1159 101.906L98.6898 99.7639C99.707 95.4452 100.366 90.8956 99.2908 86.5563C99.1602 86.5214 99.0297 86.4864 99.0297 86.4864C98.8992 86.4514 98.9329 86.3254 98.6719 86.2555C99.545 91.3507 97.8999 96.4464 95.9644 101.059C95.665 101.654 96.0521 102.298 96.7048 102.473C97.4542 102.809 97.9808 102.41 98.1159 101.906Z" fill="#DB8989"/>
</g>
<defs>
<clipPath id="clip0_160_1481">
<rect width="150" height="150" fill="white" transform="translate(38.8223) rotate(15)"/>
</clipPath>
</defs>
</svg>
