<svg width="512" height="512" viewBox="0 0 512 512" fill="none" xmlns="http://www.w3.org/2000/svg">
<path d="M0 492C0 503.046 8.95431 512 20 512H492C503.046 512 512 503.046 512 492V20C512 8.95431 503.046 0 492 0H20C8.95431 0 0 8.95431 0 20V492Z" fill="#67A969"/>
<path d="M93.8009 109.799H107V133.201C107 138.111 106.562 141.851 105.688 144.411C104.813 146.974 103.054 149.145 100.405 150.927C97.7589 152.71 94.3689 153.6 90.2379 153.6C85.8689 153.6 82.4849 153.018 80.0849 151.852C77.6839 150.686 75.8299 148.983 74.5209 146.743C73.2119 144.503 72.4379 141.731 72.2009 138.432L85.3999 136.799C85.4189 138.589 85.5819 139.914 85.8889 140.78C86.1939 141.646 86.7129 142.343 87.4439 142.875C87.9439 143.226 88.6549 143.4 89.5729 143.4C91.0289 143.4 92.0969 142.851 92.7779 141.751C93.4599 140.648 93.8009 138.797 93.8009 136.19V109.799Z" fill="white"/>
<path d="M134.301 138.6C132.738 139.157 131.113 139.647 129.425 140.074C127.12 140.686 125.66 141.289 125.048 141.883C124.417 142.493 124.101 143.192 124.101 143.973C124.101 144.862 124.412 145.586 125.033 146.153C125.656 146.718 126.568 147.002 127.776 147.002C129.044 147.002 130.221 146.694 131.305 146.083C132.389 145.471 133.159 144.723 133.615 143.842C134.073 142.962 134.301 141.817 134.301 140.411V138.6ZM125.301 132.6L113.301 131.401C113.725 129.283 114.338 127.612 115.138 126.394C115.938 125.175 117.09 124.12 118.597 123.226C119.678 122.58 121.164 122.083 123.055 121.73C124.945 121.376 126.992 121.202 129.191 121.202C132.722 121.202 135.559 121.401 137.703 121.8C139.848 122.202 141.631 123.035 143.056 124.303C144.061 125.187 144.855 126.431 145.432 128.04C146.01 129.649 146.3 131.186 146.3 132.647V146.381C146.3 147.844 146.392 148.99 146.576 149.821C146.76 150.653 147.166 151.712 147.791 153H136.315C135.854 152.187 135.551 151.568 135.411 151.144C135.27 150.718 135.131 150.05 134.994 149.138C133.464 150.625 131.941 151.688 130.429 152.326C128.36 153.176 125.956 153.6 123.22 153.6C119.583 153.6 116.82 152.761 114.932 151.079C113.044 149.397 112.101 147.325 112.101 144.862C112.101 142.549 112.778 140.648 114.135 139.162C115.491 137.67 117.997 136.559 121.653 135.834C126.028 134.96 128.866 134.346 130.166 133.992C131.466 133.638 132.843 133.175 134.3 132.599C134.3 131.269 134.034 130.335 133.507 129.801C132.979 129.266 132.054 128.999 130.728 128.999C129.027 128.999 127.753 129.307 126.903 129.918C126.242 130.394 125.707 131.288 125.301 132.6Z" fill="white"/>
<path d="M148.399 121.799H160.682L166.7 141.572L172.682 121.799H185L171.772 153H161.234L148.399 121.799Z" fill="white"/>
<path d="M209.602 138.6C208.039 139.157 206.414 139.647 204.726 140.074C202.421 140.686 200.961 141.289 200.35 141.883C199.719 142.493 199.402 143.192 199.402 143.973C199.402 144.862 199.713 145.586 200.334 146.153C200.957 146.718 201.871 147.002 203.077 147.002C204.345 147.002 205.523 146.694 206.607 146.083C207.691 145.471 208.461 144.723 208.919 143.842C209.375 142.962 209.603 141.817 209.603 140.411V138.6H209.602ZM200.602 132.6L188.602 131.401C189.027 129.283 189.639 127.612 190.439 126.394C191.239 125.175 192.391 124.12 193.897 123.226C194.979 122.58 196.465 122.083 198.356 121.73C200.246 121.376 202.292 121.202 204.492 121.202C208.022 121.202 210.86 121.401 213.004 121.8C215.148 122.202 216.933 123.035 218.358 124.303C219.364 125.187 220.157 126.431 220.734 128.04C221.313 129.649 221.602 131.186 221.602 132.647V146.381C221.602 147.844 221.694 148.99 221.878 149.821C222.061 150.653 222.467 151.712 223.092 153H211.615C211.155 152.187 210.851 151.568 210.711 151.144C210.57 150.718 210.432 150.05 210.294 149.138C208.764 150.625 207.241 151.688 205.728 152.326C203.659 153.176 201.256 153.6 198.519 153.6C194.882 153.6 192.119 152.761 190.23 151.079C188.342 149.397 187.399 147.325 187.399 144.862C187.399 142.549 188.077 140.648 189.435 139.162C190.79 137.67 193.296 136.559 196.952 135.834C201.328 134.96 204.166 134.346 205.466 133.992C206.766 133.638 208.143 133.175 209.601 132.599C209.601 131.269 209.335 130.335 208.808 129.801C208.279 129.266 207.354 128.999 206.029 128.999C204.329 128.999 203.054 129.307 202.204 129.918C201.541 130.394 201.006 131.288 200.602 132.6Z" fill="white"/>
<path d="M246.802 138.779L260 138C260.258 140.026 260.778 141.565 261.566 142.621C262.849 144.34 264.678 145.201 267.06 145.201C268.834 145.201 270.203 144.753 271.161 143.854C272.121 142.958 272.6 141.918 272.6 140.738C272.6 139.619 272.175 138.617 271.326 137.728C270.469 136.839 268.273 136.001 264.734 135.215C258.941 133.896 254.81 132.155 252.34 129.993C249.848 127.829 248.601 125.078 248.601 121.733C248.601 119.527 249.242 117.445 250.522 115.489C251.804 113.532 253.73 111.997 256.301 110.878C258.874 109.76 262.4 109.2 266.882 109.2C272.375 109.2 276.565 110.234 279.448 112.306C282.333 114.378 284.05 117.676 284.599 122.202L271.401 123C271.113 120.906 270.511 119.382 269.595 118.43C268.679 117.476 267.416 117 265.804 117C264.478 117 263.478 117.329 262.806 117.989C262.137 118.648 261.801 119.45 261.801 120.393C261.801 121.081 261.956 121.703 262.268 122.259C262.569 122.826 263.887 123.359 266.225 123.854C271.999 125.109 276.137 126.379 278.638 127.664C281.137 128.948 282.957 130.543 284.093 132.445C285.231 134.347 285.801 136.478 285.801 138.834C285.801 141.597 285.038 144.146 283.513 146.479C281.988 148.815 279.856 150.583 277.119 151.792C274.381 152.999 270.931 153.601 266.768 153.601C259.455 153.601 254.392 152.207 251.577 149.416C248.761 146.624 247.169 143.079 246.802 138.779Z" fill="white"/>
<path d="M314.601 141L326.601 142.201C325.977 144.526 324.95 146.537 323.522 148.232C322.094 149.929 320.272 151.247 318.057 152.19C315.84 153.13 313.022 153.599 309.594 153.599C306.295 153.599 303.545 153.293 301.343 152.68C299.144 152.069 297.253 151.076 295.672 149.704C294.092 148.333 292.852 146.724 291.95 144.876C291.051 143.027 290.6 140.579 290.6 137.53C290.6 134.342 291.148 131.688 292.242 129.571C293.041 128.014 294.138 126.619 295.528 125.384C296.917 124.15 298.343 123.229 299.807 122.623C302.137 121.673 305.12 121.199 308.75 121.199C313.838 121.199 317.716 122.063 320.386 123.795C323.054 125.526 324.923 128.062 325.999 131.399L313.999 133.2C313.675 131.811 313.082 130.764 312.219 130.058C311.356 129.352 310.2 128.998 308.75 128.998C306.918 128.998 305.437 129.726 304.301 131.178C303.167 132.632 302.6 134.829 302.6 137.773C302.6 140.399 303.168 142.392 304.307 143.754C305.444 145.117 306.894 145.797 308.658 145.797C310.125 145.797 311.359 145.407 312.359 144.622C313.359 143.837 314.108 142.631 314.601 141Z" fill="white"/>
<path d="M332 121.799H343.176V127.162C344.258 124.893 345.372 123.334 346.525 122.478C347.672 121.625 349.094 121.201 350.788 121.201C352.558 121.201 354.496 121.728 356.601 122.784L352.879 131.663C351.461 131.089 350.339 130.799 349.514 130.799C347.944 130.799 346.726 131.435 345.857 132.703C344.621 134.49 344.001 137.834 344.001 142.734V153H332.001V121.799" fill="white"/>
<path d="M359 121.799H371V153H359V121.799ZM359 109.799H371V118.201H359V109.799Z" fill="white"/>
<path d="M390.116 137.578C390.116 140.364 390.631 142.433 391.653 143.78C392.677 145.126 393.976 145.799 395.544 145.799C396.924 145.799 398.081 145.153 399.008 143.861C399.937 142.566 400.402 140.376 400.402 137.289C400.402 134.438 399.918 132.345 398.949 131.007C397.979 129.671 396.798 129.001 395.405 129.001C393.891 129.001 392.634 129.674 391.626 131.022C390.62 132.367 390.116 134.554 390.116 137.578ZM378.201 165V121.799H389.329V125.906C390.873 124.187 392.288 123.026 393.576 122.42C395.312 121.607 397.234 121.201 399.341 121.201C403.498 121.201 406.713 122.785 408.988 125.958C411.262 129.131 412.401 133.05 412.401 137.718C412.401 142.875 411.161 146.81 408.684 149.527C406.205 152.243 403.069 153.6 399.275 153.6C397.444 153.6 395.773 153.328 394.259 152.781C392.746 152.233 391.394 151.421 390.2 150.338V165H378.201Z" fill="white"/>
<path d="M432.802 109.799V121.799H439.402V130.799H432.802V142.089C432.802 143.444 432.932 144.34 433.196 144.779C433.594 145.46 434.298 145.799 435.306 145.799C436.212 145.799 437.476 145.541 439.103 145.022L440 152.71C437.013 153.302 434.223 153.6 431.631 153.6C428.623 153.6 426.406 153.226 424.983 152.474C423.557 151.727 422.504 150.583 421.823 149.048C421.14 147.515 420.802 145.034 420.802 141.609V130.799H416.601V121.799H420.802V116.006L432.802 109.799Z" fill="white"/>
<path opacity="0.191" d="M512 364.931C473.734 325.406 350 201 350 201H170L150 368L297 512H512V364.931Z" fill="#010101"/>
<path d="M306.814 266.761L342.354 266.937L339.389 290.891L337.761 303.772L329.794 367.988L235.777 400L149.74 367.988L154.996 325.306H190.563L188.424 342.896L240.44 362.22L297.34 342.896L302.337 302.6H192.923L157.385 302.424L160.351 278.472L161.979 265.589L169.945 201.374L263.964 169.362L350 201.374L344.745 244.057H309.175L311.315 226.463L259.3 207.14L202.398 226.463L197.401 266.761H306.814Z" fill="white"/>
</svg>
