<svg width="512" height="512" viewBox="0 0 512 512" fill="none" xmlns="http://www.w3.org/2000/svg">
<g clip-path="url(#clip0_2_56)">
<path d="M-1 493C-1 504.046 7.95431 513 19 513H492C503.046 513 512 504.046 512 493V20C512 8.95429 503.046 0 492 0H19C7.95429 0 -1 8.95431 -1 20V493Z" fill="#9C57A3"/>
<path opacity="0.102" d="M407.674 246.518C403.909 242.651 398.74 240.469 393.343 240.469H144.846C138.789 240.469 133.058 243.214 129.262 247.934L118.42 261.412L107.831 274.577C102.148 281.642 101.929 291.645 107.296 298.952L258.524 504.84C262.292 509.97 268.278 513 274.643 513H492C503.046 513 512 504.046 512 493V361.816C512 356.605 509.966 351.6 506.331 347.865L407.674 246.518Z" fill="#010101"/>
<path d="M294.802 226.195C294.726 226.543 294.636 226.984 294.575 227.276L291.945 239.582L294.711 226.617L294.802 226.195Z" fill="#5DA3C2"/>
<path d="M216.02 234.433C216.02 234.433 216.02 234.433 216.02 234.433L214.566 239.573L216.02 234.433C216.02 234.433 216.02 234.433 216.02 234.433V234.433Z" fill="#5DA3C2"/>
<path d="M102.388 288.546C99.6606 287.592 98.037 284.901 98.037 282.012V280.468C98.037 274.658 105.157 271.146 110.636 273.081V273.081C115.165 274.682 119.736 275.481 124.35 275.481C127.063 275.481 129.431 275.222 131.454 274.709C133.475 274.194 135.163 273.484 136.519 272.577C137.878 271.67 138.888 270.601 139.552 269.373C140.218 268.145 140.549 266.81 140.549 265.367C140.549 263.51 140.022 261.849 138.964 260.386C137.907 258.922 136.464 257.568 134.635 256.326C132.808 255.082 130.64 253.882 128.134 252.724C125.626 251.567 122.922 250.389 120.023 249.19C112.624 246.088 107.109 242.296 103.481 237.811C99.853 233.326 98.038 227.912 98.038 221.568C98.038 216.597 99.041 212.327 101.048 208.756C103.056 205.185 105.791 202.241 109.255 199.928C112.719 197.614 116.73 195.914 121.287 194.828C125.843 193.743 130.672 193.2 135.771 193.2C140.772 193.2 145.203 193.496 149.068 194.088C151.074 194.396 152.998 194.79 154.84 195.269C157.839 196.049 159.749 198.872 159.749 201.971V210.5C159.749 213.01 156.837 214.549 154.562 213.491V213.491C152.692 212.619 150.763 211.899 148.777 211.328C146.792 210.756 144.82 210.335 142.863 210.062C140.906 209.791 139.042 209.656 137.271 209.656C134.856 209.656 132.657 209.899 130.672 210.385C128.687 210.87 127.011 211.556 125.647 212.443C124.283 213.328 123.225 214.388 122.475 215.625C121.725 216.86 121.35 218.242 121.35 219.771C121.35 221.372 121.768 222.804 122.603 224.066C123.439 225.331 124.629 226.528 126.171 227.657C127.714 228.785 129.586 229.896 131.785 230.989C133.985 232.081 136.47 233.197 139.243 234.343C143.028 235.942 146.428 237.642 149.441 239.443C152.455 241.242 155.041 243.273 157.199 245.538C159.355 247.804 161.005 250.388 162.147 253.295C163.291 256.202 163.861 259.584 163.861 263.441C163.861 268.768 162.84 273.24 160.798 276.854C158.756 280.468 155.984 283.396 152.485 285.638C148.985 287.882 144.915 289.492 140.272 290.47C135.629 291.449 130.73 291.938 125.573 291.938C120.273 291.938 115.234 291.502 110.455 290.63C107.526 290.097 104.837 289.402 102.388 288.546Z" fill="white"/>
<path d="M227.37 252.167C227.37 252.167 227.37 252.167 227.37 252.167L217 219.898C216.25 217.551 215.729 214.764 215.439 211.539C215.425 211.384 215.295 211.264 215.139 211.264V211.264C214.981 211.264 214.85 211.387 214.838 211.545C214.633 214.276 214.062 216.961 213.122 219.599L207.049 238.59C204.902 245.305 209.912 252.167 216.963 252.167H227.37C227.37 252.167 227.37 252.167 227.37 252.167V252.167ZM257.669 275.838C260.236 283.014 254.918 290.566 247.297 290.566V290.566C242.499 290.566 238.253 287.461 236.799 282.89L236.187 280.967C234.368 275.25 229.059 271.368 223.06 271.368H207.43C201.424 271.368 196.107 275.248 194.275 280.967L193.628 282.986C192.181 287.502 187.983 290.566 183.241 290.566V290.566C175.661 290.566 170.392 283.025 172.999 275.907L198.373 206.634C201.027 199.389 207.923 194.571 215.639 194.571V194.571C223.406 194.571 230.335 199.451 232.952 206.764L257.669 275.838Z" fill="white"/>
<path d="M275.176 288.546C272.448 287.592 270.824 284.901 270.824 282.011V280.47C270.824 274.659 277.945 271.147 283.425 273.081V273.081C287.953 274.682 292.523 275.481 297.137 275.481C299.853 275.481 302.219 275.222 304.241 274.709C306.262 274.194 307.952 273.484 309.308 272.577C310.665 271.67 311.675 270.601 312.338 269.373C313.004 268.145 313.335 266.81 313.335 265.367C313.335 263.51 312.807 261.849 311.75 260.386C310.693 258.923 309.25 257.568 307.423 256.326C305.594 255.082 303.427 253.882 300.92 252.724C298.412 251.567 295.708 250.389 292.808 249.19C285.411 246.088 279.897 242.296 276.267 237.811C272.639 233.326 270.825 227.912 270.825 221.568C270.825 216.597 271.83 212.327 273.837 208.756C275.843 205.185 278.577 202.241 282.044 199.928C285.506 197.614 289.517 195.914 294.075 194.828C298.631 193.743 303.459 193.2 308.558 193.2C313.558 193.2 317.99 193.496 321.853 194.088C323.859 194.396 325.784 194.79 327.627 195.269C330.627 196.049 332.537 198.872 332.537 201.972V210.5C332.537 213.01 329.626 214.549 327.35 213.491V213.491C325.478 212.619 323.55 211.899 321.564 211.328C319.579 210.756 317.609 210.335 315.649 210.062C313.695 209.791 311.83 209.656 310.057 209.656C307.644 209.656 305.445 209.899 303.458 210.385C301.473 210.87 299.797 211.556 298.433 212.443C297.07 213.328 296.013 214.388 295.262 215.625C294.513 216.86 294.137 218.242 294.137 219.771C294.137 221.372 294.556 222.804 295.391 224.066C296.225 225.331 297.415 226.528 298.957 227.657C300.502 228.785 302.373 229.896 304.572 230.989C306.771 232.081 309.258 233.197 312.029 234.343C315.812 235.942 319.213 237.642 322.228 239.443C325.242 241.242 327.828 243.273 329.985 245.538C332.141 247.804 333.79 250.388 334.933 253.295C336.076 256.202 336.649 259.584 336.649 263.441C336.649 268.768 335.628 273.24 333.585 276.854C331.542 280.468 328.771 283.396 325.272 285.638C321.77 287.882 317.7 289.492 313.058 290.47C308.416 291.448 303.516 291.938 298.359 291.938C293.058 291.938 288.02 291.502 283.242 290.63C280.313 290.097 277.625 289.402 275.176 288.546Z" fill="white"/>
<path d="M351.97 288.545C349.243 287.592 347.62 284.902 347.62 282.014V280.467C347.62 274.658 354.74 271.147 360.217 273.081V273.081C364.747 274.682 369.319 275.481 373.931 275.481C376.646 275.481 379.014 275.222 381.035 274.709C383.057 274.194 384.746 273.484 386.102 272.577C387.457 271.67 388.47 270.601 389.133 269.373C389.798 268.145 390.13 266.81 390.13 265.367C390.13 263.51 389.602 261.849 388.545 260.386C387.487 258.922 386.045 257.568 384.217 256.326C382.388 255.082 380.22 253.882 377.712 252.724C375.205 251.567 372.503 250.389 369.605 249.19C362.205 246.088 356.69 242.296 353.061 237.811C349.434 233.326 347.621 227.912 347.621 221.568C347.621 216.597 348.624 212.327 350.631 208.756C352.637 205.185 355.372 202.241 358.838 199.928C362.3 197.614 366.311 195.914 370.869 194.828C375.425 193.743 380.253 193.2 385.352 193.2C390.352 193.2 394.784 193.496 398.647 194.088C400.653 194.396 402.578 194.79 404.422 195.27C407.42 196.049 409.329 198.871 409.329 201.969V210.503C409.329 213.011 406.418 214.549 404.145 213.491V213.491C402.274 212.619 400.344 211.899 398.36 211.328C396.374 210.756 394.401 210.335 392.444 210.062C390.487 209.791 388.625 209.656 386.853 209.656C384.439 209.656 382.239 209.899 380.252 210.385C378.268 210.87 376.593 211.556 375.229 212.443C373.864 213.328 372.807 214.388 372.057 215.625C371.307 216.86 370.931 218.242 370.931 219.771C370.931 221.372 371.35 222.804 372.185 224.066C373.022 225.331 374.211 226.528 375.753 227.657C377.295 228.785 379.166 229.896 381.366 230.989C383.565 232.081 386.052 233.197 388.822 234.343C392.608 235.942 396.008 237.642 399.021 239.443C402.035 241.242 404.623 243.273 406.779 245.538C408.936 247.804 410.587 250.388 411.729 253.295C412.87 256.202 413.443 259.584 413.443 263.441C413.443 268.768 412.422 273.24 410.38 276.854C408.337 280.468 405.566 283.396 402.065 285.638C398.566 287.882 394.494 289.492 389.851 290.47C385.209 291.449 380.31 291.938 375.153 291.938C369.853 291.938 364.815 291.502 360.037 290.63C357.107 290.097 354.418 289.402 351.97 288.545Z" fill="white"/>
</g>
<defs>
<clipPath id="clip0_2_56">
<rect width="512" height="512" rx="20" fill="white"/>
</clipPath>
</defs>
</svg>
