<svg width="512" height="512" viewBox="0 0 512 512" fill="none" xmlns="http://www.w3.org/2000/svg">
<g clip-path="url(#clip0_2_10)">
<path d="M0 512H512V0H0V512Z" fill="#3558A8"/>
<path opacity="0.102" d="M389.001 225H95.001L81.001 294L337.001 512H512.001V330L389.001 225Z" fill="#010101"/>
<path d="M319.774 228.355L320.073 229.614C320.157 229.976 319.928 230.268 319.559 230.268" fill="#5DA3C2"/>
<path d="M295.801 226.195C295.727 226.543 295.637 226.984 295.575 227.276L292.946 239.582L295.712 226.617L295.801 226.195Z" fill="#5DA3C2"/>
<path d="M217.02 234.431L215.568 239.573L217.02 234.433V234.431Z" fill="#5DA3C2"/>
<path d="M388.68 219.797L387.114 213.175C385.879 208.382 382.379 206.116 374.51 206.116H341.419C340.656 206.116 339.895 206.46 339.739 207.206L327.184 266.746C327.02 267.5 326.973 268.035 327.058 268.406C327.148 268.79 328.619 268.719 329.374 268.719H340.836C341.603 268.719 342.996 268.777 343.401 268.614C343.825 268.439 344.012 267.304 344.168 266.552L348.219 245.676L353.168 222.519C353.329 221.777 354.079 221.168 354.839 221.168L387.618 221.146C388.375 221.146 388.854 220.54 388.68 219.797Z" fill="white"/>
<path d="M435.312 195.66C434.543 195.669 420.774 195.66 420.774 195.66C420.012 195.66 419.033 196.479 418.609 197.108L393.09 234.649C392.655 235.28 392.163 235.257 391.993 234.515L390.108 226.287C389.946 225.541 389.184 224.933 388.413 224.933H372.012C371.257 224.933 370.804 225.563 371.001 226.299L378.353 252.072C378.566 252.811 378.585 254.015 378.396 254.754L374.968 267.809C374.785 268.549 375.254 268.773 376.028 268.773H392.222C392.982 268.773 393.769 268.551 393.954 267.809L397.386 254.571C397.574 253.833 398.102 252.829 398.558 252.215L440.203 196.987C440.672 196.382 440.603 195.656 439.844 195.656L435.312 195.66Z" fill="white"/>
<path d="M264.556 206.167H249.754C249 206.167 248.227 206.433 248.076 207.18L243.184 230.071L238.311 251.99C238.155 252.732 237.4 252.681 236.637 252.681H226.91C217.286 252.681 218.397 246.602 220.376 237.489C220.399 237.398 226.548 207.18 226.548 207.18C226.683 206.435 226.185 206.167 225.431 206.167H211.328C210.566 206.167 209.81 206.435 209.662 207.18L203.989 237.465C201.159 253.84 201.073 268.249 220.063 268.724C220.376 268.736 250.047 268.724 250.047 268.724C250.815 268.724 251.568 268.472 251.732 267.735L258.171 237.364L264.586 206.867C264.587 206.866 264.815 206.167 264.556 206.167Z" fill="white"/>
<path d="M117.126 206.116H101.257C100.496 206.116 99.728 206.297 99.56 207.046L96.696 219.437C96.533 220.169 97.02 220.755 97.788 220.755H112.983C113.751 220.755 114.512 220.063 114.673 219.324L117.432 206.84C117.432 206.84 117.652 206.116 117.126 206.116Z" fill="white"/>
<path d="M96.759 224.934C96.004 224.934 95.229 225.537 95.066 226.282L92.927 235.732L88.154 257.556C88.154 257.556 85.613 269.16 85.369 269.886C85.369 269.886 83.23 278.262 78.121 277.926C75.744 277.77 73.027 277.224 73.027 277.224H73.02C71.593 276.792 71.493 278.275 71.318 279.016L68.166 292.614C67.985 293.357 68.473 294.027 69.227 294.039C69.227 294.039 76.06 295.001 80.883 295.001H81.676C93.595 295.001 99.891 287.993 103.916 268.965L108.633 246.94L113.057 226.448C113.22 225.702 112.771 225.01 112.009 225.01" fill="white"/>
<path d="M309.047 232.22C309.047 233.048 306.434 232.891 306.434 232.891L285.624 232.739C284.905 232.739 284.699 231.731 284.649 231.011C284.648 230.986 284.702 230.146 284.762 229.938C286.371 224.357 291.17 221.171 298.778 221.171C307.339 221.171 309.167 225.415 309.167 230.124L309.047 232.22ZM302.009 206.023C275.317 206.023 268.943 222.523 265.399 238.876C261.853 255.55 262.157 268.73 289.777 268.73H290.774C301.732 268.73 315.045 268.73 315.045 268.73C315.793 268.716 316.543 268.032 316.692 267.291L319.407 256.715C319.564 255.965 319.058 255.744 318.304 255.744H293.46C284.462 255.744 281.241 252.973 281.556 246.748C281.55 246.041 282.361 244.238 283.121 244.238H321.386C323.066 244.228 323.12 243.244 323.12 243.244C327.015 225.663 327.271 206.023 302.009 206.023Z" fill="white"/>
<path d="M172.539 240.382L169.462 250.895C169.25 251.633 168.382 252.124 167.621 252.124H151.752C139.71 252.124 136.783 242.817 139.71 228.931C142.65 214.735 148.471 205.951 160.315 205.062C176.508 203.841 179.822 215.278 175.896 228.422L172.539 240.382ZM186.641 251.522C186.641 251.522 194.117 233.362 195.815 222.864C198.136 208.819 191.109 188.446 163.94 188.446C136.932 188.446 125.213 207.894 120.727 229.04C116.26 250.337 122.108 268.879 148.967 268.729L189.961 268.704C190.716 268.702 191.503 268.091 191.696 267.363L195.154 254.203C195.342 253.46 194.873 252.856 194.106 252.854L190.805 252.829L187.503 252.815C186.855 252.808 186.481 252.387 186.567 251.829C186.579 251.728 186.592 251.626 186.641 251.522Z" fill="white"/>
</g>
<defs>
<clipPath id="clip0_2_10">
<rect width="512" height="512" rx="20" fill="white"/>
</clipPath>
</defs>
</svg>
