<svg width="330" height="330" viewBox="0 0 330 330" fill="none" xmlns="http://www.w3.org/2000/svg">
<rect width="330" height="330" rx="20" fill="url(#paint0_linear_288_142)"/>
<path d="M80.6722 91.6375L97.7535 233.031C98.3597 238.041 101.932 242.203 106.816 243.591L161.613 259.144C163.828 259.772 166.175 259.788 168.4 259.184L226.032 243.572C231.075 242.206 234.747 237.894 235.266 232.725L249.482 91.5156C249.853 87.825 246.938 84.625 243.203 84.625H86.9347C83.1535 84.625 80.2191 87.9094 80.6722 91.6375Z" fill="#7BBEEB"/>
<path d="M243.203 84.625H165V259.625C166.144 259.631 167.288 259.484 168.4 259.184L226.031 243.572C231.075 242.206 234.747 237.894 235.266 232.725L249.481 91.5156C249.853 87.825 246.938 84.625 243.203 84.625Z" fill="#ACE3FF"/>
<path d="M165.078 262.75C163.625 262.75 162.169 262.55 160.756 262.15L105.959 246.597C99.8501 244.863 95.4094 239.688 94.6469 233.406L77.5657 92.0125C77.2438 89.3562 78.0813 86.6844 79.8563 84.6781C81.65 82.6594 84.2282 81.5 86.9375 81.5H243.206C245.875 81.5 248.431 82.6312 250.219 84.6094C251.991 86.5719 252.859 89.2031 252.594 91.8313L238.375 233.041C237.725 239.453 233.094 244.897 226.844 246.584L169.219 262.197C167.863 262.566 166.472 262.75 165.078 262.75ZM86.9375 87.75C86.0032 87.75 85.15 88.1312 84.5375 88.825C83.9375 89.5031 83.6657 90.3688 83.775 91.2625L100.856 232.656C101.313 236.428 103.988 239.541 107.669 240.584L162.469 256.137C164.141 256.609 165.906 256.622 167.584 256.169L225.213 240.556C228.978 239.537 231.772 236.266 232.159 232.416L246.375 91.2031C246.463 90.3188 246.181 89.4656 245.584 88.8C244.969 88.1219 244.122 87.75 243.203 87.75H86.9375Z" fill="#8D6C9F"/>
<path d="M86.875 106.5C85.1469 106.5 83.75 105.103 83.75 103.375V97.125C83.75 95.3969 85.1469 94 86.875 94C88.6031 94 90 95.3969 90 97.125V103.375C90 105.103 88.6031 106.5 86.875 106.5ZM102.5 106.5C100.772 106.5 99.375 105.103 99.375 103.375V97.125C99.375 95.3969 100.772 94 102.5 94C104.228 94 105.625 95.3969 105.625 97.125V103.375C105.625 105.103 104.228 106.5 102.5 106.5ZM118.125 106.5C116.397 106.5 115 105.103 115 103.375V97.125C115 95.3969 116.397 94 118.125 94C119.853 94 121.25 95.3969 121.25 97.125V103.375C121.25 105.103 119.853 106.5 118.125 106.5ZM133.75 106.5C132.022 106.5 130.625 105.103 130.625 103.375V97.125C130.625 95.3969 132.022 94 133.75 94C135.478 94 136.875 95.3969 136.875 97.125V103.375C136.875 105.103 135.478 106.5 133.75 106.5ZM149.375 106.5C147.647 106.5 146.25 105.103 146.25 103.375V97.125C146.25 95.3969 147.647 94 149.375 94C151.103 94 152.5 95.3969 152.5 97.125V103.375C152.5 105.103 151.103 106.5 149.375 106.5ZM165 106.5C163.272 106.5 161.875 105.103 161.875 103.375V97.125C161.875 95.3969 163.272 94 165 94C166.728 94 168.125 95.3969 168.125 97.125V103.375C168.125 105.103 166.728 106.5 165 106.5ZM180.625 106.5C178.897 106.5 177.5 105.103 177.5 103.375V97.125C177.5 95.3969 178.897 94 180.625 94C182.353 94 183.75 95.3969 183.75 97.125V103.375C183.75 105.103 182.353 106.5 180.625 106.5ZM196.25 106.5C194.522 106.5 193.125 105.103 193.125 103.375V97.125C193.125 95.3969 194.522 94 196.25 94C197.978 94 199.375 95.3969 199.375 97.125V103.375C199.375 105.103 197.978 106.5 196.25 106.5ZM211.875 106.5C210.147 106.5 208.75 105.103 208.75 103.375V97.125C208.75 95.3969 210.147 94 211.875 94C213.603 94 215 95.3969 215 97.125V103.375C215 105.103 213.603 106.5 211.875 106.5ZM227.5 106.5C225.772 106.5 224.375 105.103 224.375 103.375V97.125C224.375 95.3969 225.772 94 227.5 94C229.228 94 230.625 95.3969 230.625 97.125V103.375C230.625 105.103 229.228 106.5 227.5 106.5ZM243.125 106.5C241.397 106.5 240 105.103 240 103.375V97.125C240 95.3969 241.397 94 243.125 94C244.853 94 246.25 95.3969 246.25 97.125V103.375C246.25 105.103 244.853 106.5 243.125 106.5ZM189.997 240.269C188.622 240.269 187.359 239.353 186.984 237.963C186.531 236.297 187.516 234.581 189.181 234.128L195.431 232.434C197.1 231.978 198.816 232.966 199.266 234.631C199.719 236.297 198.734 238.013 197.069 238.466L190.819 240.159C190.544 240.234 190.269 240.269 189.997 240.269ZM165.075 247.134L148.519 242.434C146.859 241.966 145.894 240.234 146.369 238.575C146.838 236.916 148.559 235.944 150.228 236.425L165.112 240.65L176.681 237.519C178.35 237.056 180.066 238.05 180.516 239.716C180.969 241.381 179.984 243.1 178.319 243.55L165.075 247.134Z" fill="#8D6C9F"/>
<path d="M113.438 162.75L117.306 169.819L124.375 173.688L117.306 177.556L113.438 184.625L109.569 177.556L102.5 173.688L109.569 169.819L113.438 162.75ZM213.444 215.875L216.181 220.906L221.25 223.694L216.181 226.431L213.444 231.5L210.656 226.431L205.625 223.694L210.656 220.906L213.444 215.875ZM229.075 140.875L230.734 143.881L233.75 145.556L230.731 147.209L229.075 150.25L227.394 147.209L224.375 145.556L227.394 143.881L229.075 140.875Z" fill="#FFF8F8"/>
<path d="M211.932 122.125H118.125C116.207 122.125 114.741 123.838 115.041 125.734L117.425 140.875H194.294L192.079 159.625H143.125V178.375H189.863L187.047 202.203L165.294 208.834L146.085 202.328L144.697 193.513C144.457 191.994 143.147 190.875 141.61 190.875H128.957C127.038 190.875 125.572 192.591 125.869 194.487L129.038 214.609C129.216 215.741 130.007 216.681 131.094 217.047L164.072 228.216C164.388 228.322 164.713 228.375 165.041 228.375C165.338 228.375 165.635 228.331 165.922 228.244L202.307 217.156C203.475 216.8 204.325 215.784 204.466 214.572L213.5 138.119L214.985 125.559C215.2 123.731 213.772 122.125 211.932 122.125Z" fill="#FAEFDE"/>
<path d="M165.044 231.5C164.385 231.5 163.728 231.394 163.094 231.181L130.094 220.006C127.903 219.269 126.316 217.387 125.953 215.1L122.782 194.972C122.497 193.166 123.016 191.331 124.203 189.941C125.394 188.55 127.125 187.753 128.957 187.753H141.613C144.71 187.753 147.307 189.975 147.788 193.034L148.882 199.978L165.35 205.553L184.191 199.813L186.347 181.5H143.125C141.397 181.5 140 180.103 140 178.375V159.625C140 157.897 141.397 156.5 143.125 156.5H189.3L190.778 144H117.422C115.885 144 114.575 142.881 114.335 141.359L111.95 126.216C111.666 124.412 112.185 122.578 113.372 121.188C114.563 119.797 116.294 119 118.125 119H211.935C213.703 119 215.391 119.759 216.569 121.081C217.741 122.403 218.297 124.169 218.088 125.928L207.572 214.934C207.282 217.378 205.575 219.425 203.219 220.141L166.835 231.234C166.257 231.413 165.653 231.5 165.044 231.5ZM128.957 194L132.128 214.122L165.075 225.256L201.397 214.162L211.875 125.25H118.125L120.094 137.75H194.294C195.188 137.75 196.038 138.131 196.628 138.8C197.222 139.466 197.5 140.356 197.397 141.241L195.182 159.991C194.997 161.566 193.663 162.75 192.078 162.75H146.25V175.25H189.863C190.753 175.25 191.607 175.631 192.197 176.3C192.791 176.966 193.069 177.856 192.966 178.741L190.153 202.569C190.007 203.803 189.147 204.831 187.963 205.191L166.21 211.822C165.582 212.016 164.913 212.006 164.297 211.794L145.088 205.287C143.985 204.916 143.185 203.962 143 202.812L141.61 194H128.957Z" fill="#8D6C9F"/>
<defs>
<linearGradient id="paint0_linear_288_142" x1="-19.5" y1="-37" x2="352.5" y2="389" gradientUnits="userSpaceOnUse">
<stop stop-color="#698EFD"/>
<stop offset="0.5" stop-color="#49CCB4" stop-opacity="0.833333"/>
<stop offset="1" stop-color="#01051C" stop-opacity="0"/>
</linearGradient>
</defs>
</svg>
