<svg width="512" height="512" viewBox="0 0 512 512" fill="none" xmlns="http://www.w3.org/2000/svg">
<path d="M0 492C0 503.046 8.95431 512 20 512H492C503.046 512 512 503.046 512 492V20C512 8.95431 503.046 0 492 0H20C8.95431 0 0 8.95431 0 20V492Z" fill="#E44E25"/>
<path opacity="0.1" d="M512 372.776C512 367.563 510.012 362.628 506.456 358.815C469.008 318.664 381.296 211.618 357.652 182.656C353.845 177.993 348.196 175.344 342.177 175.344H176.997C165.232 175.344 156.009 185.448 157.08 197.164L172.218 362.844C172.645 367.514 174.7 371.886 178.023 375.195L309.542 506.171C313.291 509.904 318.365 512 323.655 512H492C503.046 512 512 503.046 512 492V372.776Z" fill="black"/>
<path d="M161.318 110.395H174.658V125.194H189.814V110.395H203.152V153.018H189.814V135.851H174.658V153.018H161.318V110.395Z" fill="white"/>
<path d="M208.608 110.395H249.834V120.458H235.89V153.018H222.552V120.458H208.608V110.395Z" fill="white"/>
<path d="M255.292 110.395H272.873L279.57 136.425L286.2 110.395H303.794V153.018H292.88V120.701L284.647 153.018H274.521L266.205 120.701V153.018H255.292V110.395Z" fill="white"/>
<path d="M312.281 110.395H325.617V142.363H346.839V153.018H312.281V110.395Z" fill="white"/>
<path d="M253.253 290.938H253.118H165.645L156.023 185.599L155.086 175.344H253.118H253.253H351.186L350.251 185.599L348.467 204.978L347.681 213.57H347.556H253.253H253.118H197.871L201.449 252.714H253.118H253.253H333.568H344.118L343.162 262.979L333.964 363.614L333.375 370.073L253.254 391.755V391.761L253.072 391.811L172.879 370.073L167.396 310.053H185.508H206.695L209.483 340.539L253.082 352.035L253.118 352.026V352.021L296.779 340.516L301.326 290.938H253.253Z" fill="white"/>
</svg>
