<svg width="512" height="512" viewBox="0 0 512 512" fill="none" xmlns="http://www.w3.org/2000/svg">
<path d="M0 492C0 503.046 8.95431 512 20 512H492C503.046 512 512 503.046 512 492V20C512 8.95431 503.046 0 492 0H20C8.95431 0 0 8.95431 0 20V492Z" fill="#3E4041"/>
<path opacity="0.102" d="M327 160L180 162L158 266L284 512H512V435L327 160Z" fill="#010101"/>
<path d="M295.802 226.195C295.727 226.543 295.636 226.984 295.575 227.276L292.945 239.582L295.712 226.617L295.802 226.195Z" fill="#5DA3C2"/>
<path d="M217.02 234.431L215.568 239.573L217.02 234.433V234.431Z" fill="#5DA3C2"/>
<path d="M324.188 125C328.091 133.864 330.619 148.582 326.845 159.362C342.274 172.532 347.578 204.557 340.13 230.725C362.117 232.405 388.31 229.921 405.216 236.668C389.411 234.637 367.825 230.65 347.442 232.038C343.579 232.3 337.857 231.891 338.138 237.324C361.735 239.178 385.183 241.195 404.558 247.24C385.344 244.1 362.016 239.323 338.138 238.654C328.274 258.119 308.422 267.683 281.019 269.699C283.964 276.108 289.606 278.549 290.988 288.861C293.04 304.264 287.769 326.826 292.969 337.092C295.464 342.01 299.529 342.143 302.273 346.347C295.56 354.291 278.922 345.458 277.027 337.092C273.781 322.765 281.972 300.553 273.045 290.842C273.677 306.467 269.353 328.416 273.711 342.377C275.431 347.868 280.388 349.985 279.027 354.936C247.831 358.104 260.863 314.558 255.768 288.861C251.063 289.194 253.128 295.909 253.116 298.773C252.978 323.873 258.251 358.294 231.199 354.936C230.404 349.664 234.828 347.869 236.509 343.049C241.447 328.927 235.585 307.886 237.85 290.842C227.524 298.626 238.932 325.802 232.535 339.733C228.847 347.753 216.971 351.242 207.96 347.663C209.132 341.69 215.302 342.656 217.915 337.093C221.569 329.335 217.941 318.166 219.251 306.701C200.135 310.514 185.313 306.148 178.062 294.144C174.818 288.756 174.01 282.402 170.087 277.628C166.186 272.851 159.949 272.21 158.139 265.74C181.808 260.045 182.714 290.096 203.974 290.842C210.489 291.077 213.876 288.959 219.91 287.544C221.596 279.963 225.213 274.314 230.535 270.355C204.089 266.734 182.245 258.5 172.087 238.654C148.04 239.838 126.039 243.049 105.66 247.896C124.156 241.177 146.972 238.769 171.423 237.98C169.983 229.32 157.351 231.702 149.506 232.038C134.933 232.68 116.586 234.492 105.002 236.668C121.798 230.679 145.357 231.428 168.107 231.381C161.148 209.566 163.559 174.91 178.733 162.003C174.433 151.167 175.768 133.44 181.39 124.999C198.33 125.76 208.605 133.148 219.25 140.201C232.448 136.445 246.327 134.578 264.412 135.572C272.021 135.995 279.932 139.412 285.658 138.871C291.281 138.346 297.477 132.038 302.93 129.628C310.044 126.491 316.058 125.293 324.188 125Z" fill="white"/>
</svg>
