<svg width="330" height="330" viewBox="0 0 330 330" fill="none" xmlns="http://www.w3.org/2000/svg">
<rect width="330" height="330" rx="20" fill="url(#paint0_linear_288_152)"/>
<path d="M80.6712 87.6375L97.7525 229.031C98.3587 234.041 101.931 238.203 106.815 239.591L161.612 255.144C163.828 255.772 166.174 255.788 168.399 255.184L226.031 239.572C231.074 238.206 234.746 233.894 235.265 228.725L249.481 87.5156C249.853 83.825 246.937 80.625 243.203 80.625H86.9337C83.1525 80.625 80.2181 83.9094 80.6712 87.6375Z" fill="#E44D26"/>
<path d="M243.203 80.625H165V255.625C166.144 255.631 167.288 255.484 168.4 255.184L226.031 239.572C231.075 238.206 234.747 233.894 235.266 228.725L249.481 87.5156C249.853 83.825 246.938 80.625 243.203 80.625Z" fill="#F16529"/>
<path d="M165.078 258.75C163.625 258.75 162.169 258.55 160.756 258.15L105.959 242.597C99.8501 240.863 95.4094 235.688 94.6469 229.406L77.5657 88.0125C77.2438 85.3562 78.0813 82.6844 79.8563 80.6781C81.65 78.6594 84.2282 77.5 86.9375 77.5H243.206C245.875 77.5 248.431 78.6312 250.219 80.6094C251.991 82.5719 252.859 85.2031 252.594 87.8313L238.375 229.041C237.725 235.453 233.094 240.897 226.844 242.584L169.219 258.197C167.863 258.566 166.472 258.75 165.078 258.75ZM86.9375 83.75C86.0032 83.75 85.15 84.1312 84.5375 84.825C83.9375 85.5031 83.6657 86.3688 83.775 87.2625L100.856 228.656C101.313 232.428 103.988 235.541 107.669 236.584L162.469 252.137C164.141 252.609 165.906 252.622 167.584 252.169L225.213 236.556C228.978 235.537 231.772 232.266 232.159 228.416L246.375 87.2031C246.463 86.3188 246.181 85.4656 245.584 84.8C244.969 84.1219 244.122 83.75 243.203 83.75H86.9375Z" fill="#8D6C9F"/>
<path d="M86.875 102.5C85.1469 102.5 83.75 101.103 83.75 99.375V93.125C83.75 91.3969 85.1469 90 86.875 90C88.6031 90 90 91.3969 90 93.125V99.375C90 101.103 88.6031 102.5 86.875 102.5ZM102.5 102.5C100.772 102.5 99.375 101.103 99.375 99.375V93.125C99.375 91.3969 100.772 90 102.5 90C104.228 90 105.625 91.3969 105.625 93.125V99.375C105.625 101.103 104.228 102.5 102.5 102.5ZM118.125 102.5C116.397 102.5 115 101.103 115 99.375V93.125C115 91.3969 116.397 90 118.125 90C119.853 90 121.25 91.3969 121.25 93.125V99.375C121.25 101.103 119.853 102.5 118.125 102.5ZM133.75 102.5C132.022 102.5 130.625 101.103 130.625 99.375V93.125C130.625 91.3969 132.022 90 133.75 90C135.478 90 136.875 91.3969 136.875 93.125V99.375C136.875 101.103 135.478 102.5 133.75 102.5ZM149.375 102.5C147.647 102.5 146.25 101.103 146.25 99.375V93.125C146.25 91.3969 147.647 90 149.375 90C151.103 90 152.5 91.3969 152.5 93.125V99.375C152.5 101.103 151.103 102.5 149.375 102.5ZM165 102.5C163.272 102.5 161.875 101.103 161.875 99.375V93.125C161.875 91.3969 163.272 90 165 90C166.728 90 168.125 91.3969 168.125 93.125V99.375C168.125 101.103 166.728 102.5 165 102.5ZM180.625 102.5C178.897 102.5 177.5 101.103 177.5 99.375V93.125C177.5 91.3969 178.897 90 180.625 90C182.353 90 183.75 91.3969 183.75 93.125V99.375C183.75 101.103 182.353 102.5 180.625 102.5ZM196.25 102.5C194.522 102.5 193.125 101.103 193.125 99.375V93.125C193.125 91.3969 194.522 90 196.25 90C197.978 90 199.375 91.3969 199.375 93.125V99.375C199.375 101.103 197.978 102.5 196.25 102.5ZM211.875 102.5C210.147 102.5 208.75 101.103 208.75 99.375V93.125C208.75 91.3969 210.147 90 211.875 90C213.603 90 215 91.3969 215 93.125V99.375C215 101.103 213.603 102.5 211.875 102.5ZM227.5 102.5C225.772 102.5 224.375 101.103 224.375 99.375V93.125C224.375 91.3969 225.772 90 227.5 90C229.228 90 230.625 91.3969 230.625 93.125V99.375C230.625 101.103 229.228 102.5 227.5 102.5ZM243.125 102.5C241.397 102.5 240 101.103 240 99.375V93.125C240 91.3969 241.397 90 243.125 90C244.853 90 246.25 91.3969 246.25 93.125V99.375C246.25 101.103 244.853 102.5 243.125 102.5Z" fill="#8D6C9F"/>
<path d="M211.932 118.125H118.125C116.207 118.125 114.741 119.838 115.041 121.734L122.916 171.737C123.157 173.256 124.466 174.375 126.004 174.375H186.347C188.219 174.375 189.669 176.009 189.45 177.866L187.047 198.203L165.294 204.834L146.085 198.328L144.697 189.513C144.457 187.994 143.147 186.875 141.61 186.875H128.957C127.038 186.875 125.572 188.591 125.869 190.487L129.038 210.609C129.216 211.741 130.007 212.681 131.094 213.047L164.072 224.216C164.388 224.322 164.713 224.375 165.041 224.375C165.338 224.375 165.635 224.331 165.922 224.244L202.307 213.156C203.475 212.8 204.325 211.784 204.466 210.572L210.544 159.119C210.766 157.259 209.316 155.625 207.444 155.625H142.032C140.494 155.625 139.185 154.506 138.944 152.988L136.975 140.488C136.675 138.591 138.141 136.875 140.063 136.875H210.397C211.982 136.875 213.316 135.691 213.5 134.116L214.985 121.556C215.2 119.731 213.772 118.125 211.932 118.125Z" fill="#FAEFDE"/>
<path d="M165.043 227.5C164.384 227.5 163.727 227.394 163.093 227.181L130.093 216.006C127.902 215.269 126.315 213.387 125.952 211.1L122.781 190.972C122.496 189.166 123.015 187.331 124.202 185.941C125.393 184.55 127.124 183.753 128.956 183.753H141.612C144.709 183.753 147.306 185.975 147.787 189.034L148.881 195.978L165.349 201.553L184.19 195.813L186.346 177.5H126.002C122.906 177.5 120.309 175.278 119.827 172.219L111.949 122.219C111.665 120.416 112.184 118.581 113.371 117.191C114.562 115.797 116.293 115 118.124 115H211.934C213.699 115 215.387 115.756 216.562 117.078C217.737 118.397 218.293 120.163 218.087 121.922L216.602 134.484C216.234 137.628 213.565 140 210.396 140H140.062L142.034 152.5H207.446C209.231 152.5 210.934 153.266 212.118 154.6C213.302 155.931 213.865 157.713 213.652 159.484L207.574 210.938C207.284 213.388 205.574 215.431 203.215 216.147L166.837 227.238C166.256 227.413 165.652 227.5 165.043 227.5ZM128.956 190L132.127 210.122L165.074 221.256L201.396 210.162L207.443 158.75H142.027C138.931 158.75 136.334 156.528 135.852 153.469L133.884 140.972C133.599 139.166 134.118 137.331 135.306 135.941C136.496 134.55 138.227 133.753 140.059 133.753H210.396L211.874 121.25H118.124L126.002 171.25H186.346C188.131 171.25 189.834 172.016 191.018 173.35C192.202 174.681 192.765 176.463 192.552 178.234L190.149 198.572C190.002 199.806 189.143 200.834 187.959 201.194L166.206 207.825C165.577 208.019 164.909 208.009 164.293 207.797L145.084 201.291C143.981 200.919 143.181 199.966 142.996 198.816L141.609 190H128.956ZM189.996 236.269C188.621 236.269 187.359 235.353 186.984 233.963C186.531 232.297 187.515 230.581 189.181 230.128L195.431 228.434C197.099 227.978 198.815 228.966 199.265 230.631C199.718 232.297 198.734 234.013 197.068 234.466L190.818 236.159C190.543 236.234 190.268 236.269 189.996 236.269ZM165.074 243.134L148.518 238.434C146.859 237.966 145.893 236.234 146.368 234.575C146.837 232.916 148.559 231.944 150.227 232.425L165.112 236.65L176.681 233.519C178.349 233.056 180.065 234.05 180.515 235.716C180.968 237.381 179.984 239.1 178.318 239.55L165.074 243.134Z" fill="#8D6C9F"/>
<path d="M222.812 136.875L226.681 143.944L233.75 147.812L226.681 151.681L222.812 158.75L218.944 151.681L211.875 147.812L218.944 143.944L222.812 136.875ZM213.444 211.875L216.181 216.906L221.25 219.694L216.181 222.431L213.444 227.5L210.656 222.431L205.625 219.694L210.656 216.906L213.444 211.875ZM104.056 174.375L105.709 177.381L108.716 179.056L105.709 180.709L104.056 183.75L102.381 180.709L99.375 179.056L102.381 177.381L104.056 174.375Z" fill="#FAEFDE"/>
<defs>
<linearGradient id="paint0_linear_288_152" x1="165" y1="0" x2="165" y2="330" gradientUnits="userSpaceOnUse">
<stop stop-color="#BC7A90"/>
<stop offset="0.520833" stop-color="#C471ED"/>
<stop offset="1" stop-color="#C6426E"/>
<stop offset="1" stop-color="#272028"/>
</linearGradient>
</defs>
</svg>
