<svg width="512" height="512" viewBox="0 0 512 512" fill="none" xmlns="http://www.w3.org/2000/svg">
<path d="M0 492C0 503.046 8.95431 512 20 512H492C503.046 512 512 503.046 512 492V20C512 8.95431 503.046 0 492 0H20C8.95431 0 0 8.95431 0 20V492Z" fill="#1073BB"/>
<path d="M218.381 135.438L231.146 139.395C230.265 143.112 228.879 146.216 226.99 148.711C225.1 151.207 222.753 153.09 219.951 154.359C217.148 155.63 213.58 156.265 209.248 156.265C203.992 156.265 199.699 155.504 196.368 153.987C193.036 152.467 190.163 149.796 187.744 145.97C185.327 142.147 184.117 137.253 184.117 131.291C184.117 123.339 186.233 117.228 190.469 112.955C194.702 108.683 200.695 106.548 208.441 106.548C214.508 106.548 219.276 107.795 222.744 110.29C226.211 112.784 228.789 116.614 230.475 121.78L217.038 124.687C216.583 123.231 216.108 122.167 215.61 121.496C214.784 120.363 213.776 119.49 212.582 118.882C211.389 118.273 210.057 117.97 208.587 117.97C205.25 117.97 202.691 119.295 200.914 121.947C199.57 123.916 198.898 127.004 198.898 131.218C198.898 136.432 199.733 140.005 201.408 141.941C203.08 143.877 205.427 144.843 208.451 144.843C211.39 144.843 213.611 144.04 215.111 142.435C216.612 140.829 217.703 138.496 218.381 135.438Z" fill="white"/>
<path d="M235.177 139.669L249.957 138.797C250.245 141.066 250.83 142.791 251.711 143.975C253.146 145.897 255.195 146.86 257.862 146.86C259.851 146.86 261.381 146.357 262.455 145.354C263.528 144.35 264.066 143.185 264.066 141.863C264.066 140.611 263.591 139.488 262.638 138.495C261.679 137.501 259.22 136.561 255.257 135.681C248.771 134.204 244.145 132.257 241.381 129.834C238.588 127.412 237.193 124.328 237.193 120.584C237.193 118.113 237.912 115.785 239.345 113.595C240.78 111.405 242.938 109.682 245.816 108.428C248.696 107.177 252.647 106.551 257.665 106.551C263.816 106.551 268.506 107.71 271.735 110.03C274.966 112.351 276.888 116.044 277.505 121.111L262.724 122.003C262.403 119.659 261.728 117.952 260.704 116.886C259.679 115.817 258.262 115.284 256.456 115.284C254.972 115.284 253.854 115.653 253.103 116.392C252.35 117.132 251.974 118.028 251.974 119.084C251.974 119.855 252.149 120.551 252.499 121.173C252.835 121.811 254.31 122.404 256.927 122.958C263.395 124.366 268.029 125.786 270.828 127.226C273.627 128.664 275.662 130.449 276.937 132.58C278.21 134.712 278.846 137.096 278.846 139.733C278.846 142.828 277.993 145.68 276.284 148.294C274.577 150.908 272.191 152.892 269.127 154.242C266.061 155.594 262.197 156.268 257.535 156.268C249.348 156.268 243.677 154.705 240.525 151.58C237.373 148.454 235.591 144.484 235.177 139.669Z" fill="white"/>
<path d="M283.551 139.669L298.33 138.797C298.617 141.066 299.201 142.791 300.083 143.975C301.518 145.897 303.568 146.86 306.233 146.86C308.221 146.86 309.753 146.357 310.828 145.354C311.901 144.35 312.441 143.185 312.441 141.863C312.441 140.611 311.963 139.488 311.012 138.495C310.053 137.501 307.591 136.561 303.632 135.681C297.143 134.204 292.517 132.257 289.752 129.834C286.96 127.412 285.564 124.328 285.564 120.584C285.564 118.113 286.282 115.785 287.717 113.595C289.15 111.405 291.31 109.682 294.19 108.428C297.068 107.177 301.018 106.551 306.036 106.551C312.187 106.551 316.878 107.71 320.108 110.03C323.337 112.351 325.259 116.044 325.877 121.111L311.096 122.003C310.774 119.659 310.1 117.952 309.075 116.886C308.049 115.817 306.636 115.284 304.828 115.284C303.346 115.284 302.226 115.653 301.474 116.392C300.723 117.132 300.346 118.028 300.346 119.084C300.346 119.855 300.521 120.551 300.869 121.173C301.206 121.811 302.684 122.404 305.302 122.958C311.769 124.366 316.401 125.786 319.201 127.226C321.999 128.664 324.033 130.449 325.31 132.58C326.582 134.712 327.219 137.096 327.219 139.733C327.219 142.828 326.365 145.68 324.658 148.294C322.949 150.908 320.563 152.892 317.498 154.242C314.433 155.594 310.569 156.268 305.907 156.268C297.719 156.268 292.052 154.705 288.896 151.58C285.744 148.454 283.964 144.484 283.551 139.669Z" fill="white"/>
<path opacity="0.191" d="M512 364.932C473.733 325.406 374 174 374 174H171L136 352L297 512H512V364.932Z" fill="#010101"/>
<path d="M171.46 174L163.471 213.946H326.064L320.989 239.749H158.288L150.407 279.695H313L303.932 325.258L238.397 346.958L181.609 325.258L185.496 305.5H145.55L136.048 353.436L229.977 389.389L338.265 353.436L352.624 281.315L355.539 266.85L374 174H171.46Z" fill="white"/>
</svg>
