<svg width="330" height="330" viewBox="0 0 330 330" fill="none" xmlns="http://www.w3.org/2000/svg">
<rect width="330" height="330" rx="20" fill="url(#paint0_linear_286_133)"/>
<path d="M165 66C111.984 66 69 108.984 69 162C69 206.984 99.976 244.624 141.736 255.04C141.288 253.744 141 252.24 141 250.376V233.968C137.104 233.968 130.576 233.968 128.936 233.968C122.368 233.968 116.528 231.144 113.696 225.896C110.552 220.064 110.008 211.144 102.216 205.688C99.904 203.872 101.664 201.8 104.328 202.08C109.248 203.472 113.328 206.848 117.168 211.856C120.992 216.872 122.792 218.008 129.936 218.008C133.4 218.008 138.584 217.808 143.464 217.04C146.088 210.376 150.624 204.24 156.168 201.344C124.2 198.056 108.944 182.152 108.944 160.56C108.944 151.264 112.904 142.272 119.632 134.696C117.424 127.176 114.648 111.84 120.48 106C134.864 106 143.56 115.328 145.648 117.848C152.816 115.392 160.688 114 168.96 114C177.248 114 185.152 115.392 192.336 117.864C194.4 115.36 203.104 106 217.52 106C223.376 111.848 220.568 127.248 218.336 134.752C225.024 142.312 228.96 151.28 228.96 160.56C228.96 182.136 213.728 198.032 181.808 201.336C190.592 205.92 197 218.8 197 228.504V250.376C197 251.208 196.816 251.808 196.72 252.52C234.128 239.408 261 203.888 261 162C261 108.984 218.016 66 165 66Z" fill="black"/>
<defs>
<linearGradient id="paint0_linear_286_133" x1="165" y1="3.57628e-07" x2="177" y2="448" gradientUnits="userSpaceOnUse">
<stop stop-color="#ECCE9E"/>
<stop offset="1" stop-color="#EB9E90"/>
</linearGradient>
</defs>
</svg>
