<svg width="330" height="330" viewBox="0 0 330 330" fill="none" xmlns="http://www.w3.org/2000/svg">
<rect width="330" height="330" rx="20" fill="url(#paint0_linear_285_102)"/>
<path d="M237.981 176.789C230.955 176.826 224.87 178.515 219.772 181.038C217.909 177.307 216.017 174.024 215.702 171.584C215.332 168.736 214.903 167.033 215.35 163.64C215.798 160.248 217.758 155.441 217.73 155.079C217.703 154.717 217.292 152.991 213.24 152.959C209.188 152.932 205.721 153.742 205.314 154.813C204.908 155.885 204.127 158.297 203.642 160.816C202.934 164.497 195.552 177.632 191.363 184.499C189.993 181.816 188.828 179.454 188.586 177.586C188.216 174.738 187.787 173.035 188.234 169.643C188.682 166.25 190.642 161.443 190.614 161.081C190.587 160.719 190.176 158.993 186.124 158.961C182.072 158.934 178.605 159.744 178.198 160.816C177.792 161.887 177.353 164.391 176.526 166.818C175.695 169.24 165.887 191.147 163.315 196.829C162.004 199.722 160.867 202.048 160.063 203.632C160.058 203.628 160.058 203.623 160.058 203.623C160.058 203.623 160.008 203.728 159.926 203.907C159.236 205.257 158.829 206.004 158.829 206.004C158.829 206.004 158.834 206.013 158.843 206.031C158.295 207.025 157.71 207.945 157.422 207.945C157.221 207.945 156.815 205.303 157.509 201.677C158.971 194.077 162.475 182.228 162.443 181.816C162.424 181.606 163.096 179.541 160.154 178.46C157.294 177.412 156.276 179.161 156.015 179.165C155.764 179.17 155.577 179.784 155.577 179.784C155.577 179.784 158.761 166.456 149.501 166.456C143.709 166.456 135.687 172.806 131.736 178.561C129.242 179.925 123.902 182.846 118.242 185.964C116.067 187.164 113.847 188.386 111.741 189.549C111.6 189.389 111.454 189.233 111.307 189.073C100.074 177.064 79.317 168.571 80.1941 152.423C80.5139 146.554 82.5512 131.098 120.087 112.354C150.835 96.9982 175.453 101.224 179.706 110.587C185.781 123.969 166.549 148.834 134.618 152.423C122.454 153.792 116.045 149.063 114.45 147.305C112.774 145.451 112.523 145.368 111.897 145.716C110.878 146.284 111.522 147.918 111.897 148.894C112.851 151.38 116.762 155.789 123.431 157.986C129.301 159.918 143.586 160.976 160.858 154.278C180.208 146.778 195.315 125.91 190.875 108.471C186.361 90.735 157.016 84.9022 129.242 94.7914C112.692 100.679 94.7983 109.918 81.93 121.978C66.6314 136.317 64.192 148.802 65.197 154.017C68.7693 172.55 94.2547 184.618 104.46 193.56C103.957 193.839 103.482 194.1 103.053 194.338C97.9366 196.874 78.5085 207.066 73.648 217.829C68.1343 230.04 74.5251 238.803 78.7551 239.984C91.861 243.638 105.31 237.063 112.541 226.258C119.768 215.458 118.886 201.389 115.569 194.97C115.528 194.892 115.483 194.814 115.442 194.732C116.762 193.949 118.109 193.152 119.443 192.365C122.047 190.831 124.605 189.403 126.821 188.194C125.578 191.6 124.669 195.689 124.199 201.59C123.641 208.522 126.478 217.482 130.187 221.007C131.823 222.559 133.787 222.596 135.03 222.596C139.346 222.596 141.315 218.997 143.485 214.739C146.144 209.52 148.505 203.44 148.505 203.44C148.505 203.44 145.545 219.858 153.613 219.858C156.554 219.858 159.51 216.035 160.83 214.089C160.835 214.112 160.835 214.121 160.835 214.121C160.835 214.121 160.912 213.993 161.063 213.741C161.369 213.274 161.543 212.976 161.543 212.976C161.543 212.976 161.547 212.944 161.557 212.889C162.74 210.834 165.362 206.146 169.29 198.413C174.37 188.423 179.24 175.906 179.24 175.906C179.24 175.906 179.692 178.964 181.176 184.028C182.049 187.004 183.904 190.295 185.37 193.454C184.191 195.094 183.47 196.032 183.47 196.032C183.47 196.032 183.474 196.05 183.488 196.082C182.547 197.337 181.492 198.687 180.386 200.006C176.375 204.79 171.602 210.257 170.962 211.832C170.208 213.691 170.387 215.055 171.844 216.158C172.908 216.96 174.799 217.088 176.777 216.955C180.382 216.712 182.912 215.815 184.164 215.27C186.115 214.579 188.385 213.494 190.514 211.923C194.447 209.025 196.818 204.882 196.589 199.388C196.461 196.362 195.502 193.363 194.282 190.533C194.639 190.021 194.995 189.499 195.356 188.977C201.555 179.893 206.365 169.913 206.365 169.913C206.365 169.913 206.817 172.971 208.302 178.035C209.051 180.594 210.536 183.391 211.87 186.129C206.041 190.877 202.427 196.394 201.171 200.011C198.85 206.704 200.669 209.735 204.076 210.426C205.62 210.738 207.804 210.028 209.444 209.332C211.486 208.655 213.939 207.524 216.232 205.834C220.165 202.936 223.948 198.88 223.719 193.39C223.614 190.891 222.938 188.409 222.02 186.028C226.963 183.964 233.358 182.819 241.507 183.771C258.989 185.818 262.416 196.755 261.762 201.334C261.105 205.912 257.441 208.43 256.212 209.19C254.988 209.95 254.613 210.216 254.714 210.779C254.864 211.598 255.431 211.571 256.477 211.392C257.916 211.15 265.654 207.67 265.988 199.219C266.404 188.478 256.148 176.693 237.981 176.789ZM103.236 222.316C97.4432 228.648 89.3577 231.038 85.8859 229.024C82.1401 226.849 83.6247 217.527 90.7281 210.806C95.0587 206.713 100.65 202.941 104.359 200.62C105.204 200.111 106.442 199.365 107.95 198.459C108.201 198.317 108.343 198.239 108.343 198.239L108.338 198.23C108.631 198.056 108.927 197.877 109.234 197.689C111.824 207.254 109.316 215.673 103.236 222.316ZM145.422 193.578C143.407 198.504 139.187 211.113 136.615 210.435C134.408 209.854 133.065 200.272 136.176 190.84C137.738 186.092 141.082 180.42 143.047 178.218C146.208 174.674 149.689 173.516 150.534 174.953C151.607 176.785 146.687 190.488 145.422 193.578ZM180.272 210.243C179.418 210.692 178.632 210.971 178.271 210.756C178.002 210.596 178.623 210.005 178.623 210.005C178.623 210.005 182.981 205.303 184.698 203.165C185.699 201.92 186.855 200.441 188.115 198.793C188.125 198.958 188.129 199.122 188.129 199.283C188.12 204.914 182.693 208.714 180.272 210.243ZM207.119 204.108C206.479 203.655 206.589 202.185 208.686 197.602C209.508 195.803 211.39 192.777 214.652 189.883C215.031 191.074 215.259 192.214 215.254 193.276C215.213 200.363 210.17 203.009 207.119 204.108Z" fill="#F06292"/>
<defs>
<linearGradient id="paint0_linear_285_102" x1="165" y1="3.57628e-07" x2="177" y2="448" gradientUnits="userSpaceOnUse">
<stop stop-color="#DD5E89"/>
<stop offset="1" stop-color="#F7BB97" stop-opacity="0"/>
</linearGradient>
</defs>
</svg>
