<svg width="330" height="330" viewBox="0 0 330 330" fill="none" xmlns="http://www.w3.org/2000/svg">
<path d="M0 20C0 8.95431 8.95431 0 20 0H310C321.046 0 330 8.95431 330 20V310C330 321.046 321.046 330 310 330H20C8.95431 330 0 321.046 0 310V20Z" fill="url(#paint0_linear_285_101)"/>
<path d="M32.0112 204.646H42.7312V165.088L57.6219 198.906C59.4588 203.121 61.9713 204.612 66.9014 204.612C71.8315 204.612 74.2435 203.121 76.0804 198.906L90.9712 165.953V204.646H101.691V164.122C101.691 160.23 100.145 158.343 96.9509 157.372C89.3185 154.971 84.193 157.042 81.8759 162.24L66.6055 196.634L51.8153 162.24C49.5931 157.048 44.3783 154.971 36.7403 157.372C33.5466 158.343 32 160.225 32 164.116V204.64H32.0112V204.646Z" fill="#00796B"/>
<path d="M107.046 172.486H117.766V195.126C117.682 196.243 118.123 199.207 123.293 199.286C125.929 199.33 139.044 199.286 139.206 199.286V172.486H149.926C149.971 172.486 149.926 205.807 149.926 205.946C149.982 214.165 139.72 215.226 135.002 215.366H107.051V210.006C107.107 210.006 133.779 210.011 133.857 210.006C139.932 209.364 139.211 206.019 139.211 205.003V204.646H122.394C113.07 204.562 107.124 200.453 107.057 195.768C107.046 195.333 107.258 172.687 107.046 172.486Z" fill="#00796B"/>
<path d="M155.285 204.646H182.124C185.642 204.646 189.059 203.909 191.772 202.636C196.295 200.559 198.16 197.75 198.16 194.06V186.422C198.16 178.181 187.942 177.846 182.08 177.846H171.36C167.144 177.846 166.502 175.3 166 172.486V167.126C166.502 164.982 167.44 162.101 171.153 161.766C175.469 161.766 198.154 161.766 198.154 161.766V156.406H172.661C168.445 156.406 155.274 156.908 155.274 167.126V173.753C155.274 178.443 159.395 182.262 168.339 183.2C169.344 183.267 170.349 183.334 171.349 183.334C171.349 183.334 181.767 183.133 182.069 183.2C188.099 183.2 187.429 187.89 187.429 188.56V193.92C187.429 194.657 187.261 199.28 182.007 199.28C181.605 199.28 155.269 199.28 155.269 199.28V204.646H155.285Z" fill="#F57F17"/>
<path d="M257.12 193.697C257.12 200.168 260.777 203.797 270.475 204.523C271.38 204.584 272.29 204.64 273.2 204.64H300V199.28H275.238C269.705 199.28 267.84 196.957 267.84 193.635V156.4H257.12V193.697Z" fill="#F57F17"/>
<path d="M203.431 193.926V167.126C203.431 161.431 206.222 157.5 214.128 156.406H217.88H237.126H240.057C247.963 157.5 251.671 161.425 251.671 167.126V193.825C251.671 198.442 250.47 200.921 246.556 202.529L254.864 210H242.804L236.83 204.64H229.812L217.886 204.707C216.161 204.707 214.34 204.467 212.342 203.92C206.345 202.284 203.431 199.135 203.431 193.926ZM214.151 193.926C214.698 196.533 216.792 199.286 220.516 199.286H230.923L224.96 193.926H237.104L240.002 196.617C240.002 196.617 241.04 195.768 241.04 193.926C241.04 192.083 240.951 167.126 240.951 167.126C240.403 164.702 237.947 161.766 234.318 161.766H220.521C216.339 161.766 214.156 164.825 214.156 167.673L214.151 193.926Z" fill="#F57F17"/>
<path d="M289.945 150.755C284.188 150.599 279.794 151.135 276.036 152.715C274.97 153.167 273.267 153.178 273.088 154.518C273.675 155.133 273.764 156.054 274.233 156.808C275.126 158.259 276.645 160.208 277.996 161.224C279.476 162.341 281 163.535 282.58 164.501C285.394 166.215 288.538 167.198 291.251 168.918C292.848 169.928 294.434 171.213 295.997 172.352C296.767 172.921 297.281 173.798 298.286 174.155C298.286 174.099 298.286 174.049 298.286 173.993C297.761 173.323 297.622 172.402 297.141 171.698C296.432 170.989 295.723 170.28 295.014 169.571C292.937 166.813 290.291 164.384 287.488 162.374C285.249 160.766 280.241 158.594 279.303 155.992C279.247 155.937 279.197 155.886 279.135 155.825C280.721 155.646 282.58 155.071 284.043 154.68C286.505 154.021 288.699 154.195 291.24 153.536C292.384 153.206 293.529 152.882 294.674 152.553C294.674 152.335 294.674 152.118 294.674 151.9C293.389 150.582 292.468 148.84 291.072 147.645C287.404 144.524 283.406 141.409 279.292 138.807C277.008 137.366 274.183 136.428 271.765 135.206C270.95 134.792 269.521 134.58 268.985 133.899C267.712 132.28 267.025 130.22 266.042 128.338C263.988 124.385 261.966 120.064 260.152 115.904C258.907 113.068 258.097 110.265 256.551 107.719C249.119 95.5026 241.118 88.127 228.734 80.8798C226.099 79.3388 222.922 78.7302 219.567 77.9318C217.763 77.8257 215.965 77.7141 214.162 77.6024C213.062 77.139 211.923 75.799 210.885 75.1457C206.781 72.5495 196.251 66.9103 193.213 74.325C191.293 79.0038 196.083 83.571 197.797 85.9439C198.998 87.6077 200.539 89.4726 201.398 91.3486C201.962 92.5769 202.063 93.8108 202.543 95.1117C203.732 98.3166 205.614 101.968 207.155 104.933C207.931 106.435 208.791 108.009 209.773 109.349C210.376 110.17 211.409 110.533 211.577 111.806C210.566 113.218 210.51 115.413 209.941 117.211C207.384 125.278 208.35 135.301 212.068 141.264C213.207 143.095 215.898 147.026 219.595 145.518C222.827 144.2 222.107 140.119 223.028 136.518C223.235 135.703 223.106 135.105 223.52 134.558C223.52 134.614 223.52 134.664 223.52 134.725C224.502 136.685 225.479 138.656 226.468 140.616C228.651 144.128 232.52 147.796 235.792 150.275C237.489 151.559 238.829 153.781 241.029 154.53C241.029 154.474 241.029 154.423 241.029 154.362C240.973 154.362 240.923 154.362 240.861 154.362C240.437 153.698 239.767 153.424 239.226 152.888C237.947 151.632 236.518 150.074 235.462 148.634C232.481 144.586 229.846 140.152 227.445 135.541C226.3 133.335 225.301 130.912 224.335 128.668C223.961 127.802 223.966 126.496 223.19 126.049C222.129 127.69 220.577 129.019 219.756 130.957C218.45 134.055 218.277 137.841 217.797 141.755C217.506 141.855 217.635 141.788 217.467 141.917C215.189 141.364 214.385 139.025 213.537 137.009C211.393 131.917 210.996 123.721 212.883 117.864C213.369 116.345 215.575 111.571 214.687 110.17C214.262 108.769 212.855 107.959 212.074 106.893C211.097 105.575 210.131 103.833 209.455 102.309C207.702 98.3389 206.038 93.7215 204.19 89.7071C203.308 87.7864 201.817 85.849 200.589 84.1461C199.232 82.2589 197.708 80.8687 196.658 78.5851C196.284 77.7755 195.776 76.4746 196.329 75.6371C196.507 75.0732 196.753 74.8386 197.311 74.6544C198.261 73.9174 200.902 74.8945 201.895 75.3077C204.52 76.3964 206.708 77.4349 208.93 78.9089C209.997 79.618 211.074 80.9859 212.364 81.3656C212.855 81.3656 213.347 81.3656 213.838 81.3656C216.144 81.896 218.724 81.5331 220.873 82.1863C224.681 83.3421 228.087 85.1399 231.18 87.0941C240.616 93.0515 248.326 101.527 253.603 111.644C254.451 113.274 254.82 114.826 255.562 116.552C257.07 120.036 258.974 123.62 260.47 127.026C261.966 130.426 263.429 133.854 265.545 136.685C266.662 138.17 270.961 138.969 272.91 139.795C274.278 140.376 276.522 140.973 277.818 141.755C280.297 143.251 282.697 145.032 285.014 146.663C286.198 147.483 289.766 149.276 289.945 150.755Z" fill="#00796B"/>
<path d="M216.798 88.4119C215.597 88.3895 214.749 88.5403 213.85 88.7413C213.85 88.7971 213.85 88.8474 213.85 88.9088C213.905 88.9088 213.956 88.9088 214.017 88.9088C214.592 90.0813 215.597 90.8462 216.306 91.8568C216.853 93.0014 217.395 94.146 217.942 95.2905C217.998 95.2347 218.048 95.1845 218.104 95.1286C219.115 94.4139 219.584 93.275 219.578 91.5274C219.171 91.0975 219.109 90.5615 218.757 90.0534C218.288 89.3666 217.384 88.9814 216.798 88.4119Z" fill="#00796B"/>
<defs>
<linearGradient id="paint0_linear_285_101" x1="10.5" y1="-9.73842e-06" x2="365" y2="409" gradientUnits="userSpaceOnUse">
<stop stop-color="#00C3FF"/>
<stop offset="1" stop-color="#FFFF1C" stop-opacity="0"/>
<stop offset="1" stop-color="#F8FFAE" stop-opacity="0"/>
</linearGradient>
</defs>
</svg>
