<svg width="330" height="330" viewBox="0 0 330 330" fill="none" xmlns="http://www.w3.org/2000/svg">
<rect width="330" height="330" rx="20" fill="url(#paint0_linear_285_99)"/>
<path d="M80.6712 87.6375L97.7525 229.031C98.3587 234.041 101.931 238.203 106.815 239.591L161.612 255.144C163.828 255.772 166.174 255.788 168.399 255.184L226.031 239.572C231.074 238.206 234.746 233.894 235.265 228.725L249.481 87.5156C249.853 83.825 246.937 80.625 243.203 80.625H86.9337C83.1525 80.625 80.2181 83.9094 80.6712 87.6375Z" fill="#F6D397"/>
<path d="M228.616 96.25H165V240C165.931 240.006 166.859 239.878 167.766 239.616L214.647 225.956C218.75 224.763 221.738 220.988 222.159 216.466L233.725 102.281C234.025 99.05 231.653 96.25 228.616 96.25Z" fill="#F9E3AE"/>
<path d="M165.078 258.75C163.625 258.75 162.172 258.55 160.759 258.153L105.959 242.597C99.8469 240.859 95.4063 235.681 94.65 229.406L77.5657 88.0125C77.2438 85.3562 78.0813 82.6844 79.8563 80.6781C81.65 78.6594 84.2282 77.5 86.9344 77.5H243.206C245.875 77.5 248.431 78.6344 250.219 80.6094C251.991 82.5719 252.859 85.2031 252.594 87.8313L238.375 229.038C237.731 235.447 233.1 240.894 226.85 242.587L169.219 258.2C167.863 258.566 166.472 258.75 165.078 258.75ZM86.9344 83.75C86.0032 83.75 85.1532 84.1312 84.5375 84.825C83.9375 85.5031 83.6657 86.3688 83.775 87.2625L100.859 228.656C101.316 232.425 103.988 235.538 107.672 236.584L162.469 252.137C164.134 252.612 165.916 252.622 167.584 252.166L225.216 236.553C228.981 235.534 231.772 232.259 232.159 228.412L246.375 87.2031C246.463 86.3156 246.181 85.4625 245.584 84.8C244.969 84.1219 244.122 83.75 243.203 83.75H86.9344Z" fill="#8D6C9F"/>
<path d="M243.125 102.5C241.397 102.5 240 101.1 240 99.375V93.125C240 91.4 241.397 90 243.125 90C244.853 90 246.25 91.4 246.25 93.125V99.375C246.25 101.1 244.853 102.5 243.125 102.5ZM227.5 102.5C225.772 102.5 224.375 101.1 224.375 99.375V93.125C224.375 91.4 225.772 90 227.5 90C229.228 90 230.625 91.4 230.625 93.125V99.375C230.625 101.1 229.228 102.5 227.5 102.5ZM211.875 102.5C210.147 102.5 208.75 101.1 208.75 99.375V93.125C208.75 91.4 210.147 90 211.875 90C213.603 90 215 91.4 215 93.125V99.375C215 101.1 213.603 102.5 211.875 102.5ZM196.25 102.5C194.522 102.5 193.125 101.1 193.125 99.375V93.125C193.125 91.4 194.522 90 196.25 90C197.978 90 199.375 91.4 199.375 93.125V99.375C199.375 101.1 197.978 102.5 196.25 102.5ZM180.625 102.5C178.897 102.5 177.5 101.1 177.5 99.375V93.125C177.5 91.4 178.897 90 180.625 90C182.353 90 183.75 91.4 183.75 93.125V99.375C183.75 101.1 182.353 102.5 180.625 102.5ZM165 102.5C163.272 102.5 161.875 101.1 161.875 99.375V93.125C161.875 91.4 163.272 90 165 90C166.728 90 168.125 91.4 168.125 93.125V99.375C168.125 101.1 166.728 102.5 165 102.5ZM149.375 102.5C147.647 102.5 146.25 101.1 146.25 99.375V93.125C146.25 91.4 147.647 90 149.375 90C151.103 90 152.5 91.4 152.5 93.125V99.375C152.5 101.1 151.103 102.5 149.375 102.5ZM133.75 102.5C132.022 102.5 130.625 101.1 130.625 99.375V93.125C130.625 91.4 132.022 90 133.75 90C135.478 90 136.875 91.4 136.875 93.125V99.375C136.875 101.1 135.478 102.5 133.75 102.5ZM118.125 102.5C116.397 102.5 115 101.1 115 99.375V93.125C115 91.4 116.397 90 118.125 90C119.853 90 121.25 91.4 121.25 93.125V99.375C121.25 101.1 119.853 102.5 118.125 102.5ZM102.5 102.5C100.772 102.5 99.375 101.1 99.375 99.375V93.125C99.375 91.4 100.772 90 102.5 90C104.228 90 105.625 91.4 105.625 93.125V99.375C105.625 101.1 104.228 102.5 102.5 102.5ZM86.875 102.5C85.1469 102.5 83.75 101.1 83.75 99.375V93.125C83.75 91.4 85.1469 90 86.875 90C88.6031 90 90 91.4 90 93.125V99.375C90 101.1 88.6031 102.5 86.875 102.5Z" fill="#8D6C9F"/>
<path d="M140 124.375C140 150.416 140 176.459 140 202.5C130.625 200.416 121.25 198.334 111.875 196.25C112.516 202.5 113.156 208.75 113.797 215C127.741 218.975 141.681 222.947 155.625 226.922V124.375C150.416 124.375 145.209 124.375 140 124.375Z" fill="#FAEFDE"/>
<path d="M220.691 140.15L222.05 124.375C206.159 124.375 190.266 124.375 174.375 124.375C174.375 147.291 174.375 170.209 174.375 193.125C183.694 190.972 193.012 188.819 202.331 186.669L201.344 201.459C192.356 203.887 183.366 206.319 174.375 208.75C174.375 215 174.375 221.25 174.375 227.5C187.637 223.691 200.9 219.884 214.162 216.075L218.319 167.759C208.881 168.922 199.441 170.087 190 171.25C190 160.834 190 150.416 190 140C200.231 140.05 210.459 140.1 220.691 140.15Z" fill="#FAEFDE"/>
<path d="M155.625 230.047C155.337 230.047 155.05 230.006 154.769 229.928L112.941 218.006C111.709 217.656 110.819 216.591 110.687 215.319L108.766 196.569C108.666 195.569 109.05 194.581 109.797 193.916C110.55 193.247 111.569 192.981 112.553 193.2L136.875 198.603V124.375C136.875 122.65 138.272 121.25 140 121.25H155.625C157.353 121.25 158.75 122.65 158.75 124.375V226.922C158.75 227.9 158.291 228.825 157.509 229.416C156.959 229.831 156.297 230.047 155.625 230.047ZM116.691 212.575L152.5 222.781V127.5H143.125V202.5C143.125 203.447 142.694 204.344 141.956 204.937C141.216 205.531 140.25 205.756 139.322 205.55L115.425 200.241L116.691 212.575Z" fill="#8D6C9F"/>
<path d="M174.375 230.625C173.703 230.625 173.044 230.409 172.494 229.997C171.709 229.406 171.25 228.481 171.25 227.5V208.75C171.25 207.338 172.197 206.1 173.559 205.734L198.372 199.025L198.931 190.659L175.075 196.169C174.159 196.391 173.178 196.166 172.428 195.572C171.678 194.978 171.25 194.078 171.25 193.125V124.375C171.25 122.65 172.647 121.25 174.375 121.25H222.053C222.928 121.25 223.766 121.619 224.356 122.262C224.947 122.909 225.241 123.772 225.166 124.644L223.803 140.419C223.666 142.041 222.175 143.375 220.675 143.275L193.125 143.141V167.716L217.937 164.656C218.862 164.544 219.809 164.853 220.488 165.506C221.166 166.159 221.512 167.084 221.431 168.025L217.275 216.341C217.166 217.631 216.269 218.719 215.025 219.075L175.238 230.497C174.956 230.584 174.666 230.625 174.375 230.625ZM177.5 211.144V223.353L211.234 213.666L214.875 171.334L190.381 174.353C189.503 174.459 188.603 174.184 187.931 173.591C187.259 172.997 186.875 172.147 186.875 171.25V140C186.875 139.169 187.206 138.372 187.797 137.784C188.387 137.197 189.088 136.891 190.016 136.875L217.825 137.013L218.647 127.5H177.5V189.197L201.631 183.625C202.591 183.397 203.606 183.647 204.359 184.291C205.113 184.931 205.516 185.891 205.453 186.878L204.466 201.669C204.378 203 203.45 204.128 202.162 204.475L177.5 211.144Z" fill="#8D6C9F"/>
<defs>
<linearGradient id="paint0_linear_285_99" x1="165" y1="0" x2="165" y2="330" gradientUnits="userSpaceOnUse">
<stop stop-color="#F0BD66"/>
<stop offset="1" stop-color="#ECFA99"/>
</linearGradient>
</defs>
</svg>
