<svg width="150" height="150" viewBox="0 0 150 150" fill="none" xmlns="http://www.w3.org/2000/svg">
<g clip-path="url(#clip0_160_1020)">
<path d="M74.7267 149.088C115.922 149.088 149.318 117.144 149.318 77.7399C149.318 38.3356 115.922 6.39209 74.7267 6.39209C33.5312 6.39209 0.135742 38.3356 0.135742 77.7399C0.135742 117.144 33.5312 149.088 74.7267 149.088Z" fill="#201B19"/>
<path d="M74.7267 143.87C115.922 143.87 149.318 111.926 149.318 72.5221C149.318 33.1178 115.922 1.17432 74.7267 1.17432C33.5312 1.17432 0.135742 33.1178 0.135742 72.5221C0.135742 111.926 33.5312 143.87 74.7267 143.87Z" fill="#F99FB7"/>
<path d="M74.7279 144.131C33.4097 144.131 -0.135742 112.044 -0.135742 72.5223C-0.135742 33.0005 33.5461 0.913574 74.7279 0.913574C115.91 0.913574 149.592 33.0005 149.592 72.5223C149.592 112.044 116.046 144.131 74.7279 144.131ZM74.7279 3.39183C34.9097 3.39183 2.45517 34.4353 2.45517 72.5223C2.45517 110.609 34.9097 141.783 74.8643 141.783C114.819 141.783 147.273 110.74 147.273 72.5223C147.273 34.3049 114.682 3.39183 74.7279 3.39183Z" fill="#201B19"/>
<path d="M113.182 75.5211C113.182 77.7385 113.046 79.8254 112.637 81.9124C111.273 89.0863 107.318 92.8689 102.273 94.4341C100.637 94.9558 98.8638 95.2167 97.091 95.3471C94.2274 95.608 91.5001 95.2167 88.9092 94.0428C86.3183 92.9993 84.0001 91.3037 82.3638 89.0863C80.3183 86.4776 78.9547 83.4776 78.4092 80.2167C78.0001 78.6515 77.8638 77.0863 77.8638 75.5211C77.7274 66.5211 81.682 60.3906 87.4092 57.5211C87.8183 57.2602 87.682 57.5211 88.091 57.3906C88.3638 57.5211 88.5001 57.9124 88.7729 58.0428C93.4092 61.4341 98.7274 64.9558 104.182 66.9124C105.818 67.4341 107.455 67.4341 109.227 67.8254L111.955 68.4776C112.364 69.3906 112.227 69.1298 112.5 70.1732C112.637 70.5645 112.773 70.9558 112.773 71.3471C112.909 71.7385 113.046 72.2602 113.046 72.7819C113.182 73.695 113.182 74.608 113.182 75.5211Z" fill="#FFF3F0"/>
<g opacity="0.1">
<path opacity="0.1" d="M51.2742 96.26C49.2288 96.1296 47.3197 95.7383 45.4106 95.2166C42.9561 94.434 40.9106 92.9992 39.1379 91.1731C37.3651 89.347 36.1379 87.1296 35.5924 84.7818C35.4561 84.5209 35.3197 84.26 35.3197 83.9992V83.8687C35.1833 83.2166 35.047 82.5644 34.9106 82.0427C34.6379 81.1296 34.3651 80.2166 33.9561 79.3035C34.0924 78.1296 34.2288 76.8253 34.5015 75.6514C34.7742 74.6079 35.047 73.5644 35.3197 72.5209L35.4561 72.2601C35.7288 71.8687 36.0015 71.6079 36.4106 71.4774H36.547C36.9561 71.347 37.5015 71.4774 37.7742 71.7383C38.1833 71.8687 38.3197 72.26 38.5924 72.5209C38.7288 72.9122 38.7288 73.3035 38.7288 73.5644C37.7742 78.3905 37.0924 84.5209 39.9561 88.8253C41.8651 91.1731 44.1833 93.1296 46.7742 94.5644C46.9106 94.6948 47.047 94.6948 47.1833 94.8253C47.3197 94.8253 47.3197 94.9557 47.4561 94.9557L47.7288 95.0861C48.2742 95.347 48.8197 95.6079 49.2288 95.7383C49.9106 95.8687 50.5924 96.1296 51.2742 96.26Z" fill="#0A0A0A"/>
</g>
<path d="M71.1811 76.0432C71.1811 79.5649 70.2266 83.0866 68.5902 86.3475L68.4538 86.7388L68.1811 87.1301C67.9084 87.391 67.772 87.7823 67.4993 88.0432C66.272 90.1301 64.6356 91.9562 62.4538 93.391C60.4084 94.6953 57.9538 95.6084 55.3629 95.7388C55.2266 95.6084 54.6811 95.8692 54.5447 95.7388C54.4084 95.8692 54.272 95.7388 54.1357 95.8692H53.4538H53.1811C52.9084 95.8692 52.6357 95.8692 52.2266 95.8692C51.1356 95.8692 50.1811 95.7388 49.2266 95.6084C42.272 94.4345 36.6811 89.9997 35.8629 79.9562C35.7266 78.7823 35.7266 77.4779 35.7266 76.1736C35.7266 75.7823 35.7266 75.5214 35.7266 75.1301C35.8629 73.8258 35.9993 72.6519 36.4084 71.4779C36.4084 71.3475 36.4084 71.2171 36.5447 71.0866C36.6811 70.9562 36.5447 70.9562 36.5447 70.9562C36.6811 70.6953 36.6811 70.4345 36.8175 70.1736C37.0902 69.391 37.3629 68.6084 37.772 67.8258L39.272 67.5649C39.4084 67.5649 39.5447 67.5649 39.8175 67.4345C46.2266 65.8692 52.2266 63.2606 57.6811 59.6084C58.4993 59.0866 59.1811 58.5649 59.9993 58.0432C60.1357 57.9127 60.4084 57.7823 60.5447 57.6519C60.9538 57.7823 61.3629 57.9127 61.6357 58.1736C67.3629 60.9127 71.3175 67.1736 71.1811 76.0432Z" fill="#FFF3F0"/>
<path d="M36.6816 81.6516C38.727 88.5647 39.8179 94.4342 52.4997 95.869C52.9088 95.869 54.4088 95.3473 53.9997 95.3473C43.0906 95.3473 38.4543 82.5647 41.727 69.1299C40.6361 69.3908 39.5452 69.6516 38.4543 70.0429H36.8179C36.8179 70.0429 36.6816 70.0429 36.6816 70.1734L36.5452 70.3038L36.2725 80.0864C36.4088 80.6081 36.5452 81.1299 36.6816 81.6516Z" fill="#F4DCD9"/>
<path d="M67.3643 87.3899C67.5006 87.2595 67.5006 86.9986 67.637 86.8682C67.637 86.9986 67.5006 87.129 67.3643 87.3899Z" fill="#0A0A0A"/>
<path d="M71.8625 76.0426C71.8625 79.5643 70.908 83.0861 69.1352 86.2165C69.1352 86.347 68.9989 86.4774 68.9989 86.4774L68.8625 86.8687C68.7261 87.1296 68.5898 87.5209 68.317 87.7817C66.9534 90.1296 65.0443 92.0861 62.7261 93.6513C60.408 95.0861 57.6807 95.9991 54.9534 96.26C54.5443 96.26 54.2716 96.3904 53.9989 96.3904H53.0443H52.2261C51.9534 96.3904 51.5443 96.3904 51.2716 96.3904C49.2261 96.26 47.317 95.8687 45.408 95.347C42.9534 94.5643 40.7716 93.1296 39.1352 91.3035C37.3625 89.4774 36.1352 87.26 35.5898 84.9122C35.4534 84.6513 35.4534 84.26 35.317 83.9991C35.1807 83.347 35.0443 82.6948 34.908 82.173C34.7716 81.6513 34.7716 80.9991 34.6352 80.4774C34.4989 78.9122 34.3625 77.347 34.4989 75.7817C34.4989 74.7383 34.6352 73.6948 34.908 72.6513C35.0443 72.26 35.0443 71.8687 35.1807 71.4774C35.4534 70.6948 35.5898 69.9122 35.9989 69.26C36.1352 68.9991 36.1352 68.7383 36.2716 68.4774C36.817 68.347 37.3625 68.347 37.908 68.2165L39.5443 67.8252V67.9556C39.1352 68.7383 38.8625 69.5209 38.5898 70.3035C38.5898 70.4339 38.4534 70.6948 38.4534 70.8252C38.317 70.9557 38.1807 71.4774 38.1807 71.8687C37.7716 73.5643 37.4989 75.1296 37.4989 76.8252C37.2261 83.6078 38.9989 91.4339 46.2261 94.4339C46.4989 94.5643 46.7716 94.6948 47.0443 94.6948C48.9534 95.347 50.8625 95.7383 52.908 95.8687H53.0443C53.317 95.8687 53.5898 95.8687 53.7261 95.8687H54.2716H54.5443H54.817H54.5443C57.1352 95.6078 59.7261 94.6948 61.908 93.26C64.0898 91.8252 65.9989 89.9991 67.3625 87.7817C67.4989 87.6513 67.4989 87.3904 67.6352 87.26C67.7716 87.1296 67.7716 86.9991 67.908 86.8687V86.7383C69.5443 83.6078 70.4989 80.0861 70.4989 76.4339C70.6352 69.26 68.317 62.0861 61.0898 58.9557C60.9534 58.9557 60.817 58.8252 60.6807 58.8252C60.408 58.6948 60.1352 58.6948 59.8625 58.5643H59.7261C59.9989 58.4339 60.1352 58.3035 60.2716 58.173L60.817 57.7817L61.0898 57.9122L61.908 58.3035C68.7261 61.3035 71.9989 68.9991 71.8625 76.0426Z" fill="#0A0A0A"/>
<path d="M65.864 54C64.6367 55.3044 63.4094 56.4783 62.1822 57.6522C62.0458 57.7826 61.9094 57.9131 61.7731 58.0435L61.2276 58.4348C55.5004 63.2609 48.8185 67.0435 41.5913 69.3913C40.5004 69.7826 39.2731 70.0435 38.1822 70.4348C37.6367 70.5652 37.0913 70.6957 36.6822 70.8261C36.1367 70.9565 35.7276 71.087 35.1822 71.087C33.6822 71.3478 32.1822 71.6087 30.5458 71.7392C30.2731 71.7392 30.1367 71.7392 29.864 71.7392C29.5913 71.7392 29.4549 71.6087 29.3185 71.4783C29.1822 71.3478 29.0458 71.2174 28.9094 70.9565C28.7731 70.8261 28.6367 70.6957 28.6367 70.4348C28.6367 70.1739 28.6367 70.0435 28.6367 69.7826C28.6367 69.5218 28.7731 69.3913 28.9094 69.2609C29.0458 69.1305 29.1822 69 29.4549 68.8696C29.5913 68.7392 29.864 68.7392 30.1367 68.7392C32.1822 68.6087 34.0913 68.4783 36.1367 68.087L37.7731 67.8261L39.4094 67.4348C39.5458 67.4348 39.6822 67.4348 39.9549 67.3044C46.364 65.7391 52.364 63.1305 57.8185 59.4783C58.6367 58.9565 59.3185 58.4348 60.1367 57.9131C60.2731 57.7826 60.5458 57.6522 60.6822 57.3913L61.2276 57L61.7731 56.6087C63.0004 55.5652 64.2276 54.5218 65.4549 53.3479C65.5913 53.2174 66.1367 53.6087 65.864 54Z" fill="#0A0A0A"/>
<path d="M61.2275 74.4773C62.4548 74.4773 63.5457 74.086 64.5003 73.4338C65.4548 72.7816 66.273 71.8686 66.6821 70.8251C67.0912 69.7816 67.2275 68.6077 66.9548 67.5642C66.8184 66.5208 66.273 65.4773 65.4548 64.6947C64.6366 63.9121 63.5457 63.3903 62.3184 63.1295C61.0912 62.8686 60.0003 62.999 58.9094 63.5208C57.8184 63.9121 56.8639 64.6947 56.1821 65.6077C55.5003 66.5208 55.2275 67.6947 55.2275 68.7382C55.2275 69.5208 55.3639 70.3034 55.6366 70.9555C55.9094 71.6077 56.4548 72.2599 57.0003 72.7816C57.5457 73.3034 58.2275 73.6947 58.9094 74.086C59.7275 74.3468 60.4094 74.4773 61.2275 74.4773Z" fill="#0A0A0A"/>
<path d="M61.5005 73.5642C62.4551 73.5642 63.546 73.3034 64.3642 72.6512C65.1823 72.1295 65.8642 71.3468 66.2733 70.4338C66.6823 69.5208 66.6823 68.6077 66.546 67.5642C66.2733 66.6512 65.8642 65.7381 65.1823 65.086C64.5005 64.4338 63.546 63.9121 62.5914 63.7816C61.6369 63.6512 60.546 63.6512 59.5914 64.0425C58.6369 64.4338 57.8187 65.086 57.2733 65.8686C56.7278 66.6512 56.4551 67.5642 56.4551 68.6077C56.4551 69.2599 56.5914 69.9121 56.8642 70.5642C57.1369 71.2164 57.546 71.7382 57.9551 72.1295C58.5005 72.6512 59.046 72.9121 59.5914 73.1729C60.1369 73.4338 60.8187 73.5642 61.5005 73.5642Z" fill="#F99FB7"/>
<path opacity="0.3" d="M56.5908 70.4335L61.0908 68.6074L57.2726 71.6074L56.5908 70.4335Z" fill="white"/>
<path opacity="0.3" d="M60.8184 73.4337L62.0456 71.2163L61.9093 73.4337H60.8184Z" fill="white"/>
<path opacity="0.3" d="M57.6825 65.2168L59.728 66.5211L57.2734 65.869L57.6825 65.2168Z" fill="white"/>
<path d="M62.5905 70.695C63.1359 70.695 63.8177 70.5646 64.2268 70.1733C64.7723 69.9124 65.045 69.3907 65.3177 68.8689C65.5905 68.3472 65.5905 67.695 65.4541 67.1733C65.3177 66.6515 65.045 66.1298 64.6359 65.7385C64.2268 65.3472 63.6814 65.0863 63.1359 64.9559C62.5905 64.8254 61.9086 64.9559 61.3632 65.0863C60.8177 65.3472 60.2723 65.7385 59.9996 66.1298C59.7268 66.5211 59.4541 67.1733 59.4541 67.695C59.4541 68.4776 59.7268 69.2602 60.4086 69.782C60.9541 70.3037 61.7723 70.695 62.5905 70.695Z" fill="#0A0A0A"/>
<g opacity="0.3">
<path opacity="0.3" d="M45.9538 55.0434C44.5902 55.0434 43.0902 54.9129 41.7266 54.652L42.1357 52.9564C42.272 52.9564 49.9084 54.5216 53.7266 50.9999C55.6357 49.1738 56.3175 46.4347 55.772 42.5216L57.5447 42.2607C58.2266 46.6955 57.4084 49.9564 54.9538 52.1738C52.4993 54.3912 48.8175 55.0434 45.9538 55.0434Z" fill="black"/>
</g>
<path d="M40.3627 53.869C44.4536 52.3038 48.4081 50.4777 51.2717 47.4777C52.9081 45.6516 54.2717 43.6951 55.3626 41.7386C55.499 41.6082 55.499 41.4777 55.6354 41.3473C55.7717 41.2169 55.9081 41.2169 56.0445 41.0864C56.1808 41.0864 56.3172 41.0864 56.5899 41.0864C56.7263 41.0864 56.8626 41.2169 56.999 41.2169C57.1354 41.3473 57.2717 41.4777 57.4081 41.6082C57.5445 41.7386 57.5445 41.869 57.5445 42.1299C57.8172 43.6951 57.6808 45.2603 56.999 46.6951C55.3627 50.9995 50.7263 53.869 46.2263 54.6517C44.3172 55.043 42.2717 55.043 40.3627 54.6517L40.2263 54.5212V54.3908C40.0899 54.1299 40.0899 53.9995 40.3627 53.869C40.2263 53.869 40.2263 53.869 40.3627 53.869Z" fill="#FCF4E3"/>
<path d="M35.8647 79.9554C35.8647 82.3032 35.7283 85.0423 35.4556 84.7815C35.3192 84.5206 35.1829 84.2597 35.1829 83.8684V83.738C35.0465 83.0858 34.9102 82.4336 34.7738 81.9119C34.5011 80.9989 34.2283 80.0858 33.8192 79.1728C32.1829 75.3902 30.4102 75.5206 30.4102 75.5206C30.4102 75.5206 32.1829 75.1293 34.7738 72.3902C34.9102 72.2597 35.0465 72.1293 35.0465 71.9989C35.1829 71.8684 35.3192 71.9989 35.3192 72.1293C35.592 73.0423 35.7283 74.0858 35.7283 74.9989C35.7283 75.9119 35.7283 76.5641 35.7283 76.5641C35.7283 76.5641 35.8647 78.1293 35.8647 79.9554Z" fill="#0A0A0A"/>
<g opacity="0.1">
<path opacity="0.1" d="M114.956 78.2601C114.683 78.9123 114.411 79.434 114.138 80.0862C113.32 86.4775 110.047 92.4775 103.365 94.6949C102.274 95.0862 101.047 95.3471 99.9561 95.4775C100.774 95.0862 101.456 94.6949 102.138 94.3036C103.365 93.6514 104.456 92.8688 105.411 92.0862C105.547 91.9557 105.683 91.8253 105.82 91.6949C105.956 91.5645 106.092 91.434 106.229 91.3036C106.502 91.0427 106.774 90.7818 107.183 90.3905L107.32 90.2601L107.592 89.9992C107.592 89.8688 107.729 89.8688 107.865 89.7384C108.002 89.6079 108.138 89.4775 108.274 89.3471C108.411 89.2166 108.411 89.2166 108.547 89.0862C108.683 88.9558 108.82 88.6949 108.956 88.434C109.502 87.6514 109.911 86.8688 110.183 86.0862V85.9558C110.183 85.8253 110.32 85.6949 110.32 85.5644C110.32 85.434 110.32 85.434 110.32 85.434C110.32 85.3036 110.32 85.3036 110.32 85.1731C110.32 85.0427 110.32 84.9123 110.456 84.7818C110.592 84.6514 110.456 84.6514 110.456 84.6514C110.865 82.434 111.002 80.0862 110.729 77.8688C110.592 76.3036 110.32 74.7384 110.047 73.1731C109.911 72.7818 110.047 72.3905 110.183 72.1297C110.32 71.7384 110.592 71.4775 111.002 71.3471C111.274 71.2166 111.683 71.0862 111.956 71.2166C112.092 71.2166 112.229 71.2166 112.365 71.3471C112.638 71.3471 112.774 71.4775 113.047 71.7384C113.32 71.8688 113.456 72.1297 113.456 72.3905C113.729 73.3036 114.002 74.0862 114.138 74.9992C114.547 76.3036 114.82 77.2166 114.956 78.2601Z" fill="#0A0A0A"/>
</g>
<path d="M112.092 80.869C110.047 87.7821 108.956 93.6516 96.4104 95.0864C95.865 95.0864 95.1831 95.0864 94.6377 94.956C105.547 94.956 110.592 81.5212 107.32 68.0864C108.41 68.3473 109.365 68.7386 110.456 69.1299L111.956 69.3908C111.956 69.3908 112.092 69.3908 112.092 69.5212L112.229 69.6516L112.501 79.4343C112.501 79.4343 112.092 80.7386 112.092 80.869Z" fill="#F4DCD9"/>
<path d="M108.954 88.5642C108.681 89.0859 108.272 89.4772 108 89.8685C107.863 89.9989 107.727 90.2598 107.59 90.3902L107.727 90.2598C107.727 90.1294 107.863 90.1294 108 89.9989C108.136 89.8685 108.272 89.7381 108.409 89.6076C108.545 89.4772 108.545 89.3468 108.681 89.3468C108.818 89.3468 108.954 88.9555 109.09 88.6946C109.09 88.6946 109.09 88.6946 108.954 88.5642C109.09 88.5642 109.09 88.5642 109.227 88.4337C109.363 88.3033 109.363 88.1728 109.5 88.0424C109.636 87.912 109.636 87.912 109.636 87.7815C109.636 87.6511 109.772 87.6511 109.772 87.5207L110.045 86.9989L110.181 86.7381C110.181 86.6076 110.318 86.6076 110.318 86.4772V86.3468C110.318 86.2163 110.454 86.0859 110.454 85.9555V85.825C110.454 85.6946 110.454 85.6946 110.59 85.5642C110.59 85.4337 110.59 85.3033 110.727 85.1729C110.181 86.2163 109.636 87.3902 108.954 88.5642ZM105.954 91.825C105.681 92.0859 105.272 92.3468 104.863 92.4772L104.454 92.7381C104.454 92.7381 104.59 92.7381 104.59 92.6076L105 92.3468C105.136 92.3468 105.136 92.2163 105.272 92.2163C105.272 92.2163 105.409 92.0859 105.545 92.0859C105.818 92.0859 105.818 91.9555 105.954 91.825C106.09 91.6946 106.227 91.5642 106.363 91.4337L105.954 91.825ZM108.954 88.5642C108.681 89.0859 108.272 89.4772 108 89.8685C107.863 89.9989 107.727 90.2598 107.59 90.3902L107.727 90.2598C107.727 90.1294 107.863 90.1294 108 89.9989C108.136 89.8685 108.272 89.7381 108.409 89.6076C108.545 89.4772 108.545 89.3468 108.681 89.3468C108.818 89.3468 108.954 88.9555 109.09 88.6946C109.09 88.6946 109.09 88.6946 108.954 88.5642C109.09 88.5642 109.09 88.5642 109.227 88.4337C109.363 88.3033 109.363 88.1728 109.5 88.0424C109.636 87.912 109.636 87.912 109.636 87.7815C109.636 87.6511 109.772 87.6511 109.772 87.5207L110.045 86.9989L110.181 86.7381C110.181 86.6076 110.318 86.6076 110.318 86.4772V86.3468C110.318 86.2163 110.454 86.0859 110.454 85.9555V85.825C110.454 85.6946 110.454 85.6946 110.59 85.5642C110.59 85.4337 110.59 85.3033 110.727 85.1729C110.181 86.2163 109.636 87.3902 108.954 88.5642ZM105.954 91.825C105.681 92.0859 105.272 92.3468 104.863 92.4772L104.454 92.7381C104.454 92.7381 104.59 92.7381 104.59 92.6076L105 92.3468C105.136 92.3468 105.136 92.2163 105.272 92.2163C105.272 92.2163 105.409 92.0859 105.545 92.0859C105.818 92.0859 105.818 91.9555 105.954 91.825C106.09 91.6946 106.227 91.5642 106.363 91.4337L105.954 91.825ZM108.954 88.5642C108.681 89.0859 108.272 89.4772 108 89.8685C107.863 89.9989 107.727 90.2598 107.59 90.3902L107.727 90.2598C107.727 90.1294 107.863 90.1294 108 89.9989C108.136 89.8685 108.272 89.7381 108.409 89.6076C108.545 89.4772 108.545 89.3468 108.681 89.3468C108.818 89.3468 108.954 88.9555 109.09 88.6946C109.09 88.6946 109.09 88.6946 108.954 88.5642C109.09 88.5642 109.09 88.5642 109.227 88.4337C109.363 88.3033 109.363 88.1728 109.5 88.0424C109.636 87.912 109.636 87.912 109.636 87.7815C109.636 87.6511 109.772 87.6511 109.772 87.5207L110.045 86.9989L110.181 86.7381C110.181 86.6076 110.318 86.6076 110.318 86.4772V86.3468C110.318 86.2163 110.454 86.0859 110.454 85.9555V85.825C110.454 85.6946 110.454 85.6946 110.59 85.5642C110.59 85.4337 110.59 85.3033 110.727 85.1729C110.181 86.2163 109.636 87.3902 108.954 88.5642ZM105 92.6076L104.59 92.8685C104.59 92.8685 104.727 92.8685 104.727 92.7381L105.136 92.4772C105.272 92.4772 105.272 92.3468 105.409 92.3468C105.409 92.3468 105.545 92.2163 105.681 92.2163C105.818 92.0859 105.954 91.9555 106.09 91.825C106.227 91.6946 106.363 91.5642 106.5 91.4337L105.954 91.825C105.681 92.0859 105.272 92.3468 105 92.6076ZM106.09 91.825C105.818 92.0859 105.409 92.3468 105 92.6076L104.59 92.8685C104.59 92.8685 104.727 92.8685 104.727 92.7381L105.136 92.4772C105.272 92.4772 105.272 92.3468 105.409 92.3468C105.409 92.3468 105.545 92.2163 105.681 92.2163C105.818 92.0859 105.954 91.9555 106.09 91.825C106.227 91.6946 106.363 91.5642 106.5 91.4337L106.09 91.825ZM109.09 88.5642C108.818 89.0859 108.409 89.4772 108.136 89.8685C108 89.9989 107.863 90.2598 107.727 90.3902V90.2598C107.727 90.1294 107.863 90.1294 108 89.9989C108.136 89.8685 108.272 89.7381 108.409 89.6076C108.545 89.4772 108.545 89.3468 108.681 89.3468C108.818 89.3468 108.954 88.9555 109.09 88.6946C109.09 88.6946 109.09 88.6946 109.09 88.5642C109.227 88.5642 109.227 88.4337 109.227 88.4337C109.363 88.3033 109.363 88.1728 109.5 88.0424C109.636 87.912 109.636 87.912 109.636 87.7815C109.636 87.6511 109.772 87.6511 109.772 87.5207L110.045 86.9989L110.181 86.7381C110.181 86.6076 110.318 86.6076 110.318 86.4772V86.3468C110.318 86.2163 110.454 86.0859 110.454 85.9555V85.825C110.454 85.6946 110.454 85.6946 110.59 85.5642C110.59 85.4337 110.59 85.3033 110.727 85.1729C110.181 86.2163 109.636 87.3902 109.09 88.5642ZM106.09 91.825C105.818 92.0859 105.409 92.3468 105 92.6076L104.59 92.8685C104.59 92.8685 104.727 92.8685 104.727 92.7381L105.136 92.4772C105.272 92.4772 105.272 92.3468 105.409 92.3468C105.409 92.3468 105.545 92.2163 105.681 92.2163C105.818 92.0859 105.954 91.9555 106.09 91.825C106.227 91.6946 106.363 91.5642 106.5 91.4337L106.09 91.825ZM109.09 88.5642C108.818 89.0859 108.409 89.4772 108.136 89.8685C108 89.9989 107.863 90.2598 107.727 90.3902V90.2598C107.727 90.1294 107.863 90.1294 108 89.9989C108.136 89.8685 108.272 89.7381 108.409 89.6076C108.545 89.4772 108.545 89.3468 108.681 89.3468C108.818 89.3468 108.954 88.9555 109.09 88.6946C109.09 88.6946 109.09 88.6946 109.09 88.5642C109.227 88.5642 109.227 88.4337 109.227 88.4337C109.363 88.3033 109.363 88.1728 109.5 88.0424C109.636 87.912 109.636 87.912 109.636 87.7815C109.636 87.6511 109.772 87.6511 109.772 87.5207L110.045 86.9989L110.181 86.7381C110.181 86.6076 110.318 86.6076 110.318 86.4772V86.3468C110.318 86.2163 110.454 86.0859 110.454 85.9555V85.825C110.454 85.6946 110.454 85.6946 110.59 85.5642C110.59 85.4337 110.59 85.3033 110.727 85.1729C110.181 86.2163 109.636 87.3902 109.09 88.5642ZM109.09 88.5642C108.818 89.0859 108.409 89.4772 108.136 89.8685C108 89.9989 107.863 90.2598 107.727 90.3902V90.2598C107.727 90.1294 107.863 90.1294 108 89.9989C108.136 89.8685 108.272 89.7381 108.409 89.6076C108.545 89.4772 108.545 89.3468 108.681 89.3468C108.818 89.3468 108.954 88.9555 109.09 88.6946C109.09 88.6946 109.09 88.6946 109.09 88.5642C109.227 88.5642 109.227 88.4337 109.227 88.4337C109.363 88.3033 109.363 88.1728 109.5 88.0424C109.636 87.912 109.636 87.912 109.636 87.7815C109.636 87.6511 109.772 87.6511 109.772 87.5207L110.045 86.9989L110.181 86.7381C110.181 86.6076 110.318 86.6076 110.318 86.4772V86.3468C110.318 86.2163 110.454 86.0859 110.454 85.9555V85.825C110.454 85.6946 110.454 85.6946 110.59 85.5642C110.59 85.4337 110.59 85.3033 110.727 85.1729C110.181 86.2163 109.636 87.3902 109.09 88.5642ZM106.09 91.825C105.818 92.0859 105.409 92.3468 105 92.6076L104.59 92.8685C104.59 92.8685 104.727 92.8685 104.727 92.7381L105.136 92.4772C105.272 92.4772 105.272 92.3468 105.409 92.3468C105.409 92.3468 105.545 92.2163 105.681 92.2163C105.818 92.0859 105.954 91.9555 106.09 91.825C106.227 91.6946 106.363 91.5642 106.5 91.4337L106.09 91.825Z" fill="#0A0A0A"/>
<path d="M114.274 79.6948C114.274 79.8252 114.274 79.9557 114.274 80.0861C113.456 86.4774 110.183 92.4774 103.501 94.6948C101.319 95.347 99.1375 95.7383 96.9557 95.8687H95.7284C92.5921 95.8687 89.5921 95.0861 86.8648 93.5209C84.1375 91.9557 82.0921 89.7383 80.5921 87.1296C80.5921 87.1296 80.5921 87.1296 80.5921 86.9991L80.4557 86.7383C78.4102 83.347 77.183 79.5644 77.183 75.5209C77.0466 68.347 80.183 60.7818 86.8648 57.1296C87.1375 56.9991 87.0012 57.1296 87.2739 56.9992C87.4102 56.9992 87.2739 56.7383 87.4102 56.7383C87.5466 56.8687 87.9557 56.9991 88.0921 57.1296C88.2284 57.26 88.6375 57.26 88.7739 57.3905L88.2284 57.7818L87.8193 57.9122C80.5921 61.0426 78.2739 68.2165 78.4102 75.5209C78.4102 79.4339 79.5012 83.2165 81.4102 86.6078L81.5466 86.8687L81.683 87.1296L81.9557 87.6513L82.0921 87.9122C83.4557 89.9991 85.2284 91.6948 87.2739 92.8687C89.4557 94.0426 91.7739 94.8252 94.2284 95.0861H94.3648C94.6375 95.0861 94.7739 95.0861 95.0466 95.0861H96.683H97.2284C99.1375 94.9557 101.183 94.4339 102.956 93.7818C103.365 93.5209 103.91 93.3905 104.319 93.1296H104.456C104.456 93.1296 104.592 93.1296 104.592 92.9992L105.001 92.7383C105.138 92.7383 105.138 92.6078 105.274 92.6078C105.274 92.6078 105.41 92.4774 105.547 92.4774C105.683 92.347 105.819 92.2165 105.956 92.0861C106.092 91.9557 106.228 91.8252 106.365 91.6948L105.819 92.0861L106.228 91.6948C106.501 91.4339 106.774 91.1731 107.183 90.7818H107.319L107.728 90.3905C107.728 90.26 107.865 90.26 108.001 90.1296C108.138 89.9991 108.274 89.8687 108.41 89.7383C108.547 89.6078 108.547 89.6078 108.683 89.4774C108.819 89.347 108.956 89.0861 109.092 88.8252C109.092 88.8252 109.092 88.6948 109.228 88.6948C109.228 88.6948 109.228 88.5644 109.365 88.5644C109.501 88.4339 109.501 88.3035 109.638 88.1731C109.774 88.0426 109.774 88.0426 109.774 87.9122C109.774 87.7818 109.91 87.7818 109.91 87.6513L110.183 87.1296L110.319 86.8687C110.319 86.7383 110.456 86.6078 110.456 86.6078V86.4774C110.456 86.347 110.592 86.2165 110.592 86.0861V85.9557C110.592 85.8252 110.592 85.8252 110.592 85.6948C110.592 85.5644 110.592 85.4339 110.728 85.3035C110.319 86.6078 109.774 87.7818 109.092 88.8252C109.91 87.6513 110.456 86.347 110.865 85.0426C111.683 82.1731 112.092 79.1731 111.956 76.1731C111.956 74.7383 111.683 73.1731 111.41 71.7383C111.274 71.2165 111.138 70.5644 111.001 70.0426C111.001 69.7818 110.865 69.5209 110.728 69.3905C110.456 68.6078 110.183 67.8252 109.774 67.1731L111.41 67.5644C111.956 67.6948 112.501 67.8252 112.91 67.8252C113.047 68.0861 113.183 68.347 113.319 68.6078C113.592 69.3905 113.865 70.0426 114.001 70.8252C114.138 71.4774 114.41 72.26 114.41 73.0426C114.547 73.8252 114.547 74.6078 114.683 75.3905C114.547 76.5644 114.41 78.1296 114.274 79.6948Z" fill="#0A0A0A"/>
<path d="M120.273 69.7811C120.273 70.042 120.136 70.1724 120.136 70.4333C120 70.5637 119.864 70.8246 119.727 70.955C119.591 71.0854 119.318 71.2159 119.182 71.2159C118.909 71.2159 118.773 71.3463 118.5 71.2159C117 71.0854 115.364 70.8246 113.864 70.4333C113.318 70.3028 112.909 70.1724 112.364 70.1724H112.227L110.864 69.7811C109.773 69.5202 108.545 69.1289 107.454 68.8681C101.318 66.9115 95.5908 63.9115 90.5454 60.1289C89.5908 59.4767 88.7727 58.6941 87.8181 58.042C87.6818 57.9115 87.5454 57.7811 87.2727 57.6507C87.1363 57.5202 86.9999 57.3898 86.8636 57.2594C85.4999 56.0854 84.2727 54.9115 83.1818 53.6072C82.909 53.2159 83.4545 52.8246 83.7272 53.0854C84.9545 54.3898 86.3181 55.5637 87.8181 56.7376L88.3636 57.1289C88.6363 57.2594 88.7727 57.3898 89.0454 57.5202C93.6818 60.9115 98.8636 63.6507 104.454 65.4768C106.091 65.9985 107.864 66.5202 109.636 66.9115C110.182 67.042 110.727 67.1724 111.273 67.3028C111.818 67.4333 112.227 67.5637 112.773 67.5637C114.818 67.955 116.727 68.0854 118.773 68.2159C119.045 68.2159 119.182 68.2159 119.454 68.3463C119.591 68.4768 119.864 68.6072 120 68.7376C120.136 68.8681 120.273 69.1289 120.409 69.2594C120.273 69.3898 120.273 69.6507 120.273 69.7811Z" fill="#0A0A0A"/>
<path d="M90.0011 85.9556C91.092 85.4339 91.9102 84.6512 92.592 83.7382C93.1374 82.8252 93.5465 81.6512 93.4102 80.4773C93.2738 79.3034 93.0011 78.2599 92.1829 77.3469C91.5011 76.4338 90.5465 75.7817 89.3192 75.3904C88.2283 74.9991 87.0011 74.9991 85.7738 75.2599C84.6829 75.5208 83.592 76.173 82.7738 76.9556C81.9556 77.7382 81.4102 78.7817 81.2738 79.9556C81.1374 81.1295 81.2738 82.173 81.8192 83.2165C82.092 83.8686 82.6374 84.5208 83.1829 85.0425C83.7283 85.5643 84.4102 85.9556 85.2283 86.2165C85.9102 86.4773 86.7283 86.6078 87.5465 86.6078C88.5011 86.4773 89.3192 86.3469 90.0011 85.9556Z" fill="#0A0A0A"/>
<path d="M89.3184 85.1732C90.273 84.7818 90.9548 84.1297 91.5003 83.2166C92.0457 82.434 92.3184 81.3905 92.1821 80.4775C92.1821 79.5645 91.773 78.521 91.2275 77.7384C90.6821 76.9558 89.7275 76.3036 88.773 76.0427C87.9548 75.6514 86.8639 75.6514 85.9094 75.9123C84.9548 76.1731 84.0003 76.6949 83.3184 77.3471C82.6366 78.1297 82.2275 78.9123 82.0912 79.9558C81.9548 80.8688 82.0912 81.9123 82.5003 82.8253C82.773 83.4775 83.1821 83.9992 83.7275 84.3905C84.273 84.7818 84.8184 85.1732 85.5003 85.434C86.1821 85.6949 86.8639 85.6949 87.5457 85.6949C88.0912 85.5645 88.773 85.434 89.3184 85.1732Z" fill="#F99FB7"/>
<path opacity="0.3" d="M92.4535 80.8687L89.5898 80.9991L92.3171 81.6513L92.4535 80.8687Z" fill="white"/>
<path opacity="0.3" d="M89.454 85.0426L86.0449 80.8687L87.954 85.5643L89.454 85.0426Z" fill="white"/>
<path opacity="0.3" d="M89.0454 76.0425L88.0908 77.999L89.5908 76.3034L89.0454 76.0425Z" fill="white"/>
<path d="M87.0001 82.9562C87.5456 82.6953 87.9547 82.304 88.2274 81.7823C88.5001 81.2605 88.6365 80.7388 88.6365 80.0866C88.6365 79.5649 88.3638 78.9127 88.0911 78.5214C87.682 77.9997 87.2729 77.7388 86.7274 77.4779C86.182 77.3475 85.5001 77.217 84.9547 77.3475C84.4092 77.4779 83.8638 77.7388 83.4547 78.2605C83.0456 78.7823 82.7729 79.1736 82.6365 79.8257C82.5001 80.3475 82.6365 80.9997 82.9092 81.5214C83.0456 81.9127 83.3183 82.1736 83.5911 82.4344C83.8638 82.6953 84.2729 82.9562 84.682 83.0866C85.0911 83.217 85.5001 83.217 85.9092 83.217C86.3183 83.217 86.7274 83.0866 87.0001 82.9562Z" fill="#0A0A0A"/>
<g opacity="0.3">
<path opacity="0.3" d="M102.956 54.5203C100.092 54.5203 96.5468 53.9986 94.0923 51.7812C91.6377 49.5638 90.8196 46.3029 91.5014 41.8682L93.2741 42.129C92.5923 45.9116 93.2741 48.7812 95.3196 50.4769C99.1377 53.9986 106.774 52.4334 106.91 52.4334L107.32 54.129C105.683 54.3899 104.32 54.5203 102.956 54.5203Z" fill="black"/>
</g>
<path d="M108.547 53.9993C102.138 55.0428 94.2292 52.1732 91.911 45.9123C91.3656 44.4776 91.2292 42.9123 91.3656 41.3471C91.3656 41.0863 91.5019 40.9558 91.6383 40.695C91.7747 40.5645 92.0474 40.4341 92.3201 40.4341C92.5929 40.4341 92.8656 40.4341 93.0019 40.5645C93.2747 40.695 93.411 40.8254 93.5474 41.0863C94.7747 43.5645 96.5474 45.7819 98.4565 47.7384C101.456 50.2167 104.866 52.1732 108.547 53.3471C108.684 53.3471 108.684 53.4776 108.684 53.4776C108.684 53.4776 108.684 53.608 108.684 53.7384C108.684 53.8689 108.684 53.8689 108.547 53.9993C108.684 53.8689 108.684 53.8689 108.547 53.9993Z" fill="#FCF4E3"/>
<path d="M118.091 75.26C118.091 75.26 116.591 75.1296 115.091 78.1296C114.818 78.6513 114.545 79.3035 114.272 79.9557C113.863 81.1296 113.591 82.4339 113.318 83.7383C112.909 85.6948 112.772 83.9991 112.772 81.9122C112.772 79.6948 112.772 76.4339 112.772 76.4339C112.772 76.4339 112.772 74.2165 113.045 72.7818C113.045 72.3905 113.182 71.9992 113.318 71.7383H113.454C113.727 72.1296 114 72.3905 114.272 72.6513C115.227 73.9557 116.591 74.7383 118.091 75.26Z" fill="#0A0A0A"/>
<path d="M81.6809 87.1301L81.5446 86.8693L81.4082 86.6084C81.5446 86.7388 81.5446 86.8693 81.6809 87.1301Z" fill="#0A0A0A"/>
<path d="M67.9085 86.3472C67.9085 86.608 67.7721 86.7385 67.6357 86.8689L67.9085 86.3472Z" fill="#0A0A0A"/>
</g>
<defs>
<clipPath id="clip0_160_1020">
<rect width="150" height="150" fill="white"/>
</clipPath>
</defs>
</svg>
