<svg width="115" height="115" viewBox="0 0 115 115" fill="none" xmlns="http://www.w3.org/2000/svg">
<path d="M57.2923 114.7C88.5909 114.7 113.963 90.2098 113.963 59.9998C113.963 29.7898 88.5909 5.2998 57.2923 5.2998C25.9936 5.2998 0.621094 29.7898 0.621094 59.9998C0.621094 90.2098 25.9936 114.7 57.2923 114.7Z" fill="#201B19"/>
<path d="M57.2923 109.7C88.5909 109.7 113.963 85.2098 113.963 54.9998C113.963 24.7898 88.5909 0.299805 57.2923 0.299805C25.9936 0.299805 0.621094 24.7898 0.621094 54.9998C0.621094 85.2098 25.9936 109.7 57.2923 109.7Z" fill="#FFD110"/>
<path d="M57.2924 109.9C26.0041 109.9 0.517578 85.2998 0.517578 55.0998C0.517578 24.8998 26.0041 0.299805 57.2924 0.299805C88.5806 0.299805 114.067 24.8998 114.067 55.0998C114.067 85.2998 88.6842 109.9 57.2924 109.9ZM57.2924 2.1998C27.0401 2.1998 2.38244 25.9998 2.38244 55.1998C2.38244 84.3998 27.0401 108.2 57.2924 108.2C87.5446 108.2 112.202 84.3998 112.202 55.1998C112.202 25.9998 87.5446 2.1998 57.2924 2.1998Z" fill="#201B19"/>
<path d="M57.604 36.2001C57.604 36.2001 75.7346 35.3001 83.5049 49.7001C91.4824 64.3001 80.2932 63.8001 80.2932 63.8001C80.2932 63.8001 46.8292 65.4001 33.4644 64.3001C20.0995 63.2001 33.4644 46.3001 33.4644 46.3001C33.4644 46.3001 40.095 37.2001 57.604 36.2001Z" fill="#892933"/>
<path d="M60.194 46.1998C59.676 46.0998 59.158 46.2998 58.9508 46.7998C58.7436 47.2998 58.8472 48.0998 59.4688 49.3998C61.6445 53.5998 58.9508 54.4998 57.8112 54.4998C56.6715 54.4998 53.667 53.3998 55.9463 49.7998C56.8787 48.2998 56.8787 47.3998 56.4643 46.7998C56.1535 46.3998 55.6355 46.0998 55.1175 46.2998C49.5229 47.4998 43.8247 52.4998 44.2391 58.2998C44.6535 63.9998 51.2841 64.7998 57.1895 65.1998C65.0634 65.1998 71.176 65.1998 71.176 57.5998C71.176 51.8998 65.5814 47.2998 60.194 46.1998Z" fill="#480122"/>
<path d="M49.0044 52C49.0044 52 42.8918 55.8 41.5449 64.6L52.7341 64.9L49.0044 52Z" fill="#DB8989"/>
<path d="M57.7071 41.8C57.7071 42.6 57.0855 45.4 51.5945 45.1C45.5855 44.9 45.8963 42.6 45.8963 42.6V38.6L57.7071 36V41.6C57.7071 41.6 57.7071 41.6 57.7071 41.8Z" fill="white"/>
<path d="M45.8963 38.2998V41.8998C45.8963 41.9998 45.8963 42.1998 45.8963 42.2998C45.7927 43.0998 45.3783 43.7998 44.9639 44.4998L41.6486 49.1998L39.0585 46.8998L38.4369 46.3998C37.5044 45.4998 36.8828 44.2998 36.8828 42.9998L45.8963 38.2998Z" fill="white"/>
<path d="M63.8196 45.1C58.3287 45.3 57.707 42.5 57.707 41.8C57.707 41.7 57.707 41.6 57.707 41.6V36L69.5178 38.7V42.7C69.5178 42.6 69.8287 44.9 63.8196 45.1Z" fill="white"/>
<path d="M78.4275 42.7998C78.4275 44.0998 77.9095 45.2998 76.8734 46.1998L76.1482 46.7998L73.6617 49.0998L70.45 44.3998C69.932 43.5998 69.5176 42.7998 69.5176 41.8998V38.2998L78.4275 42.7998Z" fill="white"/>
<path d="M76.2523 46.8002L73.7658 49.1002L70.4505 44.4002C69.9325 43.6002 69.5181 42.8002 69.5181 41.9002V42.7002C69.5181 42.7002 69.8289 45.0002 63.8199 45.2002C58.3289 45.4002 57.7072 42.6002 57.7072 41.9002C57.7072 42.7002 57.0856 45.5002 51.5946 45.2002C45.5856 45.0002 45.8964 42.7002 45.8964 42.7002V42.3002C45.7928 43.1002 45.3784 43.8002 44.964 44.5002L41.6487 49.2002L39.0586 46.9002C40.8199 45.1002 43.2027 42.8002 44.2388 42.1002C45.0676 41.6002 45.5856 41.4002 45.8964 41.4002C46.2072 41.4002 46.3108 41.5002 46.3108 41.5002C46.3108 41.5002 52.6307 44.3002 57.5 40.7002C57.5 40.7002 57.5 40.7002 57.6036 40.8002C58.4325 41.3002 62.8874 43.6002 69.4144 41.2002C69.5181 41.1002 73.5586 42.8002 76.2523 46.8002Z" fill="#D6D2CE"/>
<path d="M83.4004 60.8999V63.3999L76.5626 63.9999L76.459 60.9999V60.6999C76.459 60.0999 76.7698 59.4999 77.3914 59.2999C77.9094 59.0999 78.6347 58.8999 79.8779 58.8999C81.7428 58.8999 82.6752 59.5999 83.0896 59.9999C83.2968 60.2999 83.4004 60.5999 83.4004 60.8999Z" fill="white"/>
<path d="M39.7841 62.7998V64.9998L32.5319 64.2998C32.5319 64.2998 32.4283 62.9998 33.0499 61.9998C33.5679 61.2998 34.3967 60.7998 35.8472 60.7998C36.9868 60.7998 37.8156 60.8998 38.3337 61.0998C38.8517 61.2998 39.2661 61.5998 39.4733 62.0998C39.6805 62.1998 39.7841 62.4998 39.7841 62.7998Z" fill="white"/>
<path d="M47.8646 64.1998V64.9998L39.7836 64.5998H39.3691V62.8998C39.3691 62.5998 39.4727 62.3998 39.5763 62.0998C39.68 61.7998 39.8872 61.5998 40.198 61.3998C40.716 61.0998 41.752 60.7998 43.2025 60.7998C45.1709 60.7998 46.5178 61.0998 47.243 61.7998C47.5538 62.0998 47.6574 62.4998 47.761 62.8998C47.8646 63.2998 47.8646 63.7998 47.8646 64.1998Z" fill="white"/>
<path d="M47.7616 62.9998C47.8652 63.3998 47.8652 63.8998 47.8652 64.1998V64.9998L39.7841 64.5998V64.9998L32.5319 64.3998C32.5319 64.3998 32.4283 63.1998 33.0499 62.2998C34.3967 62.5998 36.3652 62.8998 39.3697 63.0998C39.4733 63.0998 39.6805 63.0998 39.7841 63.0998C41.9598 63.0998 44.5499 63.0998 47.7616 62.9998Z" fill="#D6D2CE"/>
<path d="M83.4004 61.7999V63.5999L76.5626 63.9999L76.459 61.8999C79.4635 61.1999 81.8464 61.2999 83.4004 61.7999Z" fill="#D6D2CE"/>
<path d="M52.1123 45.8C51.9051 45.8 51.6979 45.8 51.4907 45.8C48.5898 45.7 46.6213 45.1 45.6889 44C45.1709 43.4 45.1709 42.8 45.1709 42.5V38.5H46.6214V42.6C46.6214 43 47.5538 44.1 51.5943 44.2C53.77 44.3 55.3241 43.9 56.2565 43C56.9817 42.3 56.9817 41.4 56.9817 41.4V36H58.5358V41.6C58.5358 41.9 58.5358 43.2 57.3961 44.3C56.2565 45.3 54.4952 45.8 52.1123 45.8Z" fill="#0A0A0A"/>
<path d="M41.8563 50.2002L38.023 46.7002C36.8833 45.7002 36.2617 44.2002 36.2617 42.7002H37.8158C37.8158 43.8002 38.3338 44.8002 39.1626 45.6002L41.7527 47.9002L44.55 43.9002C45.068 43.1002 45.3788 42.4002 45.3788 41.7002V38.2002H46.9329V41.8002C46.9329 42.7002 46.5185 43.7002 45.7933 44.7002L41.8563 50.2002Z" fill="#0A0A0A"/>
<path d="M63.1986 45.8C60.8158 45.8 59.1581 45.3 58.0185 44.2C56.9824 43.1 56.9824 41.8 56.9824 41.5V36H58.5365V41.7C58.5365 41.7 58.5365 42.6 59.2617 43.3C60.0905 44.1 61.7482 44.5 63.9239 44.5C67.2392 44.4 68.2752 43.7 68.6896 43.2C68.8968 43 68.8968 42.8 68.8968 42.8V42.7V38.6H70.4509V42.6C70.4509 42.8 70.4509 43.4 69.9329 44.1C69.0004 45.2 67.032 45.8 64.1311 45.9C63.6131 45.8 63.4058 45.8 63.1986 45.8Z" fill="#0A0A0A"/>
<path d="M73.5588 50.2002L69.8291 44.7002C69.1039 43.7002 68.7931 42.7002 68.6895 41.8002V38.2002H70.2435V41.8002C70.2435 42.4002 70.5543 43.1002 71.0723 43.9002L73.8696 47.9002L76.4597 45.6002C77.2886 44.9002 77.5994 44.1002 77.5994 43.1002H79.1534C79.1534 44.6002 78.6354 45.8002 77.4958 46.7002L73.5588 50.2002Z" fill="#0A0A0A"/>
<path d="M75.838 64.0001L75.7344 60.7001C75.7344 59.8001 76.2524 59.0001 77.0812 58.6001C77.8065 58.3001 78.7389 58.1001 79.8785 58.1001C81.5362 58.1001 82.7794 58.6001 83.6083 59.5001C83.9191 59.9001 84.0227 60.4001 84.0227 60.8001V63.3001H82.4686V60.8001C82.4686 60.7001 82.4686 60.5001 82.365 60.3001C81.847 59.8001 81.0182 59.5001 79.7749 59.5001C78.8425 59.5001 78.1173 59.6001 77.5992 59.8001C77.2884 59.9001 77.1848 60.2001 77.1848 60.6001L77.2884 63.9001L75.838 64.0001Z" fill="#0A0A0A"/>
<path d="M40.5086 65H38.9546V62.9C38.9546 62.4 38.6438 62 38.1257 61.8C37.7113 61.7 37.0897 61.5 35.8465 61.5C34.914 61.5 34.2924 61.7 33.7744 62.2C33.0492 63 33.1528 64.2 33.1528 64.3L31.5987 64.4C31.5987 64.3 31.3915 62.5 32.5312 61.2C33.2564 60.4 34.2924 60 35.7429 60C36.8825 60 37.8149 60.1 38.5402 60.3C39.6798 60.7 40.405 61.6 40.405 62.8V65H40.5086Z" fill="#0A0A0A"/>
<path d="M48.6937 65.0002H47.1397V64.2002C47.1397 62.9002 46.9325 62.5002 46.7253 62.3002C46.3108 61.8002 45.0676 61.6002 43.5135 61.6002C42.0631 61.6002 41.3379 61.9002 41.0271 62.1002C40.7162 62.2002 40.6126 62.6002 40.6126 62.9002V64.6002H39.0586V62.9002C39.0586 62.1002 39.473 61.3002 40.1982 60.9002C40.9235 60.5002 42.0631 60.2002 43.5135 60.2002C45.5856 60.2002 47.1397 60.6002 47.8649 61.4002C48.3829 62.0002 48.6937 62.9002 48.6937 64.3002V65.0002Z" fill="#0A0A0A"/>
<path d="M57.5 35.2C66.0991 35.1 74.9054 38.4 80.7072 44.7C83.9189 48.1 87.6486 54 87.545 58.7C87.4414 62.6 83.9189 64.6 80.2928 64.7C67.5495 65.7 53.7703 66 40.6126 65.6C39.0585 65.6 36.054 65.4 34.5 65.3C32.3243 65.2 29.9414 65 28.2838 63.4C25.7973 60.9 26.7297 57 27.8693 54.2C29.2162 50.9 31.0811 47.8 33.3603 45C39.473 38.3 48.6937 35.7 57.5 35.2ZM57.6036 37.2L54.5991 37.5C53.6666 37.6 52.6306 37.8 51.6982 37.9C51.1802 38 50.0405 38.3 49.5225 38.4C46.518 39.2 43.4099 40.3 40.7162 41.9C38.2297 43.3 35.8468 45.1 34.0856 47.3C31.4955 50.9 24.1396 61.4 31.7027 63.3C33.3603 63.7 35.9504 63.7 37.6081 63.8C47.7612 64.3 57.9144 64.3 68.0675 63.8C72.1081 63.6 76.2522 63.4 80.1892 63C83.0901 62.9 85.8874 61.5 85.8874 58.5C85.8874 54.3 82.2612 48.8 79.3603 45.7C73.8693 40.1 65.6847 37.1 57.6036 37.2Z" fill="#0A0A0A"/>
<path opacity="0.15" d="M58.3288 57.8C58.3288 57.8 65.3738 55.6 68.3783 59.9C71.3828 64.2 71.7973 73.4 68.6892 77.1C65.6847 80.8 62.7837 79.3 62.7837 79.3C62.7837 79.3 49.3153 81.4 47.8648 71.1C47.8648 71.1 46.7252 55.3 48.2792 52.5C48.3828 52.4 47.9684 57.6 48.072 57.6C50.0405 55.9 55.5315 56.7 58.3288 57.8Z" fill="#0A0A0A"/>
<path d="M61.8509 52.0998C61.8509 52.0998 70.6572 49.3998 74.3869 54.6998C78.1167 59.9998 78.6347 71.4998 74.8013 76.0998C70.968 80.6998 63.7158 80.9998 63.7158 80.9998C63.7158 80.9998 50.5581 81.4998 48.9005 68.6998C48.9005 68.6998 47.2428 56.1998 48.3824 52.7998C48.486 52.5998 48.486 52.4998 48.486 52.3998C50.7653 50.2998 58.3284 50.6998 61.8509 52.0998Z" fill="#F7A19B"/>
<path d="M64.1302 63.7V62C64.0266 58.6 63.6122 55.1 61.9545 52.1C61.8509 52.1 61.7473 52.1 61.7473 52.1C61.6437 52.1 61.6437 52 61.4365 52C63.0942 55.6 62.887 59.7 62.369 63.5C62.2654 64 62.6798 64.4 63.1978 64.4C63.8194 64.5 64.1302 64.1 64.1302 63.7Z" fill="#DB8989"/>
</svg>
