<svg width="190" height="190" viewBox="0 0 190 190" fill="none" xmlns="http://www.w3.org/2000/svg">
<g clip-path="url(#clip0_160_927)">
<path d="M94.6547 190.165C146.836 190.165 189.136 149.704 189.136 99.7914C189.136 49.8793 146.836 9.41748 94.6547 9.41748C42.4738 9.41748 0.172852 49.8793 0.172852 99.7914C0.172852 149.704 42.4738 190.165 94.6547 190.165Z" fill="#201B19"/>
<path d="M94.6537 181.904C146.835 181.904 189.136 141.442 189.136 91.5302C189.136 41.618 146.835 1.15625 94.6537 1.15625C42.4728 1.15625 0.171875 41.618 0.171875 91.5302C0.171875 141.442 42.4728 181.904 94.6537 181.904Z" fill="#AC9BC6"/>
<path d="M94.6545 182.235C42.4909 182.235 0 141.591 0 91.6954C0 41.7997 42.4909 1.15625 94.6545 1.15625C146.818 1.15625 189.309 41.7997 189.309 91.6954C189.309 141.591 146.991 182.235 94.6545 182.235ZM94.6545 4.13016C44.2182 4.13016 3.10909 43.4519 3.10909 91.6954C3.10909 139.939 44.2182 179.261 94.6545 179.261C145.091 179.261 186.2 139.939 186.2 91.6954C186.2 43.4519 145.264 4.13016 94.6545 4.13016Z" fill="#201B19"/>
<path opacity="0.4" d="M111.751 90.7046C111.751 90.7046 114.169 95.9915 112.442 98.1394C110.542 100.287 106.742 100.948 106.742 100.948L103.46 103.096L106.569 98.635L109.678 94.3394L111.751 90.7046Z" fill="black"/>
<path d="M89.9874 105.078C89.9874 105.078 86.3602 114.826 70.8147 113.67C55.2693 112.513 68.0511 106.235 68.0511 106.235L83.4238 103.096L89.9874 105.078Z" fill="#FFF3F0"/>
<path d="M100.697 105.078C100.697 105.078 104.325 114.826 119.87 113.67C135.415 112.513 122.634 106.235 122.634 106.235L107.088 103.096L100.697 105.078Z" fill="#FFF3F0"/>
<path d="M140.078 88.3906C140.078 88.3906 145.951 101.443 136.105 107.886C126.26 114.33 116.76 113.338 116.76 113.338L110.887 109.043L102.769 105.904L101.732 104.747L106.569 100.782L114.169 97.4776L124.878 94.3384L133.169 91.5298L139.042 88.5558L140.078 88.3906Z" fill="#FFF3F0"/>
<path d="M145.26 102.599C142.842 111.521 125.051 113.504 118.142 113.669C118.142 113.669 144.742 105.738 140.251 88.3906L142.842 88.7211L145.26 102.599Z" fill="#F4DCD9"/>
<path d="M112.097 98.7996L114.86 97.643L125.224 94.5039C126.26 95.4952 126.779 96.9822 126.779 98.3039C126.779 101.773 123.497 104.582 119.351 104.582C115.551 104.417 112.442 101.939 112.097 98.7996Z" fill="#0A0A0A"/>
<path d="M125.224 97.8075C125.224 98.7988 124.878 99.7901 124.36 100.616C123.669 101.442 122.806 102.268 121.942 102.764C120.906 103.26 119.869 103.59 118.66 103.425C115.206 103.425 112.442 101.112 112.097 98.3031L114.515 97.1466L123.842 94.3379C124.706 95.3292 125.224 96.4857 125.224 97.8075Z" fill="#FF881E"/>
<path opacity="0.2" d="M114.688 102.269C115.033 102.434 115.206 102.6 115.551 102.765C116.069 101.608 116.933 100.452 117.797 99.4604C117.797 99.4604 117.106 99.7909 114.688 102.269Z" fill="white"/>
<path opacity="0.2" d="M124.878 99.6262C124.705 99.9566 124.532 100.287 124.36 100.452C123.151 99.7914 121.942 99.2958 120.732 98.9653C120.732 99.1305 121.423 98.9653 124.878 99.6262Z" fill="white"/>
<path d="M114.344 98.4688L115.553 97.9731L120.044 96.6514C120.389 97.147 120.735 97.6427 120.735 98.3035C120.735 99.7905 119.353 101.112 117.453 101.112C115.898 100.947 114.516 99.9557 114.344 98.4688Z" fill="#0A0A0A"/>
<path d="M157.697 70.2168C152.17 80.7907 142.151 89.0516 130.924 93.5124C129.715 94.0081 128.16 94.5038 126.779 94.9994C123.497 95.9907 119.87 96.982 116.588 98.3038C112.96 99.6255 109.16 101.278 106.051 103.425C105.188 104.086 104.324 104.747 103.806 105.573L103.633 105.739V105.573V105.739C103.633 105.904 103.46 106.069 103.46 106.234C102.424 105.904 101.215 105.408 100.179 105.078H100.006C100.006 104.912 100.006 104.912 100.006 104.747C100.179 104.417 100.351 104.086 100.524 103.756C101.906 101.608 104.669 99.9559 107.088 98.7994C107.606 98.6342 107.951 98.3038 108.469 98.1385C112.442 96.3211 116.76 95.1646 120.906 94.0081C123.151 93.5125 125.915 92.8516 128.16 92.1907C140.424 88.8864 151.479 80.7907 157.697 70.2168Z" fill="#0A0A0A"/>
<path d="M114.171 113.833C114.689 113.999 116.071 113.999 120.217 113.999C127.471 113.833 135.589 113.833 141.462 109.042C147.853 103.92 147.508 94.503 144.571 87.729C143.535 85.5812 140.08 86.7377 140.598 89.0508V89.216L140.771 89.8769C141.98 94.503 142.844 99.9551 140.253 104.251C136.453 109.868 127.126 112.677 120.217 113.173C116.244 113.338 115.035 113.173 113.998 113.173C113.48 113.173 113.653 113.833 114.171 113.833Z" fill="#0A0A0A"/>
<path d="M143.36 86.4083C146.814 88.8865 148.887 88.8865 148.887 88.8865C148.887 88.8865 145.605 88.3909 146.123 98.6344C146.296 102.93 143.705 91.1996 143.705 91.1996C143.705 91.1996 142.496 85.9126 143.36 86.4083Z" fill="#0A0A0A"/>
<path opacity="0.4" d="M133.342 84.7556C122.46 80.9556 114.688 87.8947 114.688 87.8947L133.342 84.7556Z" fill="black"/>
<path opacity="0.4" d="M97.071 90.5381C97.071 90.5381 97.4165 94.0077 97.071 96.4859C96.7255 98.9642 95.171 101.608 94.6528 103.755C94.1346 105.903 92.5801 105.408 92.5801 105.408L93.4437 103.095L96.3801 95.6598L97.071 90.5381Z" fill="black"/>
<path d="M111.579 90.5381C110.715 93.512 109.16 96.3207 107.088 98.799L106.915 99.1294C106.051 100.121 105.015 101.112 104.151 101.938C103.288 102.929 102.769 104.086 102.251 105.242C102.251 105.408 102.251 105.408 102.079 105.573L100.179 105.077H100.006C100.179 104.582 100.351 104.251 100.524 103.755C101.042 102.764 101.733 101.773 102.597 100.782C103.633 99.7903 104.669 99.1294 105.706 98.1381C108.297 96.1555 110.197 93.512 111.579 90.5381Z" fill="#0A0A0A"/>
<path d="M92.0605 104.582C92.2333 102.269 93.7878 100.287 94.9969 98.304C96.3787 95.9909 96.8969 93.1822 97.0696 90.3735C97.0696 91.6953 97.0696 92.8518 96.8969 94.1735C96.7242 95.8257 96.3787 97.3127 95.6878 98.7996C94.9969 100.121 94.306 101.443 93.7878 102.93C93.6151 103.426 93.6151 103.921 93.4424 104.417C93.4424 104.582 93.4424 104.913 93.2696 105.078C93.0969 105.243 92.9242 105.408 92.7515 105.408C92.5787 105.408 92.2333 105.408 92.0605 105.243C92.2333 104.913 92.0605 104.747 92.0605 104.582Z" fill="#0A0A0A"/>
<path d="M132.825 84.7563C131.27 84.5911 129.716 84.4259 128.161 84.2606H126.434L124.707 84.4259C121.943 84.7563 119.179 85.2519 116.761 86.5737C116.07 86.9041 115.379 87.3998 114.861 87.8954C114.861 87.8954 114.861 87.8954 114.688 87.8954C114.688 87.8954 114.688 87.8954 114.516 87.8954C114.516 87.8954 114.516 87.8954 114.516 87.7302C114.516 87.7302 114.516 87.7302 114.516 87.565C115.725 86.4085 117.107 85.4172 118.488 84.7563C120.388 83.9302 122.288 83.2693 124.361 82.9389C124.707 82.9389 125.743 82.7737 126.261 82.6085C126.607 82.6085 127.643 82.4432 128.161 82.4432C129.888 82.278 131.443 82.278 133.17 82.4432C133.343 82.4432 133.516 82.4432 133.688 82.6085C133.861 82.6085 134.034 82.7737 134.034 82.9389C134.207 83.1041 134.207 83.1041 134.207 83.2693C134.207 83.4346 134.207 83.5998 134.207 83.765C134.207 83.9302 134.207 84.0954 134.034 84.2606C134.034 84.4259 133.861 84.4259 133.688 84.5911C133.516 84.7563 133.343 84.7563 133.343 84.7563C133.17 84.7563 132.997 84.7563 132.825 84.7563Z" fill="#0A0A0A"/>
<path opacity="0.4" d="M78.2436 90.7046C78.2436 90.7046 75.8254 95.9915 77.5527 98.1394C79.4527 100.287 83.2527 100.948 83.2527 100.948L86.5345 103.096L83.4254 98.635L80.3163 94.3394L78.2436 90.7046Z" fill="black"/>
<path d="M49.5693 88.3906L49.2239 88.5558C48.533 90.3732 44.3875 101.773 53.1966 107.886C62.5239 114.165 71.1603 113.669 72.1966 113.504L73.5784 111.851L79.1057 107.886L85.8421 105.243L87.0512 104.912L87.3966 104.747V104.582C87.3966 104.582 87.3966 104.417 87.2239 104.417L82.733 100.782L75.133 97.4776L64.5966 94.3385L56.3057 91.5298L50.433 88.5558C50.433 88.5558 50.433 88.5558 50.2603 88.5558L49.5693 88.3906Z" fill="#FFF3F0"/>
<path d="M44.7324 102.599C46.9779 110.529 61.487 113.007 69.4324 113.503C69.6051 113.503 69.6051 113.503 69.6051 113.503L69.7779 113.338C69.7779 113.173 69.7779 113.173 69.7779 113.173L69.6051 113.007C63.387 110.694 46.4597 102.929 49.5688 89.0508V88.8856V88.7204C49.5688 88.7204 49.3961 88.7204 49.3961 88.5552H49.2233L47.4961 88.8856C47.4961 88.8856 47.3233 88.8856 47.3233 89.0508L47.1506 89.216L44.7324 102.599C44.7324 102.433 44.7324 102.599 44.7324 102.599Z" fill="#F4DCD9"/>
<path d="M77.5532 98.6343L75.135 97.4778L64.9441 94.5039H64.7713C64.7713 94.5039 64.5986 94.5039 64.5986 94.6691C63.735 95.6604 63.2168 96.9822 63.2168 98.3039C63.2168 101.773 66.4986 104.582 70.6441 104.582C74.4441 104.582 77.3804 102.269 77.8986 99.13V98.9648C77.7259 98.6343 77.7259 98.6343 77.5532 98.6343Z" fill="#0A0A0A"/>
<path d="M77.8988 98.4683C77.3806 101.277 74.7897 103.26 71.3351 103.26C68.7442 103.26 66.4988 101.938 65.4624 100.12C64.9442 99.2944 64.7715 98.4683 64.7715 97.6422C64.7715 96.4857 65.1169 95.3292 65.9806 94.5031L66.1533 94.3379H66.326L75.3078 97.1466L77.5533 98.1379L77.726 98.3031C77.8988 98.3031 77.8988 98.4683 77.8988 98.4683Z" fill="#FF881E"/>
<path d="M86.3615 105.904C86.3615 105.739 86.016 105.243 85.8433 105.078C85.3251 104.417 84.6342 103.756 83.9433 103.26C80.6615 100.947 77.0342 99.4603 73.4069 98.1385C70.1251 96.982 66.6706 95.8255 63.216 94.8342C61.8342 94.5037 60.2797 93.8429 59.0706 93.3472C55.616 92.0255 52.3342 90.3733 49.2251 88.3907C44.3888 85.4168 40.2433 81.6168 36.7888 77.3211C35.0615 75.0081 33.5069 72.6951 32.2979 70.2168C38.3433 80.6255 49.0524 88.2255 60.7979 92.0255C63.0433 92.6864 65.8069 93.3472 68.0524 93.8429C72.716 94.9994 77.2069 96.3211 81.5251 98.3037C81.8706 98.469 82.3888 98.6342 82.9069 98.9646C85.3251 100.121 88.0888 101.773 89.4706 103.921C89.6433 104.086 89.816 104.912 89.9888 105.078L86.3615 105.904Z" fill="#0A0A0A"/>
<path d="M49.225 89.2177C47.8432 94.009 46.9795 99.7917 49.5704 104.253C52.5068 108.713 58.0341 110.861 63.3886 112.183C67.0159 113.009 71.6795 113.174 74.2704 113.174C74.7886 113.174 74.7886 113.835 74.4432 113.835C71.6795 113.835 66.8432 113.835 63.3886 113.505C56.9977 113.174 49.7432 111.522 45.9432 106.235C42.1432 100.783 42.6614 93.6786 45.0795 87.896C46.1159 85.4177 49.9159 86.5743 49.225 89.2177Z" fill="#0A0A0A"/>
<path d="M46.6337 86.4083C43.1792 88.8865 41.1064 88.8865 41.1064 88.8865C41.1064 88.8865 44.3883 88.3909 43.8701 98.6344C43.6974 102.93 46.2883 91.1996 46.2883 91.1996C46.2883 91.1996 47.3246 85.9126 46.6337 86.4083Z" fill="#0A0A0A"/>
<path opacity="0.4" d="M56.6514 84.7556C68.915 80.9556 75.3059 87.8947 75.3059 87.8947L56.6514 84.7556Z" fill="black"/>
<path d="M78.415 90.5381C79.7969 93.3468 81.6969 95.9903 84.115 98.1381C85.1514 99.1294 86.1878 99.7903 87.2241 100.782C88.4332 101.938 89.2968 103.425 89.9878 104.912L87.7423 105.408C87.3968 104.086 86.7059 102.929 85.8423 101.773C84.9787 100.782 83.9423 99.9555 83.0787 98.9642C80.8332 96.6511 79.1059 93.6772 78.415 90.5381Z" fill="#0A0A0A"/>
<path d="M56.8245 82.6074C61.8335 82.4422 67.0154 82.7726 71.5063 84.9205C72.1972 85.2509 72.8881 85.7466 73.579 86.077C74.2699 86.5726 74.9608 87.0683 75.479 87.5639C75.479 87.5639 75.479 87.5639 75.3063 87.5639C75.3063 87.5639 75.3063 87.5639 75.1335 87.5639C72.0245 84.9205 67.5335 84.0944 63.3881 83.9292C62.0063 83.9292 60.6244 83.9292 59.2426 84.0944L56.9972 84.7552C56.8245 84.7552 56.6517 84.7552 56.479 84.7552C56.3063 84.7552 56.1335 84.59 56.1335 84.59C55.9608 84.4248 55.9608 84.2596 55.9608 84.2596C55.9608 84.0944 55.7881 83.9292 55.7881 83.7639C55.7881 83.5987 55.7881 83.4335 55.7881 83.2683C55.7881 83.1031 55.9608 82.9379 55.9608 82.9379C56.1335 82.7726 56.1335 82.7726 56.3063 82.6074C56.479 82.6074 56.6517 82.6074 56.8245 82.6074Z" fill="#0A0A0A"/>
<path opacity="0.2" d="M75.654 102.103C75.3086 102.268 75.1358 102.434 74.7904 102.599C74.2722 101.442 73.4086 100.286 72.5449 99.2944C72.5449 99.2944 73.4086 99.6249 75.654 102.103Z" fill="white"/>
<path opacity="0.2" d="M69.2617 98.9642C67.8798 99.2946 66.6708 99.7902 65.4617 100.286C65.2889 99.9555 65.1162 99.625 65.1162 99.4598C68.398 98.7989 69.2617 98.9642 69.2617 98.9642Z" fill="white"/>
<path d="M75.6519 98.4681L74.7883 98.1377L70.4701 96.8159H70.2974C70.2974 96.8159 70.1246 96.8159 70.1246 96.9811C69.7792 97.4768 69.6064 97.9724 69.6064 98.4681C69.6064 99.955 70.9883 101.277 72.8883 101.277C74.4428 101.277 75.8246 100.285 75.9974 99.129V98.9637C75.6519 98.6333 75.6519 98.4681 75.6519 98.4681Z" fill="#0A0A0A"/>
<path d="M88.6068 107.39C89.6432 107.225 90.3341 106.233 89.9886 105.242C89.8159 104.251 88.7795 103.59 87.7432 103.92C86.7068 104.086 86.0159 105.077 86.3613 106.068C86.5341 106.894 87.5704 107.555 88.6068 107.39Z" fill="#0A0A0A"/>
<path d="M103.807 106.069C103.98 105.077 103.462 104.086 102.426 103.921C101.389 103.756 100.353 104.251 100.18 105.243C100.007 106.234 100.526 107.225 101.562 107.391C102.426 107.556 103.462 107.06 103.807 106.069Z" fill="#0A0A0A"/>
</g>
<defs>
<clipPath id="clip0_160_927">
<rect width="190" height="190" fill="white"/>
</clipPath>
</defs>
</svg>
